<?xml version="1.0" encoding="UTF-8"?>
<!DOCTYPE svg PUBLIC "-//W3C//DTD SVG 1.1//EN" "http://www.w3.org/Graphics/SVG/1.1/DTD/svg11.dtd">
<!-- Creator: CorelDRAW 2019 (64-Bit) -->
<svg xmlns="http://www.w3.org/2000/svg" xml:space="preserve" width="48in" height="36in" version="1.1" style="shape-rendering:geometricPrecision; text-rendering:geometricPrecision; image-rendering:optimizeQuality; fill-rule:evenodd; clip-rule:evenodd"
viewBox="0 0 48000 36000"
 xmlns:xlink="http://www.w3.org/1999/xlink"
 xmlns:xodm="http://www.corel.com/coreldraw/odm/2003">
 <defs>
  <style type="text/css">
   <![CDATA[
    .str2 {stroke:#373435;stroke-width:6.94;stroke-miterlimit:2.61313}
    .str3 {stroke:#373435;stroke-width:3;stroke-miterlimit:2.61313}
    .str1 {stroke:black;stroke-width:6.94;stroke-linejoin:bevel;stroke-miterlimit:2.61313}
    .str0 {stroke:black;stroke-width:3;stroke-linejoin:bevel;stroke-miterlimit:2.61313}
    .fil0 {fill:none}
   ]]>
  </style>
 </defs>
 <g id="Layer_x0020_1">
  <metadata id="CorelCorpID_0Corel-Layer"/>
  <polygon class="fil0 str0" points="138.84,181.21 11590.09,181.21 11590.09,11532.41 138.84,11532.41 "/>
  <path class="fil0 str1" d="M11121.59 9327.52c95.9,22.09 198.81,8.74 288.16,-41.77"/>
  <line class="fil0 str1" x1="11372.18" y1="10037.14" x2="11534" y2= "10037.14" />
  <path class="fil0 str1" d="M11486.39 7700.17c4.52,-0.26 9.03,-0.58 13.54,-0.94"/>
  <path class="fil0 str1" d="M11522.46 9285.75c-34.97,-19.77 -77.74,-19.77 -112.71,0"/>
  <path class="fil0 str1" d="M4902.56 11221.82c40.85,-39.84 76.81,-78.69 108.02,-116.55 62.16,-75.42 104.98,-147.63 137.34,-203.98 23.51,-40.93 41.74,-71.41 61.8,-94.52 19.77,-22.78 42.2,-41.27 80.47,-60.65 45.32,-22.96 113.17,-44.81 195.4,-61.8 109.05,-22.54 240.75,-36.94 362.2,-43.15 102.46,-5.24 196.68,-4.79 278.91,1.28 48.22,3.56 92.59,8.94 135.67,16.5m212.04 56c113.11,38.59 244.83,94.59 407.02,168.28 100.34,45.59 211.98,97.83 335.02,156.55"/>
  <path class="fil0 str1" d="M7527.67 11190.12c260.77,130.74 492.29,208.17 699.44,228.06 150.81,14.48 289.15,-3.01 410.56,-48.9 122.44,-46.28 225.67,-120.63 315.4,-200.46 96.41,-85.77 179.43,-176.67 263.47,-247.3 80.05,-67.28 159.33,-115.61 251.96,-141.06 79.65,-21.88 171.55,-27.2 277.97,-14.96 148.06,17.03 322.2,69 499.64,132.72 173.5,62.3 349.06,133.72 510.06,190.35 177.19,62.31 336.41,106.85 475.47,121.27 87.95,9.12 284.67,-28.07 358.45,-46.03"/>
  <path class="fil0 str1" d="M4902.56 11221.82c40.85,-39.84 76.81,-78.69 108.02,-116.55 62.16,-75.42 104.98,-147.63 137.34,-203.98 23.51,-40.93 41.74,-71.41 61.8,-94.52 19.77,-22.78 42.2,-41.27 80.47,-60.65 45.32,-22.96 113.17,-44.81 195.4,-61.8 109.05,-22.54 240.75,-36.94 362.2,-43.15 102.46,-5.24 196.68,-4.79 278.91,1.28 48.22,3.56 92.59,8.94 135.67,16.5m212.04 56c113.11,38.59 244.83,94.59 407.02,168.28 100.34,45.59 211.98,97.83 335.02,156.55"/>
  <path class="fil0 str1" d="M7527.67 11190.12c260.77,130.74 492.29,208.17 699.44,228.06 150.81,14.48 289.15,-3.01 410.56,-48.9 122.44,-46.28 225.67,-120.63 315.4,-200.46 96.41,-85.77 179.43,-176.67 263.47,-247.3 80.05,-67.28 159.33,-115.61 251.96,-141.06 79.65,-21.88 171.55,-27.2 277.97,-14.96 148.06,17.03 322.2,69 499.64,132.72 173.5,62.3 349.06,133.72 510.06,190.35 177.19,62.31 336.41,106.85 475.47,121.27 87.95,9.12 168.57,6.72 242.35,-11.24"/>
  <path class="fil0 str1" d="M10776.72 10862.79c-66.14,-52.98 -109.54,-108.95 -133.61,-168.54 -22.48,-55.63 -29.47,-116.75 -17.93,-194.5 16.31,-109.95 71.92,-248.88 159.52,-403.07"/>
  <path class="fil0 str1" d="M10239.07 9902.77c-206.67,29.94 -392.94,67.66 -559.6,113.15 -180.24,49.2 -337.37,107.93 -476.58,172.89m-200.31 104.06c-161.11,92.1 -298.27,189.36 -441.26,278.33 -10.47,6.52 -20.99,13 -31.56,19.43m-196.35 110.89c-51.5,26.7 -104.65,52.32 -159.9,76.68 -178.12,78.53 -376.01,143.33 -582.39,192.07m-374.67 69.5c-182.15,25.12 -370.35,39.57 -567.1,46.7 -198.25,7.19 -406,7.21 -609.22,10.64 -3.69,0.06 -7.39,0.13 -11.07,0.19m-623.4 38.57c-102.34,13.47 -196.8,30.35 -285.13,47.27 -74.85,14.33 -145.51,28.16 -217.96,38.68m-365.47 15.59c-46.2,-2.77 -94.54,-7.28 -145.23,-13.72 -171.9,-21.85 -369.93,-66.2 -566.71,-126.89 -185.84,-57.31 -368.57,-128.37 -524.21,-204.23 -137.69,-67.1 -253.57,-137.56 -347.88,-209.78 -99.14,-75.93 -175.92,-154.03 -244.6,-240.57m-140.2 -201.15c-65.83,-104.74 -131.17,-221.39 -201.57,-350.33 -53.48,-97.96 -109.53,-202.86 -168.37,-314.56"/>
  <path class="fil0 str1" d="M10635.8 11038.73c-91.88,-73.59 -163.65,-161.91 -204.41,-266.89 -33.91,-87.33 -43.91,-184.89 -32.05,-283.86 15.26,-127.36 62.94,-257.8 131.3,-394.31"/>
  <path class="fil0 str1" d="M10530.65 10093.67c-266.51,27.91 -499.99,67.02 -701.28,116.3 -151.1,37 -283.69,79.71 -402.15,127.07m-255.8 119.92c-124.75,67.6 -236.22,141.17 -352.2,216.78 -77.98,50.83 -158.47,102.26 -243.71,151.87m-234.69 123.86c-132.04,62.33 -274.34,117.76 -422.72,164.68m-354.99 93.5c-192.96,41.34 -391.39,69.47 -595.3,86.25 -207.43,17.06 -422.58,22.39 -638.21,25.06 -238.72,2.95 -475.33,4.21 -680.6,19.03 -132.81,9.59 -251.76,24.76 -362.38,43.81 -135.78,23.38 -262.11,53.28 -409.3,70.8 -122.15,14.54 -258.75,18.88 -412.96,5.54 -172.84,-14.94 -367.91,-51.62 -567.47,-105.83 -35.19,-9.56 -70.47,-19.65 -105.69,-30.2m-676.55 -271.39c-109.04,-57.86 -206.5,-119.1 -291.26,-183.3 -122.46,-92.76 -218.8,-192.13 -301.54,-297.96m-135.74 -194.35c-55.87,-87.98 -109.02,-180.88 -164.46,-280.43 -84,-150.84 -172.59,-317.11 -268.43,-500.29"/>
  <path class="fil0 str1" d="M1105.68 9139.39c6.79,31.03 14.46,60.65 22.8,88.77 17.8,60.08 38.18,112.21 52.05,157.63 15.07,49.34 23.39,90.8 19.63,153.38m-57.03 261.24c-33.79,110.63 -79.25,241.98 -116.67,379.8 -32.82,120.87 -58.8,246.31 -62,367.76m30.9 241.4c19.87,62.44 49.45,120.81 88.53,172 68.57,89.83 163.52,156.16 269,203.18 152.56,68.01 327.72,99.14 500.63,115.35 179.82,16.86 356.88,17.19 521.98,13.94 218.05,-4.28 416.07,-14.61 604.47,-17.27 226.01,-3.19 441.07,4.13 654.37,26.45 55.32,5.79 110.43,12.53 165.33,20.23"/>
  <path class="fil0 str1" d="M933.41 6466.59c-1.12,5.57 -2.25,11.14 -3.37,16.71 -19.34,95.9 -63.95,199.6 -125.2,315.58 -80.03,151.56 -186.69,324.39 -275.65,516.54 -57.99,125.25 -108.21,258.32 -140.13,394.35m-36.53 303.84c0.8,132.96 25.47,264.6 78.94,387.52 71.72,164.92 193.63,312.14 358.29,437.8 55.34,42.23 115.51,82.21 180.44,120.08"/>
  <line class="fil0 str1" x1="933.41" y1="6466.59" x2="1036.72" y2= "6277.17" />
  <path class="fil0 str1" d="M1310.64 9005.45c7.13,51.44 16.88,97.83 28.86,140.92 15.28,54.93 35.13,104.81 54.52,166.83 14.15,45.23 26.87,98.04 31,158.04m-24.54 241c-8.42,37.19 -18.67,75.93 -30.41,116.22 -37.1,127.28 -88.34,271.36 -126.73,413.27 -32.05,118.46 -53.78,234.24 -53.8,330.91 -0,16.39 0.58,32.18 1.75,47.39m134.48 268.18c16.22,12.93 34.06,25.19 53.61,36.83 94.8,56.5 229.45,94.69 376.17,116.27 146.13,21.49 302.04,28.01 452.12,28.61 191.99,0.76 375.25,-7.75 550.25,-13.37 121.46,-3.9 239.93,-6.32 356.76,-5.85"/>
  <path class="fil0 str1" d="M1109.02 6674.82c-55.41,152.2 -143.07,299.74 -229.83,455.23 -7.56,13.56 -15.12,27.18 -22.65,40.87m-104.1 200.14c-33.87,70.22 -64.96,141.56 -91,213.51 -45.43,125.55 -75,251.8 -81.98,371.44m13.74 212.51c29.39,146.14 102.12,278.52 228.8,401.56 91.71,89.08 212.15,172.6 361.86,248.63"/>
  <line class="fil0 str1" x1="1191.73" y1="6463.73" x2="1285.41" y2= "6292.01" />
  <path class="fil0 str1" d="M4504.96 11261.53c134.65,-99.79 235.24,-189.94 305.37,-268.92 55.19,-62.16 91.31,-116.57 123.02,-170.57 10.74,-18.28 21.07,-36.91 32.12,-55.91m223.91 -221.61c82.83,-41.74 184.02,-69.45 295.66,-89.67 75.35,-13.65 154.78,-23.72 233.49,-30.66m267.28 -12.07c85.24,0.02 164.69,4.34 239.19,13.52 79.22,9.76 153.49,25.24 228.48,46.5m231.87 80.83c36.39,14.57 74.04,30.29 113.44,47.17 163.22,69.91 356.5,160.19 587.87,271.26 76.15,36.57 156.28,75.36 240.39,116.4 0.19,0.09 0.37,0.18 0.56,0.27"/>
  <path class="fil0 str1" d="M7918.09 11114.15c123.28,44.17 233.72,70.35 330.57,79.65 86.26,8.29 161.28,3.83 228.97,-11.29m271.5 -136.65c31.61,-25.08 62.89,-52.75 94.5,-82.48 89.03,-83.74 179.99,-182.83 292.06,-264.98 56.11,-41.14 118.13,-77.45 185.54,-105.19m219.32 -54.48c104.11,-10.63 214.69,-3.34 327.89,17.22 240.86,43.73 497.06,144.88 728.87,233.35 168.41,64.28 322.78,120.83 452.45,155.8 129.46,34.91 234.66,48.44 310.25,43.4 22.89,-1.53 212.5,-39.41 230.07,-43.69"/>
  <path class="fil0 str1" d="M805.24 9978.74c90.66,-64.41 203.96,-124.58 337.89,-178.33m257.35 -88.17c61.91,-18.19 125.24,-34.93 188.37,-49.93 129.1,-30.68 255.17,-53.8 364.39,-67.94m245.06 -18.18c7.23,-0.07 14.41,-0.1 21.56,-0.09 88.81,0.16 175.18,6.82 279.28,16.9 140.83,13.64 313.05,33.11 522.39,55.8 15.2,1.65 30.6,3.31 46.18,5"/>
  <path class="fil0 str1" d="M3067.7 9653.81c36.83,76.31 86.58,158.47 151.28,247.8 87.56,120.9 203.02,255.89 352.45,382.17 3.44,2.91 6.91,5.81 10.39,8.71m295.06 201.19c58.02,31.95 119.04,61.56 182.93,88.21 247.63,103.3 536.3,163.09 857.11,181.73 16.1,0.94 32.28,1.77 48.55,2.5"/>
  <path class="fil0 str1" d="M674.68 9794.98c117.79,-83.69 259.91,-156.39 422.65,-218.72 33.45,-12.81 67.81,-25.18 102.82,-37.08m224.86 -67.93c53.81,-14.42 107.87,-27.69 161.39,-39.73 124.33,-27.95 243.87,-49.01 351.45,-62.43m245.81 -18.06c41.6,-0.7 81.99,-0.11 122.05,1.54 77.98,3.22 156.08,9.99 242.7,18.71m502.69 53.97c34.18,3.71 69.32,7.52 105.43,11.43 22.49,2.43 44.98,4.85 67.46,7.29"/>
  <path class="fil0 str1" d="M3319.95 9646.46c30.37,50.73 68.06,106.4 113.24,165.41 102.19,133.44 242.06,282.61 422.42,405.1 19.12,12.99 38.72,25.67 58.8,38.02m291.14 141.95c71.32,26.93 146.82,50.41 226.56,70.03 228.95,56.35 491.75,82.01 784.35,77.19"/>
  <path class="fil0 str1" d="M1325.76 10888.21c134.3,30.02 262.79,47.42 385.51,49.8 157.24,3.04 305.54,-20.66 437.39,-77.09 146.89,-62.87 270.81,-164.08 373.2,-291.46"/>
  <path class="fil0 str1" d="M2708.45 10442.23c44.54,-6.14 92.33,-8.51 143.94,-7.09 97.99,2.7 209.94,20.21 336.37,40.69 130.32,21.11 276.09,43.67 431.38,42.47 83.65,-0.64 169.91,-8.71 256.74,-24.61m328.67 -96.75c111.76,-43.91 221.54,-95.83 327.65,-145.99 139.83,-66.09 273.56,-127.26 396.14,-160.59 117.72,-32.01 223.56,-38.91 325.26,-15.41 101.19,23.38 201.44,77.23 304.74,171.96 52.85,48.46 106.07,107.53 159.19,177.29"/>
  <path class="fil0 str1" d="M1124.2 10599.32c283.27,90.74 534.4,130.2 732.54,106.94 161.12,-18.91 287.01,-78.15 397.94,-179.85 46.83,-42.93 90.7,-93.42 131.44,-151.32"/>
  <path class="fil0 str1" d="M2568.25 10241.08c90.93,-24.35 188.36,-34.03 289.72,-31.3 144.12,3.9 296.2,33.44 450.85,56.76 90.18,13.6 181.07,24.1 273,25.94m332.59 -37.5c57.37,-14.27 115.67,-32.56 175.15,-54.72 153.81,-57.29 314.46,-140.21 479.38,-214.44 76.9,-34.61 154.89,-67.04 234.05,-92.84m235.92 -52.54c122.67,-12.73 247.55,0.15 366.72,45.37 158,59.95 303.7,173.64 438.07,333.88 48.6,57.96 95.9,122.11 142.11,192.42"/>
  <path class="fil0 str1" d="M7600.41 9982.98c42.83,57.65 93.85,109.89 148.41,157.48 98.02,85.48 206.3,158.65 299.48,233.68 98.52,79.33 179.29,160.56 239.6,250.85 28.14,42.13 52.15,86.15 72.26,132.36"/>
  <path class="fil0 str1" d="M8340.81 10949.47c4.88,47.72 18.89,95.34 44.67,137.46 23.52,38.42 55.82,70.42 92.15,95.57"/>
  <path class="fil0 str1" d="M7432.88 7435.25c206.17,-30.48 415.97,-19.27 633.01,36.85 160.02,41.39 323.69,107.12 489.56,193.68m408.36 250.7c89.93,63.04 180.14,131.21 270.43,203.96 49.42,39.81 98.88,81.04 148.37,123.64 0.54,0.46 1.07,0.93 1.62,1.39"/>
  <path class="fil0 str1" d="M9384.22 8245.47c0.56,0.44 1.11,0.89 1.67,1.33 72.37,57.67 123.48,115.28 151.8,166.68 23.02,41.78 31.9,77.78 30.59,118.1 -1.48,45.31 -17.78,99.61 -52.41,162.09 -10.71,19.32 -23.09,39.31 -37.09,59.81"/>
  <path class="fil0 str1" d="M9265.87 8968.65c-16.44,32.73 -27.53,67.6 -32.62,102.15 -10.22,69.46 1.18,134.02 12.63,188.2 11.48,54.32 22.39,99.3 25.03,132.44 2.18,27.26 -0.04,46.26 -5.17,62.59"/>
  <path class="fil0 str1" d="M8977.96 9722.76c-12.41,29.2 -22.37,59.58 -29.87,90.54 -29.28,120.78 -22.97,250.94 13.18,371.23 11.11,36.96 24.94,73.08 41.31,108.34"/>
  <path class="fil0 str1" d="M9171.41 10456.95c36.81,9.86 66.46,22.18 87.32,35.03 23.06,14.2 35.17,27.12 44.79,44.35 7.8,13.94 14.15,32.65 17.7,56.87"/>
  <path class="fil0 str1" d="M7234.91 7244.56c231.57,-56.34 470.09,-67.17 711.59,-27.81 195.71,31.89 392.1,96.4 587.66,187.17m275.42 144.98c37.2,21.82 74.34,44.51 111.41,68 203.56,128.96 405.63,281.69 607.08,454.98"/>
  <path class="fil0 str1" d="M9528.07 8071.87c83.83,67.06 152.24,138.63 200.26,220.87 5.48,9.37 10.66,18.93 15.53,28.62m48.91 233.09c-4.73,69.83 -25.59,138.35 -56.77,203.89 -5,10.51 -10.27,20.98 -15.8,31.4"/>
  <path class="fil0 str1" d="M9553.07 8989.33c-34.03,20.62 -57.45,40.99 -71.69,58.63 -16.37,20.27 -22.53,35.79 -25.4,57.67 -3.03,23.1 0.09,56.02 8.49,97.38 11.35,55.87 30.93,124.73 32.56,197.89 0.34,15.42 -0.22,31.02 -1.74,46.61"/>
  <path class="fil0 str1" d="M9411.75 9648.19c-13.96,3.37 -27.93,6.74 -41.89,10.11 -59.1,14.26 -100.79,38.17 -133.37,72.43 -28.67,30.15 -51.4,71.04 -65.68,121.73 -17.64,62.63 -20.78,136.61 -7.84,208.26 7.77,43.05 21.09,85.8 39.91,128.11"/>
  <path class="fil0 str1" d="M9427.21 10337.04c25.76,22.49 48.55,48.71 66.44,77.95 23.6,38.57 38.46,80.54 46.91,123.74"/>
  <path class="fil0 str1" d="M5310.35 11376.02c44.69,0.58 90.64,-6.16 140.43,-18.61m578.27 -260.11c91.16,-54 181.99,-113.58 264.83,-175.46 104.87,-78.34 196.05,-160.61 267.57,-234.78 60.33,-62.57 106.9,-118.01 146.73,-157.63 42.61,-42.38 76.42,-67.27 127.61,-89.31 43.91,-18.91 102.7,-34.7 173.56,-52.69 91.65,-23.28 201.82,-51.06 305.16,-106.19 81.89,-43.69 158.11,-105.77 216.26,-183.02 26.98,-35.83 50.09,-74.54 69.65,-115.23"/>
  <path class="fil0 str1" d="M7433.43 8783.51c-119.31,-148.88 -241.25,-285.08 -366.06,-408.44m-238.48 -217.25c-118,-99.09 -238.09,-189.08 -359.78,-276.26 -165.19,-118.35 -333.85,-234.42 -508.74,-361.76 -97.33,-70.87 -196.52,-144.8 -297.56,-221.91"/>
  <path class="fil0 str1" d="M4914.62 6922.61c143.38,86.07 329.52,168.61 542.96,246.4"/>
  <path class="fil0 str1" d="M5313.28 11150.63c26.5,0.34 79.96,-8.48 149.99,-31.79 90.7,-30.18 211.64,-83.54 341.57,-153.59 135.44,-73.01 278.06,-163.7 394.65,-254.98 21.91,-17.15 42.85,-34.28 62.87,-51.31m191.12 -186.81c42.37,-46.81 81.66,-91.58 128.29,-133.34 15.54,-13.91 32.04,-27.26 49.41,-39.85m204.69 -98.11c77.98,-23.93 159.52,-40.54 235.57,-63.8 77.49,-23.7 146.85,-53.98 201.76,-96.16 59.41,-45.64 104.79,-106.11 137.02,-184.15 26.32,-63.74 42.71,-138.52 50.05,-216.57m-3.5 -230.89c-12.93,-107.17 -40.57,-207.24 -79.88,-294.81 -11.05,-24.61 -23.04,-48.32 -35.96,-71.16"/>
  <path class="fil0 str1" d="M7201.09 8855.29c-121.1,-145.85 -244.11,-277.11 -369.49,-394.18 -28.26,-26.39 -56.65,-52.03 -85.22,-77.06m-312.6 -249.42c-50.16,-37.04 -101.08,-73.65 -152.91,-110.41 -171.2,-121.42 -351.7,-246.87 -538.81,-384.96 -105.65,-77.97 -213.41,-159.51 -323.11,-244.56"/>
  <path class="fil0 str1" d="M4418.2 6775.11c74.26,109.01 178.27,208.73 313.03,298.26 0.55,0.37 1.11,0.73 1.66,1.1m214.09 122.9c62.98,31.73 129.78,62.3 199.96,91.98"/>
  <path class="fil0 str1" d="M6064.69 9515.2c121.14,140.71 247.13,305.03 379.37,498.82 61.26,89.76 123.72,185.09 187.11,284.93"/>
  <path class="fil0 str1" d="M6333.38 9485.39c77.69,96.06 156.91,201.04 237.84,316.25 86.67,123.38 174.95,257.23 264.65,399.19"/>
  <path class="fil0 str1" d="M4157.37 6841.77c-37.8,73.44 -87.7,138.61 -148.07,192.7 -8.54,7.66 -17.28,15.07 -26.19,22.26m-192.13 117.28c-14.69,7.05 -29.42,13.84 -44.12,20.41 -94.01,42.06 -186.19,77.7 -262.37,122.58 -91.66,54.01 -161.32,120.32 -215.32,219.46 -17.12,31.43 -32.57,66.17 -46.19,104.26"/>
  <path class="fil0 str1" d="M10829.21 9236.85c-109.38,-56.32 -218.44,-110.61 -327.59,-162.44 -182.17,-86.5 -365.27,-166.64 -555,-225.92 -74.58,-23.3 -150.3,-43 -226.42,-58.75m-241.44 -36.26c-150.77,-13.94 -298.67,-11.72 -434.98,-4.99 -60.19,2.97 -117.88,6.63 -173.86,10.08m-652.88 -1.3c-70.08,-4.2 -143.98,-8.58 -221.17,-11.46 -146.03,-5.44 -302.5,-4.25 -452.86,17.64 -37.02,5.39 -73.61,12.11 -109.58,20.06m-232.33 71.78c-5.65,2.29 -11.28,4.62 -16.87,6.97 -128.48,54.15 -238.72,122.79 -338.06,183.42 -16.26,9.93 -32.24,19.6 -48.02,29m-223.54 114.53c-2.44,0.97 -4.89,1.94 -7.33,2.9 -93.54,36.52 -197.6,62.02 -325.3,79.15 -137.41,18.44 -302.18,27.19 -485.54,32.59 -223.33,6.57 -472.85,9.33 -710.22,13.52 -52.99,0.94 -105.29,1.96 -156.55,2.9m-307.34 3.32c-41.75,-0.13 -81.98,-0.63 -120.41,-1.63 -131.62,-3.42 -241.83,-13.97 -329.06,-37.39 -99.03,-26.58 -169.52,-67.56 -235.27,-134.7 -62.51,-63.84 -119.7,-153.74 -175.21,-262.32 -20.87,-40.82 -41.54,-83.97 -62.24,-128.85m-91.86 -206.54c-19.56,-44.77 -39.41,-90.26 -59.74,-136.02 -80.52,-181.22 -168.54,-366.88 -265.96,-550.6"/>
  <path class="fil0 str1" d="M11145.98 9378.2c32.15,-7.19 62.05,-21.3 87.74,-40.99"/>
  <path class="fil0 str1" d="M3932.23 6781.78c-25.46,38.82 -56.36,72.17 -93.85,102.15 -51.65,41.29 -118.13,75.95 -197.59,110.95 -85.37,37.61 -184.65,75.91 -279.66,133.24m-191.99 159.41c-25.04,28.62 -48.3,59.49 -69.32,92.55 -56.95,89.56 -98.37,193.79 -126.28,310.9"/>
  <path class="fil0 str1" d="M11044.55 9606c-6.83,-3.7 -13.66,-7.4 -20.49,-11.1 -217.37,-117.71 -432.48,-229.09 -644.38,-328.8 -197.15,-92.78 -390.75,-174.5 -583.92,-226.88 -80.71,-21.88 -161.66,-38.39 -242.69,-49.89m-287.21 -20.69c-96.71,-0.78 -192.18,3.63 -285.41,9.09m-225.03 12.98c-79.24,3.72 -158.65,5.91 -241.06,4.93 -116.08,-1.38 -239.28,-9.12 -371,-16.79 -156.91,-9.14 -325.16,-16.5 -481.6,-2.42 -48.37,4.35 -95.36,10.79 -140.82,19.31m-180.02 47.55c-4.53,1.59 -9.05,3.2 -13.54,4.83 -123.83,45.15 -232.91,110.08 -343.56,177.61m-211.1 120.81c-40.81,20.63 -83.05,39.91 -127.27,57.02 -94.69,36.63 -197.96,63.11 -312.08,81.83m-268.69 29.8c-132.74,9.39 -277.11,13.85 -428.89,17.21 -213.2,4.72 -439.51,7.75 -653.54,11.55 -45.3,0.8 -89.98,1.65 -133.94,2.41m-263.9 2.62c-38.56,-0.09 -76.26,-0.5 -112.98,-1.31 -164.64,-3.65 -311.39,-15.97 -442.49,-58.89 -47.06,-15.41 -91.91,-35.15 -134.06,-59m-190.15 -156.48c-90.72,-103.47 -159.53,-230.69 -223.85,-365.99 -14.06,-29.57 -27.93,-59.54 -41.69,-89.81m-112.1 -253.74c-21.01,-47.92 -42.29,-96.07 -64.11,-144.19 -76.6,-168.91 -159.39,-337.83 -250.31,-505.64"/>
  <path class="fil0 str1" d="M11247.8 9583.01c118.19,-42.08 216.76,-132.81 266.36,-254.81"/>
  <path class="fil0 str1" d="M1081.96 8078.36c33.53,10.5 94.84,38.44 172.96,81.14 81.61,44.61 183.5,106.17 288.85,164.06 84.51,46.44 169.36,89.67 253.86,115.2 59.91,18.1 122,26.93 182.81,18.91 55.11,-7.27 105.91,-28.18 150.95,-54.26 64.17,-37.14 121.21,-83.8 189.46,-134.33 78.7,-58.25 172.05,-122.49 277.49,-181.24 115.1,-64.14 242.94,-120.66 367.5,-159.91 15.68,-4.94 31.3,-9.61 46.83,-14.02m229.89 -48.38c20.05,-2.82 39.94,-5.27 59.65,-7.39 148.33,-15.91 290.02,-13.86 441.91,-25.44 13.57,-1.03 27.22,-2.2 40.93,-3.49m245.59 -35.7c27.95,-5.43 56.15,-11.36 84.61,-17.79 164.15,-37.11 338.11,-88.74 514.89,-135.14 54.75,-14.37 109.72,-28.08 164.13,-41.13m223.76 -51.06c11.26,-2.46 22.45,-4.89 33.56,-7.28 130.51,-28.16 247.38,-52.9 342.5,-86.24 23.8,-8.34 46.4,-17.45 67.63,-27.12m201.09 -129.87c22.5,-14.7 46.43,-27.3 80.36,-39.98 47.35,-17.7 114.76,-34.04 194.86,-49.44 117.52,-22.59 258.37,-44.32 379.32,-77.88 15.81,-4.39 31.3,-9.02 46.41,-13.84m245.17 -108.59c20.96,-11.4 39.76,-21.51 57.24,-29.59 2.98,-1.37 5.93,-2.71 8.85,-3.99m274.21 -26.88c20.66,1.57 42.39,3.55 65.14,5.9 136.28,14.09 307.17,39.54 482.39,51.99 144.48,10.26 291.07,10.72 429.14,2.44 167.94,-10.07 323.16,-31.52 468.93,-39.23 54.96,-2.91 108.79,-3.7 162.36,-1.44m249.15 35.82c19.34,4.93 38.82,10.42 58.48,16.52 133.64,41.46 275.59,111.29 421.29,208.3 233.74,155.64 474.39,380.43 681.83,618.91 48.12,55.32 94.41,111.21 138.75,167.22m140.25 186.2c38.26,53.41 74.63,106.47 109.02,158.76 139.65,212.39 247.1,412.34 339.71,599.59 47.15,95.34 90.98,187.88 133.53,278.17m163.42 341.07c64.4,129.39 130.58,254.75 199.78,375.91"/>
  <path class="fil0 str1" d="M6983.83 9225.74c28.77,20.97 56.96,39.41 84.65,55.48 88.72,51.45 171.05,78.94 300.88,108.85 27.04,6.23 56.18,12.61 87.4,19.2m183.91 37c10.21,1.99 20.57,3.99 31.07,6.03 157.23,30.41 346.39,65.44 529.43,86.86 135.48,15.85 265.89,23.34 378.98,18.85 16.55,-0.66 32.72,-1.57 48.54,-2.7m259.8 -42.43c81.22,-20.13 161.16,-44.21 252.69,-60.26 40.66,-7.13 83.47,-12.23 128.43,-14.7m225.66 9.59c133.99,18 282.47,56.92 439.95,108.06 260.21,84.49 543.67,200.34 781.48,281.85 161.41,55.32 301.43,94.22 406.15,109.33 25.29,3.65 48.56,5.99 69.55,7.1"/>
  <path class="fil0 str1" d="M4582.31 9323.59c48.07,-72.43 113.82,-138.44 191.61,-199.64 97.59,-76.76 215.83,-146.63 322.76,-213.83 63.96,-40.19 122.63,-79.41 171.61,-117.03m165.85 -153.48c19.94,-19.77 41.77,-39.69 68.61,-58.04m219.82 -54.35c54.93,4.13 111.54,18.01 170.89,37.14 138.52,44.64 292.67,119.98 441.04,203.8 159.28,89.99 311.16,190.38 449.51,295.72 4.72,3.59 9.43,7.2 14.12,10.8"/>
  <path class="fil0 str1" d="M4584.42 9548.99c86.08,139.3 165.87,264.95 236.98,371.8 24.56,36.9 48.21,71.85 71.08,105.09"/>
  <path class="fil0 str1" d="M5598.95 8118.31c0.41,0.11 0.82,0.22 1.24,0.33 57.28,15.15 129.12,45.7 221.87,82.25 89.65,35.32 199.54,74.41 321.67,105.49 133.79,34.04 280.71,58.35 415.75,69.53 65.87,5.45 128.63,7.78 186.91,8.14m320.98 -8.98c5.76,0.02 11.49,0.08 17.17,0.19 63.02,1.24 124.37,8.41 198.68,26 92.78,21.97 204.65,60.73 329.81,109.68 154.55,60.44 326.8,134.07 500.45,204.65 34.46,14 68.99,27.91 103.56,41.67"/>
  <path class="fil0 str1" d="M8752.82 8956.83c7.69,79.26 4.76,162.67 -12.17,253.19 -19.64,105.02 -58.52,221.68 -111.94,345.29"/>
  <path class="fil0 str1" d="M5439.55 7884.61c55.91,-7.57 113.11,-5.56 169.03,4.92 82.3,15.43 160.16,47.16 245.31,81.37 77.11,30.98 162.49,64.48 261.21,93.82 98.17,29.17 209.19,53.69 318.68,69.92m395.11 23.19c54.56,-1.57 105.32,-4.71 156.01,-6.62m280.39 16.43c42.44,7.56 86.39,17.61 132.01,30.35 103.24,28.83 216.14,70.41 334.99,117.65m249.26 101.87c145.74,60.21 294.8,121.78 442.5,179.03 149.67,58.02 298.43,112.21 445.87,162.04"/>
  <path class="fil0 str1" d="M8980.46 8977.73c5.06,88.94 -0.71,181.59 -18.96,277.56 -16.05,84.41 -41.01,170.22 -72.99,257.59"/>
  <path class="fil0 str1" d="M699.64 9447.28c113.96,-95.49 241.15,-192.99 378.54,-288.82 9.12,-6.36 18.29,-12.72 27.5,-19.06m204.96 -133.94c45.28,-27.82 90.48,-54.29 134.92,-78.67 107.59,-59.04 209.66,-104.31 292.12,-123.89 57.14,-13.57 103.44,-15.48 147.2,-7.01 43.35,8.39 87.42,27.69 139.46,63.56m223.89 202.17c5.46,5.64 10.95,11.34 16.46,17.09 90.73,94.7 186.55,200.49 283.72,292.59m472.38 277.44c15.91,3.03 31.93,5.52 48.06,7.46m251.1 -9.72c120.83,-21.3 248.06,-64.37 386.26,-125.36 60.81,-26.83 123.66,-57.28 188.68,-91.31"/>
  <path class="fil0 str1" d="M554.86 9274.5c119.64,-100.25 251.81,-201.52 394.99,-301.36 6.76,-4.71 13.54,-9.42 20.34,-14.13m213.67 -140.3c55.79,-34.46 112.18,-67.42 168.53,-97.87 119.29,-64.47 236.8,-117.68 354.82,-142.08 83.3,-17.22 168.78,-18.61 250.93,2.68 67.65,17.52 131.14,49.46 192.06,91.06m203.98 175.25c49.08,48.8 97.91,100.68 146.73,152.46 96.29,102.14 191.2,202.13 278.11,275.28 71.96,60.56 137.69,102.56 200.84,127.68 71.77,28.54 142.65,38.01 229.21,30.71 131.77,-11.11 297.99,-64.52 495.68,-160.57"/>
  <path class="fil0 str1" d="M2024.35 8859.43c7.75,76.42 5.76,155.89 -8.87,240.89 -14.33,83.27 -41.12,173.78 -77.62,268.78"/>
  <path class="fil0 str1" d="M3327.1 8563.77c-145.67,-25.01 -295.29,-35.85 -449.14,-29.37 -236.87,9.98 -480.06,60.51 -727.76,138.09"/>
  <path class="fil0 str1" d="M3568.26 8552.17c28.51,-14.84 60.89,-30.45 97.29,-47.24 102.65,-47.36 236.77,-102.97 362.99,-154.37 105.69,-43.03 203.84,-82.37 275.39,-114.08 31.96,-14.17 58.39,-26.78 80.24,-38.37m196.26 -171.89c14.05,-14.36 29.16,-29.44 45.37,-45.02 67.28,-64.67 152.99,-137.02 251.12,-186.75m218.66 -60.22c39.07,-1.33 78.07,2.49 115.46,11.96 83.72,21.2 156.79,68.39 216.78,126.73 3.96,3.85 7.87,7.75 11.74,11.69m159.4 233.7c7.7,15.92 15.09,32.09 22.17,48.45 47.98,110.92 81.41,231.69 101.46,360.46"/>
  <path class="fil0 str1" d="M2248.24 9061.6c-2.16,20.89 -4.92,41.94 -8.31,63.14 -11.94,74.6 -31.22,149.99 -56.26,226.29"/>
  <path class="fil0 str1" d="M3490.25 8830.88c-192.76,-52.97 -390.65,-79.58 -597.19,-71.49 -171.81,6.73 -352.13,37.96 -538.89,88.35"/>
  <path class="fil0 str1" d="M3660.12 8758.7c58.55,-31.15 159.25,-76.95 274,-125.3 110.21,-46.43 231.02,-94.74 333.21,-136.72 78.23,-32.15 145.04,-60.28 200.63,-88.15 54.25,-27.19 99.94,-56.31 139.68,-90.37 9.31,-7.98 18.28,-16.12 27.04,-24.42m166.31 -167.9c26.47,-24.54 54.69,-48.75 84.07,-70.79 51.92,-38.95 106.47,-69.51 153.44,-84.2 47.68,-14.91 86.12,-15.2 123.02,-4.58 38.78,11.17 78.73,36.53 118.31,77.44 55.78,57.66 107.15,142.96 146,240.48 35.53,89.18 61.4,188.89 76.93,297.37"/>
  <path class="fil0 str1" d="M11058.78 9195.93c-72.21,-138.04 -103.29,-271.9 -98.05,-411.23 4.34,-115.37 35.07,-236.17 84.88,-369.19 65.59,-175.16 163.08,-370.46 237.3,-592.76 2.67,-8 5.31,-16.05 7.92,-24.12m59.8 -222.69c22.54,-105.1 38,-214.98 43.87,-329.11 15.28,-297.12 -32.85,-621.8 -142.21,-969.8 -2.4,-7.64 -4.83,-15.29 -7.29,-22.96"/>
  <path class="fil0 str1" d="M10827.82 9236.14c-4.11,-9.16 -8.09,-18.34 -11.93,-27.55m-57.21 -617.11c12.54,-61 29.53,-121.79 49.87,-182.17 60.7,-180.26 148.76,-358.2 220.27,-545.65 15.09,-39.57 29.4,-79.58 42.69,-120.12m59.43 -218.03c15.24,-71.12 26.72,-144.28 33.49,-219.95 21.58,-241.49 -4,-509.26 -81.95,-804.66 -1.92,-7.26 -3.87,-14.54 -5.84,-21.83"/>
  <path class="fil0 str1" d="M9792.77 8554.45c133.95,-76.98 252.39,-157.28 348.85,-244.96 39.01,-35.46 74.04,-71.87 105.33,-109.15"/>
  <path class="fil0 str1" d="M10348.64 8054.56c1.26,-3.9 2.5,-7.8 3.76,-11.7 31.31,-97.46 74.41,-171.16 126.73,-222.3 49.29,-48.19 107.33,-78.71 188.26,-94.91 103.13,-20.65 241.91,-14.19 404.12,17.9"/>
  <path class="fil0 str1" d="M11290.82 7798.64c63.82,12.82 129.11,17.7 194.35,14.47 7.91,-0.39 97,6.55 104.91,5.92"/>
  <path class="fil0 str1" d="M9743.86 8321.36c100.3,-61.33 186.2,-123.21 252.4,-184.41 62.89,-58.14 110,-116.74 145.62,-175.5"/>
  <path class="fil0 str1" d="M10217.65 7792.88c28.27,-47.7 61.35,-91.17 100,-129.67 9.32,-9.28 18.97,-18.23 28.94,-26.83m206.67 -114.03c4.17,-1.3 8.36,-2.57 12.56,-3.78 132.26,-38.3 280.3,-37.76 440.96,-14.83 40.5,5.78 81.87,13.06 124.15,21.77"/>
  <path class="fil0 str1" d="M11350.62 7575.94c83.46,12.21 183.97,16.6 239.47,12.17"/>
  <path class="fil0 str1" d="M10601.17 7562.82c-47.36,-37.7 -90.63,-78.44 -129.38,-122.93m-129.22 -197.65c-28.85,-60.56 -53.05,-127.2 -73.18,-199.28"/>
  <path class="fil0 str1" d="M8708.61 6107.55c65.86,7.09 150.4,5.45 248.35,-0.14 145.99,-8.33 320.24,-24.2 493.68,2.82 25.89,4.04 51.77,9.12 77.48,15.32m284.82 127.44c118.99,84.62 218.66,205.42 298.52,355.5 35.41,66.56 67.19,138.95 95.69,217.12"/>
  <path class="fil0 str1" d="M8572.68 5570.18c-34.65,114.97 -54.61,217.88 -56.18,298.65 -0.71,36.63 2.13,68.81 8.02,97.78"/>
  <path class="fil0 str1" d="M7704.11 4428.22c9.27,37.18 23.15,72.09 41.66,105.7 34.33,62.35 86.86,121.39 156.44,181.42 111.57,96.27 263.23,193.28 391.19,312.96 96.48,90.24 178.82,193.33 238.94,307.43"/>
  <path class="fil0 str1" d="M10346.59 7636.39c-43.69,-44.66 -83.98,-93.02 -120.18,-145.49m-117.02 -218.87c-23.53,-57.69 -43.44,-117.93 -60.36,-180.17"/>
  <path class="fil0 str1" d="M8467.78 6269.2c12.02,6.49 24.43,12.46 37.16,17.92m334.19 50.41c66.11,-1.02 134.97,-5.32 205,-9.49 14.88,-0.89 29.8,-1.74 44.71,-2.54m438.97 33.76c89.37,29.16 168.38,77.22 240.58,151.69 82.43,85.03 155.91,206.33 216.72,364.63"/>
  <path class="fil0 str1" d="M8310.92 5687.76c-10.01,52.33 -16.59,103.26 -18.99,152.93 -4.21,87.44 6.53,170.39 32.06,244.33"/>
  <path class="fil0 str1" d="M7600.72 4723.65c42.77,57.48 93.67,109.59 148.1,157.06 98.02,85.48 206.3,158.65 299.48,233.68 98.52,79.33 179.29,160.56 239.6,250.85 15.38,23.02 29.52,46.61 42.47,70.81"/>
  <path class="fil0 str1" d="M7731.61 7938.66c28.51,-27.9 71.8,-51.8 139.24,-67.15 67.43,-15.35 158.89,-20.43 263.64,-16.4 136.78,5.26 293.05,24.29 433.74,38.72 133.21,13.66 251.93,22.74 351.19,23.07 29.43,0.1 57.27,-0.51 83.66,-1.87"/>
  <path class="fil0 str1" d="M7678.57 7702.63c46.79,-24.31 98.92,-41.93 154.68,-53.64 121.25,-25.48 263.01,-24.06 408.35,-13.57 107.15,7.73 214.88,19.85 313.83,30.36"/>
  <path class="fil0 str1" d="M6666.2 6963.94c106.06,128.26 217.96,249.94 332.96,365.02 137.97,138.06 280.7,265.11 400.79,394.52 108.09,116.47 195.68,236.08 257.72,373.65 30.8,68.29 55.68,141.04 74.62,218.51"/>
  <path class="fil0 str1" d="M6034.87 6961.29c-86.65,-12.26 -173.17,-29.73 -259.52,-52.78 -20.38,-5.44 -40.74,-11.2 -61.06,-17.26m-325.73 -124.13c-154.61,-71.39 -307.62,-159.39 -458.9,-261.15 -136.13,-91.56 -271.17,-194.05 -405.54,-306.65"/>
  <path class="fil0 str1" d="M4541.8 5974.07c116.33,-88.83 204.96,-169.62 268.54,-241.22 55.19,-62.15 91.3,-116.56 123.01,-170.57 10.74,-18.28 21.07,-36.91 32.12,-55.91m223.91 -221.61c82.83,-41.73 184.01,-69.45 295.65,-89.67 75.36,-13.65 154.78,-23.72 233.5,-30.66m267.28 -12.07c85.24,0.03 164.69,4.35 239.2,13.52 79.67,9.81 154.32,25.41 229.76,46.86m232.53 81.25c35.78,14.35 72.8,29.81 111.5,46.39 163.22,69.91 356.51,160.19 587.88,271.26 63.01,30.25 128.74,62.04 197.2,95.35"/>
  <path class="fil0 str1" d="M7776.5 5876.69c82.38,80.05 159.73,137.95 229.96,174.67 81.64,42.68 152,57.7 219.11,53.7 32.56,-1.94 65.14,-8.57 98.41,-20.04m200.54 -118.41c72.51,-57.81 148.92,-130.95 229.3,-208.89 117.58,-114 244.54,-236.53 389.59,-329.59 56.54,-36.28 116.08,-67.86 178.01,-93.37m218.05 -61.19c138.7,-21.06 282.88,-10.61 424.72,20.51 152.14,33.38 302.5,89.22 445.68,148.42m354.28 150.19c88.17,36.09 170.7,67.4 246.24,90.55 136.64,41.89 249.98,57.37 338.17,49.3 25.15,-2.3 220.11,-51.13 241.54,-56.85"/>
  <path class="fil0 str1" d="M6949.24 6947.72c66.26,74.59 134.47,146.8 204.57,217.1 26.75,26.82 53.83,53.34 81.1,79.75m197.97 190.69c22.98,22.53 45.87,45.28 68.59,68.34 61.87,62.84 121.95,128.68 177.11,199.04m127.39 188.98c88.34,156.54 146.94,333.18 175.58,525.89"/>
  <path class="fil0 str1" d="M6760.77 6722.71c-21.29,3.17 -42.57,6.35 -63.86,9.53 -248.52,37.09 -493.86,35.93 -736.94,-12.17m-276.87 -76.02c-156.98,-55.32 -314.28,-131.3 -472.66,-226.43 -86.4,-51.88 -172.99,-109.2 -259.69,-171.54"/>
  <path class="fil0 str1" d="M4850.76 6010.93c62.91,-57.09 116,-112.26 159.81,-165.41 62.16,-75.42 104.98,-147.63 137.34,-203.98 23.5,-40.93 41.74,-71.41 61.8,-94.51 19.77,-22.78 42.2,-41.27 80.48,-60.65 45.31,-22.96 113.16,-44.81 195.4,-61.8 109.04,-22.54 240.74,-36.94 362.19,-43.15 102.46,-5.23 196.68,-4.79 278.91,1.27 45.45,3.35 87.47,8.33 128.22,15.22m261.56 72.12c103.49,37.62 222.46,88.7 364.94,153.44 121.56,55.23 259.68,120.21 414.59,194.66"/>
  <path class="fil0 str1" d="M7507.71 5920.63c143.8,163.36 284.54,280.7 429.78,347.97 110.04,50.96 223.99,71.42 333.42,58.66 68.64,-8 134.35,-28.62 196.87,-58.07m240.83 -161.65c95.74,-81.07 186.26,-173.86 277.76,-260.83 104.3,-99.14 209.2,-189.52 316.61,-252.02 126.12,-73.39 254.86,-108.89 399,-106.91 128.09,1.77 268.73,33.91 414.11,83.72 99.34,34.05 200.34,75.67 300.24,118.3m287.98 122.13c157.59,63.54 305.64,113.17 441.95,135.13 118.6,19.1 343.12,-15.55 443.83,-42.38"/>
  <path class="fil0 str1" d="M6321.66 7093.06c133.93,72.68 233.16,151.12 301.47,233.55 62.38,75.28 100.02,154.83 132.34,249.88 32.88,96.67 61.39,209.14 107.09,325.62 32.37,82.48 73.07,165.99 122.34,249.1"/>
  <path class="fil0 str1" d="M6608.94 7008.17c72.78,53.64 135.61,111.67 187.76,174.6 68.91,83.16 117.3,174.77 151.95,264.99 39.61,103.18 64.26,203.02 96.96,298.73 35.46,103.78 80.75,205.12 144.41,308.78 30.05,48.94 63.93,98.25 101.66,147.88"/>
  <path class="fil0 str1" d="M4732.89 7074.47c-8.31,53.02 -12.54,108.29 -11.84,165.76 0.56,46.8 4.17,94.25 10.19,142.42"/>
  <path class="fil0 str1" d="M4794.27 7599.47c39.49,89.13 75.72,175.87 108.66,260.67 4.95,12.73 9.83,25.43 14.65,38.08"/>
  <path class="fil0 str1" d="M4946.98 7197.37c-0.64,16.58 -0.77,33.53 -0.34,50.9 0.66,26.72 2.6,54.73 5.7,83.76"/>
  <path class="fil0 str1" d="M5018.02 7548.41c39.98,91.86 76.82,181.92 110.21,269.56"/>
  <path class="fil0 str1" d="M3790.98 7174.01c9.71,17.46 17.31,36.48 22.96,57.71 11.15,41.88 14.07,95.4 6.15,162.34 -7.25,61.33 -23.21,132.31 -46.67,209.72"/>
  <path class="fil0 str1" d="M3785.05 7829.23c26.58,53.4 61.92,101.62 104.87,142.41 73.27,69.59 166.3,116.25 263.51,152.04 75.69,27.86 154.17,50.52 230.74,74.43m250.52 95.65c55.2,26.72 107.85,56.74 158.28,90.4 126.42,84.39 241.1,189.61 349.14,290.22 43.31,40.34 85.39,80.02 126.18,118.72"/>
  <path class="fil0 str1" d="M3983.11 7056.73c23.11,39.64 40.78,83.14 51.91,129.88 21.24,89.23 18.31,186.83 1.01,288.58 -5.09,29.91 -11.39,60.29 -18.8,91.19"/>
  <path class="fil0 str1" d="M4030.64 7793.53c8.68,9.44 18.17,18.47 28.58,27.23 41.09,34.58 98.76,64.46 173.18,91.78 98.09,36.01 222.85,67.68 348.03,113.69m220.57 99.64c33.79,18.41 66.73,37.96 98.47,58.54 122.95,79.69 228.74,171.78 324.57,258.96 74.76,68 144.26,133.56 210.1,196.25"/>
  <path class="fil0 str1" d="M2056.03 8184.07c19.44,-67.07 43.58,-132.18 72.35,-195.51 46.44,-102.27 106.1,-199.94 167.34,-295.72 55.82,-87.32 112.25,-172.02 147.42,-263.03 22.46,-58.13 35.8,-120.7 29.79,-184.04 -3.94,-41.6 -16.61,-82.32 -36.11,-119.49"/>
  <path class="fil0 str1" d="M1817.2 8206.82c23.72,-101.39 56.51,-199.53 97.79,-293.26 49.46,-112.33 111.97,-218.11 171.86,-312.43 52.78,-83.11 101.95,-157.87 130.64,-217.41 20.8,-43.15 30.09,-76.97 31.31,-100.56 0.43,-8.28 0.22,-15.49 -0.78,-22.23"/>
  <path class="fil0 str1" d="M1277.53 7916.92c75.05,-121.15 150.84,-217.31 226.15,-290.3 96.76,-93.79 191.48,-149.35 293.88,-190.4 86.11,-34.52 179.94,-58.96 280,-96.36 56.09,-20.96 113.65,-46.82 170.46,-78.93m188.78 -134.66c33.77,-29.01 66.94,-59.72 99.8,-91.18m181.24 -175.96c65.2,-60.94 131.46,-117.19 200.35,-162.74 29.56,-19.54 59.6,-37.26 90.3,-53.2"/>
  <path class="fil0 str1" d="M1016.92 7916.45c86.8,-157.67 177.98,-288.97 274.37,-394.36m798.95 -432.49c43.3,-21.17 85.32,-46.07 128.09,-77.16 68.37,-49.7 139.06,-116.28 216.15,-192.24 90.62,-89.3 190.33,-189.69 304.72,-273.69 1.51,-1.11 3.02,-2.21 4.54,-3.32"/>
  <path class="fil0 str1" d="M2090.24 7089.61c18.58,-33.02 35.17,-66.57 49.66,-100.75 31.31,-73.86 52.2,-150.76 60.9,-229.17"/>
  <path class="fil0 str1" d="M1816.36 7428.98c-7.12,2.76 -14.23,5.51 -21.35,8.26m-503.72 84.85c-137.7,-7.99 -276.62,-42.79 -413.91,-96.78 -41.67,-16.39 -83.29,-34.5 -124.94,-54.26"/>
  <path class="fil0 str1" d="M1692.35 7235.02c113.67,-113.24 194.89,-226.63 241,-336.49 9.67,-23.03 17.81,-45.88 24.44,-68.67"/>
  <path class="fil0 str1" d="M1692.35 7235.02c-125.16,45.7 -250.15,68.24 -377.45,62.58 -113.46,-5.04 -231.91,-33.48 -356.81,-82.77 -33.5,-13.22 -67.37,-27.88 -101.55,-43.92"/>
  <path class="fil0 str1" d="M1277.53 7916.92c17.42,8.63 35.56,18 54.51,28.07 72.45,38.5 156.65,88.12 242.92,137.49 85.88,49.15 173.1,96.73 242.24,124.34m238.83 -22.76c18.31,-12.53 38.78,-27.41 61.44,-44.36 81.67,-61.08 192.47,-144.59 323.69,-221.62 130.17,-76.42 279.39,-146.48 428.18,-195.83 34.87,-11.57 69.66,-21.97 104.2,-31.29m249.44 -50.25c16.33,-2.21 32.49,-4.19 48.48,-5.96 138.8,-15.31 263.8,-15.95 382.24,-22.16 40.19,-2.11 79.87,-4.95 119.71,-8.83m243.81 -37.41c118.05,-24.75 246.54,-59.99 383.81,-97.53 107.15,-29.3 219.58,-59.17 330.2,-86.19m221.11 -50.63c69.99,-15.2 135.93,-29.16 194.6,-42.68m310.64 -120.33c6.06,-4.52 12.32,-9.3 18.95,-14.37 33.14,-25.34 76.62,-57.93 133.44,-84.98 73.78,-35.12 167.84,-59.5 271.09,-79.76 50.28,-9.87 102.47,-19.17 153.8,-28.62m659.52 -228.67c9.91,-2.16 20.02,-4.09 30.3,-5.74 111.16,-17.83 241.7,-6.37 390.89,11.23 16.88,1.99 33.98,4.05 51.26,6.13m987.08 18.03c99.41,-9.76 199.17,-19.16 302.2,-21.3 88.94,-1.85 180.51,2.63 274.14,16.99m237.64 58.31c155.23,52.83 313.52,135.17 470.04,242.27 26.33,18.02 52.6,36.72 78.79,56.05m426.19 373.78c96.63,98.02 188.9,200.78 274.71,304.52m154.15 196.27c104.01,139.46 195.76,277.54 275.67,409.62 39.75,65.7 76.64,129.93 111.21,192.71m263.28 525.96c42.5,89.93 83.35,176.61 124.02,260.76m101.82 204.81c0.38,0.74 0.76,1.48 1.15,2.23 70.44,136.67 143.34,267.59 219.63,393.5 20.76,34.26 100.76,-32.13 121.51,2.13"/>
  <path class="fil0 str1" d="M6772.74 9346.55c100.45,84.1 200.35,147.06 306.23,190.71 99.08,40.85 201.61,65.27 333.24,92.91 15.56,3.27 31.58,6.6 48.06,9.99m243.83 47.82c12.15,2.28 24.47,4.58 36.94,6.89 165.32,30.67 356.39,62.99 540.46,79.14 156.31,13.71 306.42,14.46 437.2,-0.72 96.76,-11.23 182.44,-30.96 259.25,-50.52m378.51 -60.98c73.67,2.29 157.57,13.86 253.29,35.79 152.65,34.98 334.09,96.42 521.56,165.27 35.81,13.15 71.78,26.52 107.74,39.93m545.64 193.91c121.65,37.36 232.04,64.3 329.64,76.33 91.5,11.27 172.82,10.52 246.88,-10.91 21.82,-6.31 42.96,-14.54 63.07,-25.02 35.52,-18.52 130.27,47.44 165.78,28.92"/>
  <path class="fil0 str1" d="M4889.66 9320.27c1.42,-1.19 2.85,-2.37 4.29,-3.56 67.43,-55.61 157.19,-112.98 253.43,-172.61 81.98,-50.81 167.05,-103.77 240.42,-158.66 64.6,-48.33 119.95,-99.32 161.51,-141.44 32.73,-33.17 57.37,-58.74 74.58,-71.9 16.19,-12.37 24.23,-16.06 41.05,-18.89 17.46,-2.93 47.02,-2.45 88.42,6.36 76.27,16.22 187.38,59.79 302.07,115.97 117.18,57.4 238.16,126.67 351.48,199.47 57.73,37.08 113.69,75.21 167.71,114.21"/>
  <path class="fil0 str1" d="M4848.32 9546.37c50.65,80.68 98.39,155.18 142.51,222.03 30.55,46.28 59.61,89.39 87.36,129.73"/>
  <path class="fil0 str1" d="M7704.11 9687.98c9.27,37.18 23.15,72.09 41.66,105.7 34.33,62.35 86.86,121.39 156.44,181.42 111.57,96.27 263.23,193.28 391.19,312.97 95.11,88.96 176.47,190.41 236.37,302.57"/>
  <path class="fil0 str1" d="M8575.5 10825.6c-9.49,39.83 -12.57,73.07 -10.79,97.09 1.81,24.46 7.15,38.14 15.07,49.68 7.81,11.37 20.5,23.31 44.95,35.96 35.56,18.41 93.98,35.08 168.5,43.98"/>
  <path class="fil0 str1" d="M2200.8 6759.69c125.45,-74.52 239.94,-132.85 336.85,-170.09 77.11,-29.63 142.17,-44.66 188.7,-46.3 6.12,-0.22 11.9,-0.24 17.39,-0.09m179.57 149.84c2.17,3.13 4.35,6.27 6.52,9.41"/>
  <path class="fil0 str1" d="M2929.82 6702.45c31.11,-22.79 62.22,-45.57 93.34,-68.35 122.47,-89.69 231.21,-144 321.31,-166.82 84.66,-21.44 151.48,-17.05 214.01,5.67 55.87,20.31 109.94,57.89 163.43,106.9 54.56,49.98 106.28,109.83 162.14,161.34 15.37,14.17 31.26,27.93 48.18,40.59m225.14 59.99c35.79,-5.76 66.8,-16.59 95.57,-26.39 64.94,-22.13 121.39,-41.29 206.07,-42.24"/>
  <path class="fil0 str1" d="M2033.54 6597.37c157.53,-96.63 302.28,-173.1 435.81,-222.94 79.12,-29.53 154.72,-49.87 227.62,-55.29"/>
  <path class="fil0 str1" d="M3337.01 6238.4c91.45,-16.33 181.23,-12.49 263.15,11.18 99.22,28.67 184.59,85.42 254.58,146.63 71.17,62.25 128.74,128.44 173.09,170.77 26.57,25.36 47.89,41.22 60.28,47.61 10.97,5.66 13.65,5.88 21.22,5.8 7.93,-0.08 24,-2.98 50.51,-11.57 43.09,-13.96 110.97,-40.85 196.07,-53.37 38.88,-5.72 81.19,-8.46 125.68,-7.61"/>
  <path class="fil0 str1" d="M3337.01 6238.4c37.43,-16.47 75.45,-32.61 114.11,-48.39 119.28,-48.69 244.09,-94.49 373.09,-137.82"/>
  <path class="fil0 str1" d="M1310.63 3745.69c7.12,51.44 16.87,97.81 28.85,140.89 15.28,54.92 35.12,104.77 54.52,166.78 17.22,55.06 32.35,121.35 32.41,198.21 0.07,92.15 -21.56,197.74 -56.28,316.9 -37.08,127.28 -88.31,271.37 -126.72,413.28 -32.05,118.41 -53.81,234.12 -53.89,330.73 -0.02,16.54 0.57,32.46 1.75,47.79m134.66 267.99c15.89,12.65 33.34,24.64 52.43,36.06 94.64,56.64 229.3,95.05 376.09,116.93 145.94,21.76 301.65,28.7 451.51,29.66 191.04,1.23 373.35,-6.87 547.38,-12.99 122.45,-4.3 241.84,-7.57 359.6,-8.48"/>
  <path class="fil0 str1" d="M1093.85 778.76c35.06,78.62 58.06,158.44 67.86,239.04 4.23,34.75 5.89,69.5 5.24,104.13m-57.93 293.14c-60.32,165.8 -158.45,325.55 -252.5,496.08m-104.07 200.16c-42.77,88.82 -81.09,179.45 -110.53,270.43 -40.71,125.85 -64,251.02 -64,368.73m32.33 225.73c37.97,124.91 110.63,239.63 225.47,347.2 89.86,84.18 205.78,163.26 348.14,235.55"/>
  <path class="fil0 str1" d="M2671.74 6334.67c188.04,-116.65 391.14,-224.39 612.83,-319.35"/>
  <path class="fil0 str1" d="M1105.67 3879.65c6.79,31.02 14.46,60.65 22.8,88.76 17.8,60.08 38.18,112.2 52.06,157.61 15.07,49.31 23.39,90.74 19.64,153.28 -3.06,51 -15.81,117.09 -38.75,199.18 -34.03,121.78 -90.11,277.02 -134.8,441.47 -31.39,115.51 -56.57,235.19 -61.59,351.56m11.56 183.62c4.1,21.7 9.29,43.09 15.56,64.05m272.94 339.94c28,16.67 57.24,31.67 87.32,45.1 18.89,8.43 38.13,16.3 57.66,23.65m432.83 91.31c2.72,0.27 5.43,0.54 8.15,0.8 179.31,17.27 355.95,18.18 520.86,15.26 220.56,-3.91 420.96,-14.51 612.09,-18.66 102.1,-2.22 201.81,-2.86 300.58,-1.27"/>
  <path class="fil0 str1" d="M841.28 781.36c54.65,90.7 85.43,176.61 96.16,259.57 13.1,101.31 -3.1,200.8 -46.58,313.95 -48.14,125.27 -131.04,265.98 -219.49,425.29 -99.3,178.85 -202.91,382.28 -263.62,597.14 -37.89,134.11 -59.1,272.5 -54.62,408.87m33.65 227.41c34,124.24 93.83,242.52 178.89,349.26 101.55,127.43 237.31,238.87 404.52,336.39"/>
  <path class="fil0 str1" d="M976.59 5455.13c-8.13,191.29 23.3,375.07 104.31,544.55 4.31,9.03 8.78,18 13.37,26.93m191.13 265.41c32.84,34.73 68.06,68.37 105.48,100.89 89.09,77.41 190,149.28 301.32,216.84"/>
  <path class="fil0 str1" d="M1139.31 5344.37c277.09,87.33 522.82,124.98 717.43,102.14 161.12,-18.91 287.01,-78.15 397.94,-179.85 46.99,-43.07 91,-93.77 131.85,-151.91"/>
  <path class="fil0 str1" d="M2568.97 4981.13c90.73,-24.21 187.91,-33.83 289.01,-31.1 144.12,3.89 296.19,33.44 450.85,56.76 90.18,13.59 181.07,24.09 273,25.93m332.59 -37.5c57.37,-14.28 115.67,-32.56 175.15,-54.72 153.81,-57.29 314.46,-140.21 479.38,-214.44 76.89,-34.61 154.89,-67.04 234.05,-92.84m235.92 -52.54c122.67,-12.74 247.54,0.15 366.72,45.37 158,59.95 303.7,173.64 438.07,333.88 48.61,57.96 95.9,122.11 142.11,192.42"/>
  <path class="fil0 str1" d="M1265.09 5859.12c4.08,10.01 8.38,19.96 12.88,29.83 10.78,23.66 22.81,46.99 36.15,70m145.99 189.73c22.18,22.76 45.91,45.28 71.25,67.6 153,134.76 360.74,260.34 608.41,374.86"/>
  <path class="fil0 str1" d="M1325.93 5628.26c134.26,29.99 262.68,47.61 385.35,49.98 157.24,3.04 305.54,-20.66 437.39,-77.09 146.42,-62.67 270.02,-163.43 372.2,-290.22"/>
  <path class="fil0 str1" d="M2706.52 5182.74c45.09,-6.33 93.51,-8.8 145.88,-7.36 97.99,2.69 209.94,20.21 336.37,40.69 130.32,21.11 276.09,43.66 431.38,42.47 83.65,-0.64 169.91,-8.71 256.74,-24.61m328.67 -96.74c111.76,-43.91 221.54,-95.83 327.65,-145.99 139.83,-66.09 273.56,-127.26 396.14,-160.59 117.72,-32.02 223.56,-38.91 325.26,-15.41 101.19,23.38 201.44,77.23 304.74,171.96 52.85,48.46 106.07,107.53 159.19,177.29"/>
  <path class="fil0 str1" d="M4518.69 6554.86c257.02,95.43 469.41,160.66 630.7,191.99 96.42,18.73 173.57,24.97 235.86,20.52 1.11,-0.08 2.22,-0.17 3.32,-0.25m294.53 -123.06c47.39,-32.52 99.67,-71.69 157.78,-116.97 69.69,-54.3 147.46,-116.92 233.1,-187.15"/>
  <path class="fil0 str1" d="M7664.99 6771.31c-303.85,-178.43 -610.98,-351.19 -921.23,-518.19"/>
  <path class="fil0 str1" d="M7664.99 6771.31c287.26,-148.54 567.53,-310.11 839.94,-484.19"/>
  <path class="fil0 str1" d="M4440.22 6766.18c6.29,2.33 12.56,4.65 18.79,6.95m455.61 149.48c48.04,13.13 93.93,24.57 137.76,34.27 160.15,35.44 293.6,47.98 415.23,27.42 88.76,-15 168.87,-48.08 246.69,-93.06m245.67 -171.17c16.28,-12.61 32.89,-25.63 49.9,-39.03 120,-94.52 258.53,-208.57 417.46,-341.13"/>
  <path class="fil0 str1" d="M7657.06 7028.37c-9.04,-5.36 -18.08,-10.72 -27.12,-16.06m-463.09 -268.07c-244.48,-138.44 -491.01,-273.23 -739.52,-404.33"/>
  <path class="fil0 str1" d="M7657.06 7028.37c9.81,-4.93 19.63,-9.88 29.43,-14.84m467.45 -251.26c243.34,-138.59 481.28,-286.59 713.27,-443.7"/>
  <path class="fil0 str1" d="M10776.72 5603.04c-66.14,-52.98 -109.54,-108.95 -133.61,-168.54 -22.48,-55.63 -29.47,-116.75 -17.93,-194.5 16.31,-109.95 71.92,-248.88 159.52,-403.07m120.99 -199.4c11.81,-19.19 23.63,-38.39 35.45,-57.58"/>
  <path class="fil0 str1" d="M10214.27 4633.78c-172.73,22.83 -331.08,53.08 -475.42,90.7 -206.17,53.73 -383.48,123.18 -537.51,201.13m-197.22 110.82c-108.22,66.37 -205.11,133.76 -299.55,194.93 -57.31,37.11 -114.04,71.85 -172.24,104.38m-201.96 100.31c-128.53,55.98 -271.76,105.15 -426.09,157.8 -103.44,35.3 -211.19,72.9 -320.42,113.13m-287.85 111.14c-213.25,85.01 -427.06,171.5 -646.07,226.43 -161.25,40.44 -326.67,63.24 -493,68.61 -191.27,6.18 -381.41,-9.61 -555.09,-28.09m-321.39 -35.39c-41.44,-4.35 -81.93,-8.41 -121.69,-12.06 -102.88,-9.45 -201.52,-16.69 -308.03,-26.7m-308.96 -36.85c-52.54,-7.8 -107.4,-16.74 -164.71,-27.09 -188.67,-34.09 -403.2,-83.48 -611.37,-146.21 -180.26,-54.32 -353.8,-118.21 -500.4,-187.68 -137.78,-65.28 -251.14,-135.07 -343.19,-209.12 -85.06,-68.42 -153.46,-140.93 -215.61,-221.22m-137.55 -201.61c-68.54,-110.83 -136.56,-234.04 -209.98,-368.75 -50.83,-93.25 -103.9,-191.96 -159.41,-295.96"/>
  <path class="fil0 str1" d="M10409.87 5442.5c-16.09,-68.25 -19.31,-140.88 -10.52,-214.28 15.5,-129.43 64.47,-262.06 134.66,-400.97"/>
  <path class="fil0 str1" d="M10534 4827.25c-258.45,19.8 -485.34,54.01 -681.55,101.15 -164,39.4 -306.11,87.88 -432.17,142.97m-246.74 126.39c-112.36,66.02 -214.81,136.72 -320.63,206 -89.36,58.51 -181.77,115.17 -280.23,166.42m-261.76 117.57c-169.11,66.34 -349.9,123.63 -534.41,188.93m-231.05 85.83c-97.96,37.87 -197.42,77.7 -299.31,117.91 -160.22,63.23 -327.29,125.99 -502.39,172.69m-669.78 86.82c-173.04,0.19 -339.81,-14.14 -489.28,-29.99 -132.81,-14.09 -251.41,-28.59 -361.16,-39.64 -92.81,-9.34 -180.43,-16.35 -272.8,-24.23m-426.62 -46.77c-34.48,-5 -69.95,-10.49 -106.49,-16.55 -180.12,-29.84 -385.67,-73.35 -593.43,-130.57m-711.26 -262.75c-126.13,-63.69 -236.76,-133.31 -330.8,-208.78 -104,-83.48 -187.92,-173.9 -261.26,-269.72m-134.33 -196.18c-64.15,-102.62 -124.85,-211.2 -188.89,-327.63 -76.63,-139.31 -157.35,-289.9 -243.84,-452.58"/>
  <path class="fil0 str1" d="M5601.86 6085.07c2.39,-1.61 4.8,-3.23 7.23,-4.85 92.45,-61.78 211.96,-132.33 341.03,-209.69 139.93,-83.87 288.44,-176.12 412.78,-271 56.53,-43.13 107.95,-87.06 153.58,-129.5m170.81 -176.04c13.48,-14.23 26.21,-27.21 38.43,-38.7 40.92,-38.45 75.85,-61.9 129.9,-83.32 49.65,-19.68 116.65,-35.97 194.8,-56.25 88.31,-22.9 189.87,-52.06 284.04,-105.54 76.76,-43.59 147.34,-104.13 201.54,-177.98 24.91,-33.94 46.4,-70.38 64.73,-108.57m86.84 -528.06c-3.98,-59.17 -11.82,-117.3 -22.96,-173.48 -20.82,-105.02 -53.59,-203.58 -97.95,-293.91"/>
  <path class="fil0 str1" d="M7433.43 3523.76c-149.74,-186.85 -303.6,-353.7 -462.1,-500.29 -163.36,-151.08 -331.2,-279.14 -502.22,-401.67 -165.19,-118.34 -333.85,-234.42 -508.74,-361.76 -97.33,-70.87 -196.52,-144.8 -297.56,-221.91"/>
  <path class="fil0 str1" d="M4641.03 1437.26c59.41,72.47 141.26,143.57 252.18,212.53 146.05,90.79 340.14,177.75 564.37,259.47"/>
  <path class="fil0 str1" d="M5280.47 6049.69c49.94,-47.8 112.82,-95.61 188.87,-147.13 94.81,-64.21 210.91,-133.35 333.57,-206.64 138.87,-82.98 283.42,-171.45 400.53,-258.5 17.81,-13.24 34.96,-26.42 51.47,-39.52m199.85 -185.17c38.86,-41.82 74.94,-82.57 116.65,-121.77 18.75,-17.62 38.95,-34.66 60.49,-50.64m203.54 -99.94c78.01,-24.5 159.73,-41.34 235.72,-64.26 77.07,-23.23 145.99,-52.65 200.56,-93.72 59.45,-44.75 104.86,-104.2 137.33,-181.62 27.05,-64.46 43.84,-140.72 51.27,-220.39m-3.56 -230.89c-12.6,-104.72 -39.18,-202.64 -76.81,-288.35 -11.85,-26.98 -24.81,-52.85 -38.89,-77.68"/>
  <path class="fil0 str1" d="M7201.09 3595.53c-121.1,-145.85 -244.11,-277.1 -369.48,-394.18 -175.67,-164.04 -356.9,-299.41 -550.73,-436.88 -171.2,-121.42 -351.7,-246.87 -538.81,-384.96 -91.89,-67.81 -185.37,-138.33 -280.34,-211.5"/>
  <path class="fil0 str1" d="M4440.24 1546.28c72.32,97.01 169.07,186.35 290.98,267.34 0.55,0.37 1.11,0.73 1.66,1.1m214.09 122.89c62.98,31.74 129.78,62.31 199.96,91.98"/>
  <path class="fil0 str1" d="M10671.29 6925.81c8.53,17.36 13.69,32.78 16.21,45.98 4.87,25.48 2.57,43.68 -7.85,66.56 -11.46,25.17 -36.24,56.27 -76.92,87.3 -61.09,46.6 -155.18,90.19 -260.17,116.6m-233.18 29.78c-49.95,0.65 -100.5,-2.22 -150.88,-8.75 -80.67,-10.46 -161.35,-30.04 -241.8,-58.65m-199.96 -90.04c-2.09,-1.14 -4.18,-2.29 -6.27,-3.44"/>
  <path class="fil0 str1" d="M8967.91 6816.27c86.4,-114.39 161.24,-205.58 223.58,-273.01 67.48,-72.98 120.01,-117.06 155.87,-139.08 25.43,-15.6 41.16,-21.06 59.87,-25.23 16.93,-3.78 38.98,-5.9 69.78,-10.3 15.41,-2.2 32.53,-5.3 50.79,-9.38m285.12 -106.27c9.28,-3.65 18.57,-7.22 27.9,-10.67 66.49,-24.57 132.23,-41.28 192.59,-41.47 64.75,-0.2 125.12,15.96 191.89,61.08 72.63,49.08 151.7,135.51 230.44,265.54 35.4,58.47 70.73,125.44 105.68,200.76"/>
  <path class="fil0 str1" d="M8806.35 7003.19c-20.76,19.35 -36.18,40.74 -47.72,65.44 -15.55,33.31 -24.48,75.24 -23.7,132.26 1.32,97.26 32.56,232.63 88.12,386.28"/>
  <path class="fil0 str1" d="M10859.56 6799.45c22.12,38.84 38.43,79.09 47.57,121.24 14.19,65.43 8.66,134.91 -16.05,196.42 -30.67,76.35 -86.88,139.08 -155.17,190.45 -74.62,56.13 -165.11,100.54 -264.12,132.34m-178.3 42.23c-114.15,18.18 -232.65,20.19 -350.55,6.24"/>
  <path class="fil0 str1" d="M8699.81 6799.68c142.72,-196.67 261.3,-343.99 360.96,-446.12 9.51,-9.74 18.86,-19.09 28.06,-28.06m439.28 -199.95c26.08,-8.91 57.11,-21.33 93.85,-36.97 75.41,-32.11 172.74,-77.28 285.41,-99.93 6.05,-1.22 12.15,-2.36 18.29,-3.42m340.35 41.57c66.29,30.95 130,75.87 189.29,133.43 107.15,104.02 202.63,248.37 291.71,433.08"/>
  <path class="fil0 str1" d="M8557.2 6967.37c-1.5,3.08 -2.96,6.19 -4.38,9.31 -33.87,74.21 -46.34,159.54 -42.71,248.15 2.37,57.66 10.75,117.26 24.05,179.09"/>
  <path class="fil0 str1" d="M10859.58 6799.43c22.11,38.84 38.4,79.1 47.55,121.26 14.19,65.43 8.66,134.91 -16.05,196.42 -30.67,76.35 -86.88,139.08 -155.17,190.45 -74.62,56.13 -165.11,100.54 -264.12,132.34m-178.3 42.23c-114.15,18.18 -232.65,20.19 -350.55,6.24m-541.33 -179.83c-2.46,-1.35 -4.93,-2.72 -7.38,-4.07"/>
  <path class="fil0 str1" d="M9226.04 7211.69c6.2,-3.55 12.39,-7.09 18.59,-10.64m219.46 -124.39c138.95,-73.96 281.57,-131.97 424.82,-174.63 32.1,-9.56 64.23,-18.31 96.21,-26.44m222.03 -49.96c28.1,-5.85 55.72,-11.59 82.73,-17.34 116.56,-24.82 219.94,-51.92 304,-95.72 82.6,-43.05 149.36,-101.65 207.57,-191.72 68.24,-105.59 122.35,-255.23 156.8,-448.31"/>
  <path class="fil0 str1" d="M9716.7 7204.63c87.73,-38.3 176.45,-69.78 266.51,-95.25 21.84,-6.18 43.78,-11.99 65.81,-17.52m220.36 -48.89c26.85,-5.6 53.81,-11.24 80.85,-17.08 107.87,-23.29 217.48,-50.64 321.06,-100.07m188.27 -126.36c34.14,-31.19 66.06,-66.05 95.11,-104.57 47.59,-63.09 87.97,-135.13 121.95,-215.8"/>
  <path class="fil0 str1" d="M11590.09 6439.33c-41.99,-30 -210.89,-125.42 -345.1,-185.26"/>
  <path class="fil0 str1" d="M11590.09 6186.35c-111.1,-79.39 -400.66,-224 -535.98,-205.72"/>
  <path class="fil0 str1" d="M11054.11 5980.63c-41.85,18.28 -75.84,50.85 -95.87,91.9"/>
  <path class="fil0 str1" d="M10744.62 5796.99c-167.05,60.45 -327.37,137.48 -478.6,229.8"/>
  <path class="fil0 str1" d="M10416.32 5689.81c-181.52,85.93 -353.78,190.76 -513.83,312.91"/>
  <path class="fil0 str1" d="M2536.61 7035.09c161.16,53.78 329.88,118.53 508.92,197.03 40.74,17.87 81.97,36.35 123.61,55.4"/>
  <path class="fil0 str1" d="M2717.85 6859.13c111.85,39.81 227.15,84.7 346.24,135.43 97.03,41.34 196.13,86.06 297.04,133.55"/>
  <path class="fil0 str1" d="M1191.73 6463.73c155.83,83.03 326.34,132.35 500.47,146m357.9 -22.48c5.99,-1.24 11.99,-2.52 17.98,-3.85"/>
  <path class="fil0 str1" d="M1109.02 6674.82c261.69,133.61 556.92,187.49 848.78,155.04"/>
  <path class="fil0 str1" d="M267.06 6353.13c126.78,25.31 271.47,23.04 432.06,-1.69 107.7,-16.59 222.16,-43.06 337.6,-74.27m423.39 -128.49c127.38,-41.47 249.23,-83.03 364.54,-123.14 14.12,-4.91 28.15,-9.81 42.09,-14.69"/>
  <path class="fil0 str1" d="M311.19 6132.07c83.59,16.69 188.64,18.59 314.46,2.15 138.29,-18.07 302.51,-58.99 468.62,-107.63m219.85 -67.65c32.24,-10.31 64.25,-20.69 95.95,-31.09"/>
  <path class="fil0 str1" d="M1154.37 5354.51c-4.98,-3.48 -10,-6.86 -15.06,-10.14m-174.28 -72.86c-116.54,-25.6 -240.45,-11.51 -350.74,43.82"/>
  <path class="fil0 str1" d="M1025.26 5539.3c-91.34,-63.82 -210.31,-72.45 -309.91,-22.49"/>
  <path class="fil0 str1" d="M805.24 4718.98c95.98,-68.19 217.33,-131.63 361.69,-187.72 128.31,-49.86 275.63,-93.94 421.93,-128.7 129.33,-30.73 255.61,-53.88 364.97,-68.02m245.76 -18.12c6.8,-0.06 13.56,-0.09 20.28,-0.08 88.81,0.16 175.18,6.82 279.28,16.91 140.83,13.64 313.05,33.11 522.39,55.8 35.89,3.89 72.81,7.89 110.78,11.99"/>
  <path class="fil0 str1" d="M674.68 4535.22c117.79,-83.69 259.91,-156.39 422.65,-218.73 152.19,-58.29 323.29,-107.46 489.07,-144.74 124.33,-27.96 243.86,-49.01 351.45,-62.43m245.81 -18.06c41.6,-0.7 81.99,-0.12 122.05,1.54 77.98,3.22 156.08,9.99 242.7,18.71m502.69 53.97c34.18,3.71 69.32,7.53 105.43,11.43"/>
  <path class="fil0 str1" d="M3067.57 4394.03c36.67,76.43 86.68,158.44 151.41,247.82 87.56,120.9 203.02,255.9 352.45,382.17 3.44,2.91 6.91,5.82 10.39,8.71m295.06 201.19c58.02,31.95 119.04,61.57 182.93,88.22 247.63,103.29 536.3,163.09 857.11,181.73 16.1,0.93 32.28,1.77 48.55,2.5"/>
  <path class="fil0 str1" d="M3319.95 4386.7c30.37,50.73 68.06,106.4 113.24,165.41 102.19,133.44 242.06,282.61 422.42,405.1 19.13,12.99 38.72,25.67 58.8,38.02m291.14 141.95c71.32,26.92 146.82,50.41 226.56,70.03 228.95,56.35 491.75,82 784.35,77.19"/>
  <path class="fil0 str1" d="M699.64 4187.52c113.96,-95.49 241.15,-192.99 378.54,-288.82 9.12,-6.36 18.28,-12.71 27.49,-19.06m204.96 -133.95c45.28,-27.82 90.48,-54.29 134.93,-78.67 107.59,-59.04 209.66,-104.31 292.12,-123.89 57.14,-13.57 103.44,-15.48 147.2,-7.02 43.35,8.39 87.42,27.69 139.46,63.56m223.89 202.18c5.46,5.64 10.94,11.34 16.45,17.09 90.73,94.7 186.56,200.49 283.72,292.59m472.38 277.44c63,12.02 127.8,15.37 193.79,10.81 152.11,-10.53 312.67,-59.46 491.62,-138.43 60.81,-26.83 123.66,-57.28 188.68,-91.31"/>
  <path class="fil0 str1" d="M554.86 4014.74c119.64,-100.25 251.81,-201.52 394.99,-301.36 6.76,-4.71 13.54,-9.43 20.34,-14.13m213.67 -140.3c55.79,-34.46 112.18,-67.41 168.53,-97.87 119.29,-64.47 236.8,-117.68 354.82,-142.08 83.3,-17.22 168.78,-18.61 250.93,2.67 67.65,17.53 131.14,49.46 192.06,91.06m203.98 175.25c49.08,48.8 97.91,100.67 146.73,152.46 96.29,102.14 191.2,202.13 278.11,275.28 71.96,60.57 137.69,102.56 200.84,127.68 71.77,28.55 142.65,38.01 229.21,30.71 131.77,-11.1 297.99,-64.52 495.68,-160.57"/>
  <path class="fil0 str1" d="M4584.42 4289.23c86.08,139.3 165.87,264.95 236.98,371.8"/>
  <path class="fil0 str1" d="M4848.32 4286.61c50.65,80.68 98.39,155.18 142.51,222.03 16.45,24.91 32.46,48.92 48.07,72.06"/>
  <path class="fil0 str1" d="M6064.69 4255.44c121.14,140.71 247.13,305.03 379.37,498.82 61.49,90.1 124.2,185.81 187.83,286.07"/>
  <path class="fil0 str1" d="M6333.38 4225.63c77.69,96.06 156.91,201.04 237.84,316.26 86.53,123.19 174.67,256.8 264.22,398.5"/>
  <path class="fil0 str1" d="M11131.4 4136.93c-8.19,-4.44 -16.39,-8.87 -24.57,-13.28m-277.63 -146.59c-109.37,-56.31 -218.43,-110.57 -327.58,-162.4 -182.17,-86.5 -365.27,-166.64 -555,-225.92 -74.58,-23.31 -150.3,-43.01 -226.42,-58.75m-235.84 -35.73c-152.71,-14.52 -302.59,-12.33 -440.58,-5.52 -122.6,6.05 -234.88,14.96 -343.36,19.15m-330.46 -1.87c-112.57,-5.17 -238.23,-14.91 -374.09,-19.96 -146.03,-5.44 -302.5,-4.26 -452.86,17.64 -37.02,5.39 -73.61,12.11 -109.58,20.06m-232.33 71.78c-5.65,2.29 -11.28,4.62 -16.87,6.97 -128.48,54.15 -238.72,122.79 -338.06,183.43 -16.26,9.92 -32.24,19.59 -48.02,29m-223.54 114.53c-2.43,0.97 -4.88,1.94 -7.33,2.89 -93.54,36.52 -197.6,62.02 -325.3,79.15 -137.41,18.43 -302.18,27.19 -485.54,32.59 -223.33,6.57 -472.85,9.33 -710.22,13.52 -52.98,0.93 -105.29,1.96 -156.55,2.9m-307.34 3.33c-41.75,-0.13 -81.98,-0.63 -120.41,-1.63 -131.62,-3.43 -241.83,-13.97 -329.06,-37.39 -99.03,-26.58 -169.52,-67.56 -235.27,-134.71 -62.51,-63.84 -119.7,-153.74 -175.21,-262.32 -20.87,-40.82 -41.55,-83.97 -62.24,-128.85m-91.86 -206.54c-19.56,-44.77 -39.41,-90.27 -59.74,-136.02 -80.52,-181.22 -168.54,-366.88 -265.96,-550.6"/>
  <path class="fil0 str1" d="M11024.06 4335.15c-217.37,-117.71 -432.48,-229.08 -644.38,-328.8 -197.15,-92.78 -390.75,-174.5 -583.92,-226.88 -80.71,-21.88 -161.66,-38.39 -242.69,-49.9m-287.21 -20.69c-96.71,-0.78 -192.18,3.64 -285.41,9.09m-224.95 12.97c-79.26,3.72 -158.7,5.92 -241.13,4.93 -116.08,-1.38 -239.28,-9.12 -371,-16.79 -156.91,-9.14 -325.16,-16.5 -481.6,-2.42 -32.34,2.91 -64.07,6.75 -95.12,11.52m-225.59 55.29c-4.57,1.6 -9.13,3.23 -13.67,4.88 -128.33,46.79 -240.8,114.82 -355.62,184.98m-199.04 113.44c-40.81,20.63 -83.05,39.91 -127.27,57.02 -94.69,36.64 -197.96,63.12 -312.08,81.83m-148.85 19.56c-163.9,16.76 -349.95,23.07 -548.73,27.46 -213.2,4.72 -439.51,7.75 -653.54,11.55 -45.3,0.8 -89.98,1.65 -133.94,2.41m-263.9 2.62c-38.56,-0.09 -76.25,-0.5 -112.98,-1.31 -164.64,-3.65 -311.39,-15.97 -442.49,-58.89 -47.06,-15.41 -91.91,-35.15 -134.06,-59m-190.15 -156.48c-90.72,-103.47 -159.53,-230.69 -223.85,-365.99 -14.06,-29.57 -27.93,-59.54 -41.69,-89.81m-112.1 -253.74c-21.01,-47.92 -42.29,-96.07 -64.11,-144.19 -76.6,-168.91 -159.39,-337.83 -250.31,-505.64"/>
  <path class="fil0 str1" d="M6712.48 4033.89c121.08,111.11 239.48,191.24 366.5,243.61 99.08,40.85 201.6,65.27 333.24,92.91 18.11,3.81 36.85,7.69 56.21,11.66m214.36 42.13c19.03,3.6 38.45,7.24 58.27,10.92 165.32,30.67 356.39,62.99 540.46,79.13 156.31,13.71 306.42,14.46 437.2,-0.72 119.52,-13.87 222.13,-40.71 312.02,-64.19m294.11 -47.73c81.05,-0.46 175.22,11.07 284.92,36.21 152.65,34.98 334.09,96.42 521.56,165.27 27.57,10.13 55.25,20.39 82.94,30.69m473.37 172c160.51,53.52 303.76,92.33 426.71,107.48 91.5,11.27 172.82,10.52 246.88,-10.91 21.82,-6.31 42.96,-14.54 63.07,-25.02"/>
  <path class="fil0 str1" d="M6983.83 3965.98c28.77,20.97 56.96,39.41 84.65,55.48 88.72,51.44 171.05,78.94 300.88,108.85 27.04,6.23 56.18,12.61 87.41,19.2m230.8 46.08c154.01,29.67 336.67,63.11 513.61,83.81 135.48,15.85 265.89,23.34 378.98,18.85 16.55,-0.66 32.72,-1.57 48.54,-2.71m224.94 -34.09c93.53,-21.44 182.97,-50.26 287.55,-68.59 40.72,-7.14 83.6,-12.24 128.63,-14.72m188.28 5.11c143.51,15.32 304.93,56.63 477.14,112.54 260.21,84.49 543.67,200.34 781.48,281.85 161.41,55.32 301.43,94.22 406.15,109.33 25.27,3.65 48.48,5.87 69.45,6.93"/>
  <path class="fil0 str1" d="M8977.96 4463c-12.41,29.2 -22.37,59.58 -29.87,90.54 -29.28,120.78 -22.97,250.94 13.18,371.23 11.46,38.12 25.82,75.35 42.86,111.65"/>
  <path class="fil0 str1" d="M9369.86 4398.54c-59.1,14.26 -100.79,38.16 -133.37,72.42 -28.67,30.15 -51.4,71.04 -65.68,121.74 -17.64,62.63 -20.78,136.61 -7.84,208.26 7.56,41.88 20.36,83.48 38.37,124.65"/>
  <path class="fil0 str1" d="M9133.9 5188.55c54.43,10.67 97.29,26.72 124.84,43.68 23.06,14.19 35.16,27.12 44.8,44.34 10.89,19.47 18.96,48.25 20.52,88.39 0.5,12.69 0.34,26.38 -0.55,40.94"/>
  <path class="fil0 str1" d="M9376.71 5040.15c46.41,28.56 88.07,67.89 116.94,115.08 33.62,54.96 49.49,116.78 54.39,179.27 2.18,27.89 2.23,56.19 0.46,85.12"/>
  <path class="fil0 str1" d="M8752.88 3697.09c7.76,79.19 4.69,162.72 -12.23,253.16 -22.74,121.59 -71.27,258.77 -138.28,404.28"/>
  <path class="fil0 str1" d="M8980.46 3717.98c5.06,88.94 -0.71,181.59 -18.96,277.56 -16.05,84.41 -41.01,170.22 -72.99,257.59"/>
  <path class="fil0 str1" d="M9265.87 3708.89c-16.44,32.73 -27.53,67.6 -32.62,102.16 -10.22,69.46 1.18,134.02 12.63,188.2 11.48,54.32 22.39,99.3 25.03,132.44 3,37.61 -1.72,59.47 -12.42,80.23 -2.25,4.38 -4.85,8.71 -7.85,13.08"/>
  <path class="fil0 str1" d="M9582.97 3712.88c-50.61,26.13 -83.5,52.93 -101.59,75.32 -16.37,20.27 -22.53,35.79 -25.4,57.67 -3.03,23.1 0.09,56.02 8.49,97.38 11.35,55.87 30.93,124.73 32.56,197.89 0.34,15.41 -0.22,31.02 -1.74,46.61"/>
  <path class="fil0 str1" d="M5598.95 2858.56c0.41,0.1 0.82,0.22 1.24,0.33 57.28,15.15 129.12,45.7 221.87,82.25 89.65,35.32 199.54,74.42 321.67,105.49 133.79,34.05 280.71,58.36 415.75,69.53 114.06,9.44 218.8,9.49 307.11,6.28 84.62,-3.09 153.64,-8.18 217.96,-6.92 63.02,1.24 124.37,8.41 198.68,26 92.78,21.98 204.65,60.73 329.81,109.68 154.55,60.44 326.8,134.07 500.45,204.65 34.46,14.01 68.99,27.91 103.56,41.67"/>
  <path class="fil0 str1" d="M5439.55 2624.85c55.91,-7.57 113.11,-5.56 169.03,4.92 82.3,15.43 160.16,47.15 245.31,81.37 77.11,30.98 162.49,64.48 261.21,93.82 118.78,35.29 256.35,63.77 387.28,79 105.95,12.33 205.51,16.09 292.58,14.85 108.54,-1.56 200.08,-11.1 301.48,-8.5 92.33,2.37 191.79,17.47 300.86,47.93 103.24,28.83 216.14,70.41 334.99,117.65m249.26 101.87c145.74,60.21 294.8,121.77 442.5,179.03 156.75,60.76 312.5,117.33 466.81,169.08"/>
  <path class="fil0 str1" d="M7432.88 2175.5c206.17,-30.48 415.97,-19.28 633.01,36.85 160.02,41.39 323.69,107.12 489.56,193.68m408.36 250.69c89.93,63.05 180.14,131.21 270.43,203.96 49.42,39.81 98.88,81.04 148.37,123.64 0.54,0.46 1.07,0.93 1.62,1.39"/>
  <path class="fil0 str1" d="M9384.22 2985.71c0.56,0.44 1.11,0.89 1.67,1.33 72.37,57.67 123.48,115.28 151.8,166.68 23.02,41.78 31.9,77.78 30.59,118.09 -1.48,45.31 -17.78,99.61 -52.41,162.09 -10.71,19.33 -23.09,39.31 -37.09,59.81"/>
  <path class="fil0 str1" d="M9265.87 3708.89c-16.44,32.73 -27.53,67.6 -32.62,102.16 -10.22,69.46 1.18,134.02 12.63,188.2 11.48,54.32 22.39,99.3 25.03,132.44 2.18,27.25 -0.04,46.26 -5.17,62.59"/>
  <path class="fil0 str1" d="M8977.96 4463c-12.41,29.2 -22.37,59.58 -29.87,90.54 -29.28,120.78 -22.97,250.94 13.18,371.23 11.46,38.12 25.82,75.35 42.86,111.65"/>
  <path class="fil0 str1" d="M9133.9 5188.55c54.43,10.66 97.29,26.72 124.84,43.68 23.06,14.19 35.16,27.12 44.8,44.34 10.89,19.47 18.96,48.25 20.52,88.39 0.5,12.69 0.34,26.38 -0.55,40.94"/>
  <path class="fil0 str1" d="M7234.91 1984.81c231.58,-56.34 470.09,-67.17 711.6,-27.81 195.71,31.89 392.1,96.4 587.65,187.17m275.43 144.97c37.2,21.83 74.34,44.51 111.41,68 203.56,128.96 405.63,281.69 607.08,454.98"/>
  <path class="fil0 str1" d="M9528.07 2812.11c83.83,67.06 152.24,138.63 200.26,220.87 5.48,9.38 10.66,18.93 15.53,28.62m48.91 233.09c-4.73,69.83 -25.59,138.35 -56.77,203.89 -5,10.51 -10.27,20.98 -15.8,31.4"/>
  <path class="fil0 str1" d="M9582.97 3712.88c-50.61,26.13 -83.5,52.93 -101.59,75.32 -16.37,20.27 -22.53,35.79 -25.4,57.67 -3.03,23.1 0.09,56.02 8.49,97.38 11.35,55.87 30.93,124.73 32.56,197.89 0.34,15.41 -0.22,31.02 -1.74,46.61"/>
  <path class="fil0 str1" d="M9411.75 4388.44c-13.96,3.37 -27.93,6.74 -41.89,10.11 -59.1,14.26 -100.79,38.16 -133.37,72.42 -28.67,30.15 -51.4,71.04 -65.68,121.74 -17.64,62.63 -20.78,136.61 -7.84,208.26 7.56,41.88 20.37,83.47 38.38,124.64"/>
  <path class="fil0 str1" d="M9376.71 5040.15c46.41,28.56 88.07,67.89 116.94,115.08 33.62,54.96 49.49,116.78 54.39,179.27 2.18,27.89 2.23,56.19 0.46,85.12"/>
  <path class="fil0 str1" d="M9792.77 3294.7c133.95,-76.98 252.39,-157.28 348.85,-244.96 39.01,-35.46 74.04,-71.88 105.33,-109.15"/>
  <path class="fil0 str1" d="M10371.8 2729.39c28.87,-71.31 65.1,-127.31 107.33,-168.59 49.29,-48.19 107.33,-78.71 188.26,-94.91 103.13,-20.65 241.92,-14.19 404.12,17.9"/>
  <path class="fil0 str1" d="M11290.82 2538.88c71.56,14.37 144.96,18.78 218.08,12.93"/>
  <path class="fil0 str1" d="M9743.86 3061.6c100.3,-61.33 186.2,-123.21 252.4,-184.41 44.07,-40.75 80.4,-81.72 110.44,-122.81"/>
  <path class="fil0 str1" d="M10217.65 2533.13c28.27,-47.7 61.35,-91.17 100,-129.67 9.32,-9.28 18.98,-18.23 28.95,-26.83m206.66 -114.03c4.17,-1.3 8.36,-2.56 12.56,-3.78 132.26,-38.3 280.3,-37.76 440.96,-14.83 40.5,5.78 81.87,13.06 124.15,21.77"/>
  <path class="fil0 str1" d="M11349.67 2320.59c46.5,8.07 93.96,10.31 141.29,6.53"/>
  <path class="fil0 str1" d="M1111.15 2829.31c35.11,14.25 84.62,38.11 143.76,70.44 81.61,44.61 183.5,106.17 288.85,164.06 84.51,46.44 169.36,89.67 253.86,115.2 59.91,18.1 122,26.93 182.81,18.91 55.11,-7.27 105.91,-28.18 150.95,-54.26 64.17,-37.14 121.21,-83.81 189.46,-134.33 78.7,-58.25 172.05,-122.49 277.49,-181.24 115.1,-64.13 242.94,-120.65 367.5,-159.9 15.68,-4.94 31.3,-9.61 46.83,-14.02m229.89 -48.38c20.05,-2.82 39.94,-5.28 59.65,-7.39 148.33,-15.91 290.02,-13.86 441.91,-25.44 13.57,-1.04 27.22,-2.2 40.93,-3.49m245.59 -35.7c27.95,-5.43 56.15,-11.36 84.61,-17.8 164.15,-37.11 338.11,-88.74 514.89,-135.14 54.75,-14.37 109.72,-28.07 164.13,-41.13m223.76 -51.06c11.26,-2.46 22.45,-4.88 33.56,-7.28 130.51,-28.16 247.38,-52.9 342.5,-86.24 23.8,-8.35 46.4,-17.46 67.63,-27.12m201.09 -129.87c22.5,-14.7 46.43,-27.3 80.36,-39.98 47.35,-17.69 114.76,-34.03 194.86,-49.43 117.52,-22.59 258.37,-44.32 379.32,-77.88 85.31,-23.67 160.94,-54.33 220.93,-84.81 52.46,-26.64 92.84,-51 127.9,-67.2 2.98,-1.38 5.94,-2.72 8.88,-4m274.18 -26.87c20.66,1.57 42.39,3.55 65.14,5.9 136.28,14.09 307.17,39.54 482.39,51.98 144.48,10.26 291.07,10.72 429.14,2.44 167.94,-10.07 323.16,-31.52 468.93,-39.23 54.96,-2.91 108.79,-3.7 162.36,-1.44m249.15 35.82c19.34,4.93 38.82,10.42 58.48,16.52 133.64,41.46 275.59,111.29 421.29,208.3 233.74,155.64 474.39,380.44 681.83,618.91 48.12,55.32 94.41,111.21 138.75,167.22m140.25 186.2c38.26,53.41 74.63,106.47 109.02,158.76 139.65,212.39 247.1,412.34 339.71,599.58 97.92,198 181.53,383.9 269.04,562.69 73.18,149.51 148.45,293.73 227.69,432.46"/>
  <path class="fil0 str1" d="M6983.83 3965.98c28.77,20.97 56.96,39.41 84.65,55.48 88.72,51.44 171.05,78.94 300.88,108.85 27.04,6.23 56.18,12.61 87.41,19.2m230.8 46.08c154.01,29.67 336.67,63.11 513.61,83.81 135.48,15.85 265.89,23.34 378.98,18.85 16.55,-0.66 32.72,-1.57 48.54,-2.71m224.94 -34.09c93.53,-21.44 182.97,-50.26 287.55,-68.59 40.72,-7.14 83.6,-12.24 128.63,-14.72m188.28 5.11c143.51,15.32 304.93,56.63 477.14,112.54 260.21,84.49 543.67,200.34 781.48,281.85 161.41,55.32 301.43,94.22 406.15,109.33 25.29,3.65 48.56,5.99 69.55,7.1"/>
  <path class="fil0 str1" d="M4582.31 4063.83c48.07,-72.43 113.82,-138.44 191.61,-199.64 97.59,-76.76 215.83,-146.64 322.76,-213.83 63.96,-40.19 122.63,-79.42 171.61,-117.03m165.85 -153.49c19.94,-19.77 41.77,-39.68 68.61,-58.03m219.82 -54.35c54.93,4.13 111.54,18.01 170.89,37.14 138.52,44.64 292.67,119.98 441.04,203.8 159.28,89.99 311.16,190.38 449.51,295.72 4.72,3.59 9.43,7.19 14.12,10.8"/>
  <path class="fil0 str1" d="M4584.42 4289.23c86.08,139.3 165.87,264.95 236.98,371.8"/>
  <path class="fil0 str1" d="M1277.53 2657.16c17.42,8.63 35.56,18 54.51,28.07 72.45,38.5 156.65,88.12 242.92,137.49 85.88,49.15 173.1,96.73 242.24,124.34m238.83 -22.76c18.31,-12.53 38.78,-27.41 61.44,-44.36 81.67,-61.08 192.47,-144.59 323.69,-221.62 130.17,-76.42 279.39,-146.48 428.18,-195.84 34.87,-11.57 69.66,-21.97 104.2,-31.28m249.45 -50.25c16.33,-2.21 32.49,-4.19 48.48,-5.96 138.8,-15.31 263.8,-15.95 382.24,-22.15 40.19,-2.11 79.87,-4.96 119.71,-8.83m243.81 -37.4c118.05,-24.75 246.54,-59.99 383.81,-97.53 107.15,-29.3 219.58,-59.17 330.2,-86.19m221.11 -50.63c69.99,-15.2 135.93,-29.16 194.6,-42.68m310.64 -120.34c6.06,-4.52 12.32,-9.3 18.95,-14.37 24.43,-18.68 54.47,-41.3 91.33,-62.72m216.15 -80.8c31.14,-7.65 63.62,-14.64 97.06,-21.21 123.75,-24.28 259.07,-45.11 364.65,-73.42 66.12,-17.73 119.74,-37.73 165.88,-59.59 19.41,-9.19 37.81,-18.89 56.24,-28.86m459.2 -107.76c59.09,3.35 121.96,9.98 188.54,17.83 135.15,15.94 284.19,35.92 431.2,44.9 134.9,8.24 267.19,6.85 395.84,-1.91 171.29,-11.67 337.65,-36.47 513.5,-40.12 88.94,-1.85 180.51,2.63 274.14,16.99m1212.67 730.41c96.63,98.02 188.9,200.78 274.71,304.52m154.15 196.27c104.01,139.46 195.76,277.54 275.67,409.62 39.75,65.7 76.64,129.93 111.21,192.71m263.28 525.96c78.19,165.43 150.74,319.86 226.98,467.8 70.44,136.67 143.34,267.59 219.63,393.49 20.76,34.26 41.52,68.52 62.28,102.78"/>
  <path class="fil0 str1" d="M6715.26 4036.44c120.11,109.78 237.67,189.09 363.71,241.06 99.08,40.85 201.6,65.27 333.24,92.91 18.11,3.81 36.85,7.69 56.21,11.66m214.36 42.13c19.03,3.6 38.45,7.24 58.27,10.92 165.32,30.67 356.39,62.99 540.46,79.13 156.31,13.71 306.42,14.46 437.2,-0.72 119.52,-13.87 222.13,-40.71 312.02,-64.19m294.11 -47.73c81.05,-0.46 175.22,11.07 284.92,36.21 152.65,34.98 334.09,96.42 521.56,165.27 27.57,10.13 55.25,20.39 82.94,30.69m473.37 172c160.51,53.52 303.76,92.33 426.71,107.48 91.5,11.27 172.82,10.52 246.88,-10.91 21.82,-6.31 42.96,-14.54 63.07,-25.02 35.52,-18.52 71.03,-37.05 106.55,-55.57"/>
  <path class="fil0 str1" d="M4889.66 4060.51c1.42,-1.18 2.85,-2.37 4.29,-3.56 67.43,-55.61 157.19,-112.98 253.43,-172.62 81.98,-50.81 167.05,-103.76 240.42,-158.65 64.6,-48.33 119.95,-99.32 161.51,-141.44 32.73,-33.17 57.37,-58.74 74.58,-71.9 16.19,-12.37 24.23,-16.07 41.05,-18.89 17.46,-2.93 47.02,-2.46 88.42,6.35 76.27,16.23 187.38,59.79 302.07,115.97 117.18,57.4 238.16,126.67 351.48,199.47 57.73,37.08 113.69,75.2 167.71,114.21"/>
  <path class="fil0 str1" d="M4848.32 4286.61c50.65,80.68 98.39,155.18 142.51,222.03 16.45,24.91 32.46,48.92 48.07,72.06"/>
  <path class="fil0 str1" d="M11058.78 3936.18c-72.21,-138.04 -103.29,-271.9 -98.05,-411.23 4.34,-115.37 35.07,-236.17 84.88,-369.19 65.59,-175.16 163.08,-370.46 237.3,-592.76 44.5,-133.3 79.5,-276.36 98.49,-427.88m15.39 -211.7c5.84,-279.3 -42.78,-582.08 -144.13,-904.92"/>
  <path class="fil0 str1" d="M10859.05 4040.67c-15.87,-30.34 -30.27,-60.97 -43.16,-91.83m-57.21 -617.11c12.54,-61 29.53,-121.79 49.87,-182.17 60.7,-180.26 148.76,-358.2 220.27,-545.65 15.09,-39.57 29.4,-79.57 42.69,-120.12m59.43 -218.03c11.61,-54.18 21.04,-109.52 27.87,-166.27m12.93 -233.72c-1.18,-192.73 -30.18,-400.75 -89.26,-624.63 -1.92,-7.26 -3.87,-14.54 -5.84,-21.83"/>
  <path class="fil0 str1" d="M3936.41 1515.53c-26.23,41.61 -58.46,77.01 -98.03,108.64 -51.65,41.29 -118.13,75.95 -197.59,110.96 -85.37,37.61 -184.65,75.91 -279.66,133.24m-191.99 159.41c-25.04,28.62 -48.3,59.49 -69.32,92.54 -56.95,89.56 -98.37,193.8 -126.28,310.9"/>
  <path class="fil0 str1" d="M11044.55 4346.24c-6.83,-3.7 -13.66,-7.4 -20.49,-11.1 -217.37,-117.71 -432.48,-229.08 -644.38,-328.8 -197.15,-92.78 -390.75,-174.5 -583.92,-226.88 -80.71,-21.88 -161.66,-38.39 -242.69,-49.9m-287.21 -20.69c-96.71,-0.78 -192.18,3.64 -285.41,9.09m-224.95 12.97c-79.26,3.72 -158.7,5.92 -241.13,4.93 -116.08,-1.38 -239.28,-9.12 -371,-16.79 -156.91,-9.14 -325.16,-16.5 -481.6,-2.42 -32.34,2.91 -64.07,6.75 -95.12,11.52m-225.59 55.29c-4.57,1.6 -9.13,3.23 -13.67,4.88 -128.33,46.79 -240.8,114.82 -355.62,184.98m-199.04 113.44c-40.81,20.63 -83.05,39.91 -127.27,57.02 -94.69,36.64 -197.96,63.12 -312.08,81.83m-148.85 19.56c-163.9,16.76 -349.95,23.07 -548.73,27.46 -213.2,4.72 -439.51,7.75 -653.54,11.55 -45.3,0.8 -89.98,1.65 -133.94,2.41m-263.9 2.62c-38.56,-0.09 -76.25,-0.5 -112.98,-1.31 -164.64,-3.65 -311.39,-15.97 -442.49,-58.89 -47.06,-15.41 -91.91,-35.15 -134.06,-59m-190.15 -156.48c-90.72,-103.47 -159.53,-230.69 -223.85,-365.99 -14.06,-29.57 -27.93,-59.54 -41.69,-89.81m-112.1 -253.74c-21.01,-47.92 -42.29,-96.07 -64.11,-144.19 -76.6,-168.91 -159.39,-337.83 -250.31,-505.64"/>
  <path class="fil0 str1" d="M11237.96 4304.07c152.17,-74.69 298.87,-231.39 352.13,-362.37"/>
  <path class="fil0 str1" d="M4146.12 1602.98c-36.25,64.91 -82.27,122.84 -136.82,171.73 -77.19,69.18 -170.37,118.77 -262.44,159.96 -94.01,42.05 -186.19,77.69 -262.37,122.58 -91.66,54.01 -161.32,120.32 -215.32,219.46 -17.12,31.43 -32.57,66.17 -46.19,104.26"/>
  <path class="fil0 str1" d="M10829.21 3977.1c-109.38,-56.32 -218.44,-110.61 -327.59,-162.44 -182.17,-86.5 -365.27,-166.64 -555,-225.92 -74.58,-23.31 -150.3,-43.01 -226.42,-58.75m-235.84 -35.73c-152.71,-14.52 -302.59,-12.33 -440.58,-5.52 -122.6,6.05 -234.88,14.96 -343.36,19.15m-330.46 -1.87c-112.57,-5.17 -238.23,-14.91 -374.09,-19.96 -146.03,-5.44 -302.5,-4.26 -452.86,17.64 -37.02,5.39 -73.61,12.11 -109.58,20.06m-232.33 71.78c-5.65,2.29 -11.28,4.62 -16.87,6.97 -128.48,54.15 -238.72,122.79 -338.06,183.43 -16.26,9.92 -32.24,19.59 -48.02,29m-223.54 114.53c-2.43,0.97 -4.88,1.94 -7.33,2.89 -93.54,36.52 -197.6,62.02 -325.3,79.15 -137.41,18.43 -302.18,27.19 -485.54,32.59 -223.33,6.57 -472.85,9.33 -710.22,13.52 -52.98,0.93 -105.29,1.96 -156.55,2.9m-307.34 3.33c-41.75,-0.13 -81.98,-0.63 -120.41,-1.63 -131.62,-3.43 -241.83,-13.97 -329.06,-37.39 -99.03,-26.58 -169.52,-67.56 -235.27,-134.71 -62.51,-63.84 -119.7,-153.74 -175.21,-262.32 -20.87,-40.82 -41.55,-83.97 -62.24,-128.85m-91.86 -206.54c-19.56,-44.77 -39.41,-90.27 -59.74,-136.02 -80.52,-181.22 -168.54,-366.88 -265.96,-550.6"/>
  <path class="fil0 str1" d="M11106.82 4123.65c87.86,-3.91 450.14,-391.63 483.26,-473.11"/>
  <line class="fil0 str1" x1="11372.18" y1="4890.09" x2="11590.09" y2= "4893.82" />
  <line class="fil0 str1" x1="11437.39" y1="4666.91" x2="11590.09" y2= "4672.13" />
  <path class="fil0 str1" d="M10813.69 1977.86c42.61,13.83 89.45,30.19 140.32,48.71 64.46,23.48 135.19,50.41 204.79,72.93m222.59 35.63c80.94,0.19 167.91,-5.85 208.69,-10.8"/>
  <path class="fil0 str1" d="M10912.45 1773.05c33.01,11.06 67.52,23.16 103.32,36.13 51.13,18.51 104.84,38.65 155.96,56.6m225.06 57.64c7.95,0.56 15.15,0.74 21.54,0.57 5.79,-0.15 167.29,-5.51 171.76,-6.05"/>
  <path class="fil0 str1" d="M9716.7 1944.87c87.73,-38.3 176.45,-69.78 266.51,-95.26 21.84,-6.18 43.78,-11.99 65.81,-17.51m220.36 -48.89c26.85,-5.6 53.81,-11.24 80.85,-17.08 107.87,-23.29 217.48,-50.64 321.06,-100.07m188.29 -126.38c34.13,-31.19 66.04,-66.04 95.09,-104.55 47.59,-63.09 87.97,-135.14 121.95,-215.81"/>
  <path class="fil0 str1" d="M9464.08 1816.9c138.95,-73.96 281.57,-131.97 424.82,-174.63 29.2,-8.69 58.43,-16.72 87.54,-24.22m225.84 -51.17c29.77,-6.21 59.02,-12.27 87.58,-18.35 101.98,-21.72 193.88,-45.17 271.56,-80.04m185.6 -134.96c19.02,-21.64 37.09,-45.65 54.41,-72.44 51.9,-80.31 95.63,-186.11 128.75,-317.11"/>
  <path class="fil0 str1" d="M6927.05 1460.51c71.39,-100.81 152.4,-198.81 245.33,-294.04 97.37,-99.76 207.56,-197.31 327.13,-292.72"/>
  <path class="fil0 str1" d="M8223.2 925.04c182.48,9.41 363.08,16.03 541.61,19.94m1214.43 0.31c34.54,-0.31 69.01,-0.61 103.4,-0.88m413.36 -1.89c145.78,-0.13 290.46,0.32 434.18,1.45"/>
  <path class="fil0 str1" d="M6675.03 1431.16c84.91,-132.33 183.7,-260.88 299.42,-383.92 70.77,-75.24 147.11,-148.14 228.16,-219.22"/>
  <path class="fil0 str1" d="M7430.74 641.09c14.85,1.37 29.7,2.74 44.55,4.11 487.74,44.97 962.81,69.88 1424.91,76.8 459.44,6.88 907.33,-1.76 1346.65,-4.12 278.08,-1.5 552.54,-0.99 823.59,1.99"/>
  <path class="fil0 str1" d="M11590.09 965.11c-111.1,-79.39 -400.66,-262.52 -535.98,-244.24"/>
  <path class="fil0 str1" d="M11575.04 1240.46c-40.71,-29.09 -194.76,-144.04 -322.39,-221.96"/>
  <path class="fil0 str1" d="M9037.94 1465.66c57.42,-72.87 108.72,-133.66 153.56,-182.15 67.48,-72.99 120.01,-117.06 155.87,-139.08 4.99,-3.06 9.6,-5.74 13.94,-8.08m328.31 -91.47c48.83,-20.51 99.7,-43.26 151.21,-62.3 66.49,-24.57 132.23,-41.28 192.59,-41.47 64.75,-0.2 125.12,15.96 191.89,61.08 72.63,49.08 151.7,135.51 230.44,265.54 35.4,58.46 70.73,125.44 105.68,200.76"/>
  <path class="fil0 str1" d="M8806.35 1743.43c-20.76,19.35 -36.18,40.74 -47.72,65.44 -15.55,33.31 -24.48,75.24 -23.7,132.26 1.21,89.09 27.53,210.18 74.65,348"/>
  <path class="fil0 str1" d="M8699.81 1539.92c10.28,-14.17 20.43,-28.07 30.46,-41.72m126.96 -167.57c75.59,-96.21 143.06,-174.84 203.55,-236.83 17.44,-17.87 34.35,-34.42 50.82,-49.69m851.74 -324.07c42.05,-4.82 85.72,-5.68 129.88,-1.13m402.8 223.6c90.86,99.68 173.39,230.02 251.02,391.01"/>
  <path class="fil0 str1" d="M8557.2 1707.61c-1.49,3.07 -2.96,6.18 -4.38,9.3 -33.87,74.21 -46.34,159.55 -42.71,248.15 2.37,57.66 10.75,117.26 24.05,179.09"/>
  <path class="fil0 str1" d="M10671.29 1666.06c8.53,17.36 13.69,32.78 16.21,45.98 4.87,25.48 2.57,43.68 -7.85,66.56 -11.46,25.17 -36.24,56.27 -76.92,87.3 -61.09,46.61 -155.18,90.19 -260.17,116.6m-233.19 29.78c-49.95,0.65 -100.5,-2.22 -150.88,-8.75 -80.67,-10.46 -161.35,-30.04 -241.8,-58.65"/>
  <path class="fil0 str1" d="M10859.58 1539.68c22.11,38.84 38.4,79.1 47.55,121.26 7.98,36.8 9.72,74.89 5.32,112.12m-98.76 204.81c-23.2,25.37 -49.46,48.63 -77.78,69.94 -74.62,56.13 -165.11,100.54 -264.12,132.34m-245.37 51c-93.16,9.58 -188.5,8.7 -283.47,-2.53"/>
  <path class="fil0 str1" d="M8752.71 941.95c127.05,31.54 247.17,65.57 358.88,102.17m249.72 92.22c47.46,19.86 92.64,40.37 135.37,61.51 144.19,71.34 257.98,149.89 342.53,235.42 57.51,58.17 102.63,119.65 137.22,184.78"/>
  <path class="fil0 str1" d="M10346.59 2376.63c-43.69,-44.66 -83.99,-93.02 -120.19,-145.49m-117.03 -218.87c-23.53,-57.69 -43.44,-117.93 -60.35,-180.17"/>
  <path class="fil0 str1" d="M9689.62 1044.87c131.31,73.85 243.46,157.88 332.39,253.35 76.75,82.4 136.59,172.5 180.27,268.65"/>
  <path class="fil0 str1" d="M10553.26 2262.6c-29,-26.02 -56.2,-53.44 -81.47,-82.46m-129.22 -197.65c-28.85,-60.56 -53.04,-127.2 -73.18,-199.28"/>
  <path class="fil0 str1" d="M1277.53 2657.16c76.94,-124.2 154.67,-222.11 231.86,-295.79 98.37,-93.9 194.63,-148.56 299.41,-189.34 88.94,-34.63 186.44,-59.57 289.77,-99.95 49.41,-19.31 99.71,-42.74 149.45,-70.92m188.81 -134.6c33.76,-29.02 66.92,-59.76 99.75,-91.23m181.19 -175.98c73.94,-69.14 149.26,-131.79 228.23,-180.47 93.25,-57.48 192.65,-95.96 300.05,-124.07 114.79,-30.05 237.71,-49.01 357.23,-79.06 24.91,-6.26 49.64,-13.11 74.07,-20.53m212.14 -83.69c91.37,-45.48 171.63,-97.04 248.64,-138.59 76.38,-41.2 150.27,-72.3 235.18,-92.36 87.36,-20.64 187.64,-29.5 295.04,-38.06 99.39,-7.92 204.01,-16.95 304.34,-38.66 92.46,-20 180.23,-51.45 259.08,-86.78 92.69,-41.52 173.64,-85.63 253.89,-115.4 77.71,-28.83 156.26,-45.19 250.29,-45.83 100.21,-0.68 217.63,17.45 344.34,46.13 89.54,20.27 183.11,45.05 277.02,69.49m268.05 65.3c103.92,22.55 204.91,40.74 301.61,54.83 95.11,13.86 185.9,24.29 275.64,36.38m290.19 51.09c119.8,28.12 245.81,68.16 385.94,128.72 208.83,90.28 448.33,226.34 723.84,418.19 38.86,27.06 78.43,55.22 118.69,84.46"/>
  <path class="fil0 str1" d="M1016.92 2656.7c86.8,-157.68 178.1,-288.96 274.48,-394.35m798.83 -432.48c51.94,-25.46 102.01,-56.32 153.76,-96.46 72.43,-56.19 148.09,-131.25 231.5,-213.42 81.06,-79.85 170.06,-164.85 269.56,-237.41m464.73 -211.19c96.21,-24.16 189.2,-40.47 272.96,-58.89 76.21,-16.76 144.31,-35.51 207.5,-59.39m575.59 -277.18c89.52,-25.85 184.53,-40.08 277.4,-48.99 106.4,-10.21 209.83,-15.42 302.22,-29.06 96.02,-14.17 179.03,-37.68 261.1,-72.13 82.85,-34.78 166.48,-81.32 264.53,-121.29 83.44,-34.02 177.93,-60.93 280.22,-70.07 144.36,-12.91 301.92,8.67 460.78,43.76 143.36,31.67 287.5,72.61 423.65,106.33 133.48,33.05 258.81,58.7 379.77,77.49 168.1,26.1 330.21,39.54 509.07,72.63 18.7,3.46 37.57,7.17 56.62,11.14m742 279.3c193.01,103.83 403.46,238.02 634.02,405.6m180.71 135.02c137.35,105.27 281.23,221.35 431.76,348.26"/>
  <path class="fil0 str1" d="M7805.96 2631.86c18.7,-7.7 40.17,-14.48 64.89,-20.11 67.43,-15.35 158.89,-20.43 263.64,-16.4 136.78,5.26 293.05,24.29 433.74,38.72 133.21,13.66 251.93,22.74 351.19,23.07 29.43,0.1 57.27,-0.51 83.66,-1.87"/>
  <path class="fil0 str1" d="M7678.57 2442.88c46.79,-24.31 98.92,-41.93 154.68,-53.64 121.25,-25.48 263.01,-24.06 408.35,-13.58 107.15,7.73 214.88,19.86 313.83,30.37"/>
  <path class="fil0 str1" d="M6675.06 1714.83c103.5,124.29 212.29,242.48 324.1,354.38 137.97,138.06 280.7,265.11 400.79,394.52 108.09,116.47 195.68,236.08 257.72,373.65 30.8,68.29 55.68,141.04 74.62,218.51"/>
  <path class="fil0 str1" d="M6949.24 1687.96c66.26,74.59 134.47,146.8 204.57,217.09 26.75,26.82 53.82,53.35 81.09,79.75m197.97 190.69c22.98,22.53 45.87,45.28 68.59,68.34 61.87,62.84 121.95,128.68 177.11,199.04m127.39 188.98c88.34,156.54 146.94,333.18 175.58,525.89"/>
  <path class="fil0 str1" d="M5941.07 1128.66c85.89,98.65 186.06,193.72 302.95,283.79 69.7,53.7 144.57,105.49 223.82,155.83"/>
  <path class="fil0 str1" d="M6163.33 1037.94c80.75,84.73 175.09,166.88 286.71,246.7 69.29,49.56 144.7,98.44 224.99,146.52"/>
  <path class="fil0 str1" d="M6357.31 671.5c-54.62,37.64 -128.7,82.02 -212.57,124.72 -121.48,61.86 -261.97,119.61 -384.15,152.5 -81.56,21.95 -154.29,32.83 -214.86,34.22 -79.8,1.83 -139.15,-12.39 -212.15,-26.88 -51.01,-10.13 -110.28,-19.23 -175.42,-14.15 -78.12,6.09 -160.43,32.63 -243.68,72.29 -108.11,51.5 -221.36,124.98 -327.73,191.54 -91.15,57.04 -175.93,107.36 -244.65,137.41 -59.09,25.84 -105.47,36.83 -141.56,37.6 -35.96,0.77 -64.17,-6.56 -97.48,-25.13 -49.05,-27.35 -106.94,-83.35 -167.15,-171.11 -15.35,-22.37 -30.84,-46.71 -46.41,-72.98"/>
  <path class="fil0 str1" d="M6625.36 736.81c-10.98,13.37 -23.08,25.72 -36.09,38.11 -45.02,42.84 -103.81,84.93 -176.62,129.73 -72.02,44.31 -157.79,90.67 -249.32,133.3m-222.26 90.72c-94.46,32.81 -187.84,56.96 -274.56,69.63m-235.94 3.93c-24.77,-2.9 -47.97,-6.61 -69.37,-10.64 -56.63,-10.67 -99.86,-21.31 -136.77,-24.53 -36.57,-3.19 -69.46,-0.9 -114.18,11.93 -52.25,14.99 -119.38,46.42 -194.71,89.53 -85.94,49.19 -181.01,111.9 -274.51,168.76m-200.79 109.02c-46.8,20.93 -93.09,37.46 -139.35,47.83 -51.77,11.61 -104.2,14.88 -154.77,8.87m-209.71 -87.45c-24,-17.92 -46.93,-38.04 -68.93,-59.92 -68.84,-68.46 -130.77,-155.17 -190.13,-260.38"/>
  <path class="fil0 str1" d="M5430.57 1202.21c32.04,92.28 61.14,199.52 86.41,325.15 18.72,93.08 35.59,195.53 50.89,304.8"/>
  <path class="fil0 str1" d="M5666.52 1198.29c24.74,79.74 47.15,167.06 67.02,262.89 18.76,90.48 35.41,187.58 50.48,290.19"/>
  <path class="fil0 str1" d="M3612.06 3527.63c4.96,-3.62 14.47,-9.83 27.09,-17.11 53.1,-30.65 165.03,-82.12 294.96,-136.86 110.21,-46.43 231.02,-94.74 333.21,-136.72 78.23,-32.15 145.04,-60.28 200.63,-88.15 54.25,-27.19 99.94,-56.31 139.68,-90.37 9.31,-7.98 18.28,-16.12 27.04,-24.42m166.31 -167.9c26.47,-24.54 54.69,-48.75 84.07,-70.8 51.92,-38.95 106.47,-69.51 153.44,-84.2 47.68,-14.91 86.12,-15.21 123.02,-4.58 38.78,11.17 78.73,36.52 118.31,77.43 55.78,57.67 107.15,142.96 146,240.48 35.53,89.19 61.4,188.89 76.93,297.37"/>
  <path class="fil0 str1" d="M3439.2 3557.75c-176.63,-44.01 -357.79,-65.49 -546.14,-58.12 -171.8,6.73 -352.13,37.96 -538.89,88.36"/>
  <path class="fil0 str1" d="M2248.24 3801.85c-2.16,20.89 -4.92,41.93 -8.31,63.13 -11.94,74.6 -31.22,149.99 -56.26,226.3"/>
  <path class="fil0 str1" d="M3568.26 3292.41c28.51,-14.85 60.89,-30.45 97.29,-47.24 102.65,-47.36 236.77,-102.97 362.99,-154.37 105.69,-43.04 203.84,-82.37 275.39,-114.08 31.96,-14.17 58.39,-26.78 80.24,-38.38m196.26 -171.89c14.05,-14.35 29.16,-29.44 45.37,-45.02 67.28,-64.67 152.99,-137.01 251.12,-186.74m218.66 -60.22c39.07,-1.33 78.07,2.48 115.46,11.96 83.72,21.2 156.79,68.39 216.78,126.72 3.96,3.85 7.87,7.76 11.74,11.7m159.4 233.7c7.7,15.93 15.09,32.09 22.17,48.45 47.98,110.92 81.41,231.69 101.46,360.45"/>
  <path class="fil0 str1" d="M3327.1 3304.01c-145.67,-25.01 -295.29,-35.85 -449.14,-29.37 -236.87,9.98 -480.06,60.51 -727.76,138.09"/>
  <path class="fil0 str1" d="M2024.35 3599.67c7.75,76.42 5.76,155.89 -8.87,240.89 -17.37,100.92 -53.03,212.46 -102.12,329.77"/>
  <path class="fil0 str1" d="M4732.89 1814.72c-8.31,53.02 -12.54,108.29 -11.84,165.76 0.56,46.79 4.17,94.24 10.19,142.42"/>
  <path class="fil0 str1" d="M4794.27 2339.71c29.35,66.25 56.91,131.19 82.65,194.98"/>
  <path class="fil0 str1" d="M4946.98 1937.61c-0.64,16.58 -0.77,33.53 -0.34,50.9 0.66,26.72 2.6,54.73 5.7,83.76"/>
  <path class="fil0 str1" d="M5018.02 2288.65c39.98,91.87 76.82,181.93 110.21,269.57"/>
  <path class="fil0 str1" d="M3790.98 1914.25c9.71,17.46 17.31,36.48 22.96,57.71 11.15,41.88 14.07,95.4 6.15,162.34 -7.25,61.33 -23.21,132.31 -46.67,209.72"/>
  <path class="fil0 str1" d="M3785.05 2569.47c26.58,53.4 61.92,101.61 104.87,142.41 73.27,69.59 166.3,116.25 263.51,152.03 75.69,27.86 154.17,50.52 230.74,74.43m250.52 95.65c55.2,26.72 107.85,56.74 158.28,90.4 126.42,84.39 241.1,189.61 349.14,290.22 43.31,40.34 85.39,80.02 126.18,118.72"/>
  <path class="fil0 str1" d="M3983.11 1796.97c23.11,39.64 40.78,83.14 51.91,129.87 21.24,89.23 18.31,186.83 1.01,288.59 -5.09,29.91 -11.39,60.29 -18.8,91.19"/>
  <path class="fil0 str1" d="M4030.64 2533.77c8.68,9.44 18.17,18.47 28.58,27.23 41.09,34.58 98.76,64.46 173.18,91.78 98.09,36.01 222.85,67.67 348.03,113.68m220.57 99.64c33.79,18.41 66.73,37.96 98.47,58.54 122.95,79.69 228.74,171.78 324.57,258.96 74.76,67.99 144.26,133.56 210.1,196.25"/>
  <path class="fil0 str1" d="M2472.76 1754.46c180.36,57.69 369.94,128.97 572.77,217.9 40.74,17.87 81.97,36.35 123.61,55.4"/>
  <path class="fil0 str1" d="M2717.77 1599.35c111.88,39.82 227.2,84.71 346.31,135.46 97.03,41.34 196.13,86.06 297.04,133.55"/>
  <path class="fil0 str1" d="M2056.03 2924.31c19.44,-67.07 43.58,-132.18 72.35,-195.51 46.44,-102.27 106.1,-199.94 167.34,-295.72 55.82,-87.31 112.25,-172.02 147.42,-263.03 22.46,-58.13 35.8,-120.71 29.79,-184.04 -3.94,-41.59 -16.6,-82.28 -36.09,-119.45"/>
  <path class="fil0 str1" d="M1817.2 2947.07c23.72,-101.39 56.51,-199.53 97.79,-293.26 49.46,-112.33 111.97,-218.11 171.86,-312.43 52.78,-83.12 101.95,-157.87 130.64,-217.41 20.8,-43.16 30.09,-76.97 31.31,-100.56 0.43,-8.29 0.21,-15.5 -0.78,-22.24"/>
  <path class="fil0 str1" d="M610.25 2976.2c133.75,-40.5 256.77,-77.07 365.12,-108.3 60.67,-17.49 117.27,-33.49 170.42,-48.24"/>
  <path class="fil0 str1" d="M577.92 2750.47c117.31,-35.42 226.21,-67.75 323.87,-95.96 65.58,-18.94 126.55,-36.2 183.73,-52.06"/>
  <line class="fil0 str1" x1="353.12" y1="2786.19" x2="138.84" y2= "2786.19" />
  <line class="fil0 str1" x1="386.77" y1="3013.6" x2="138.84" y2= "3019.07" />
  <path class="fil0 str1" d="M4273.91 674.82c-294.81,40.67 -567.72,59.08 -821.83,55.98 -221.05,-2.69 -427.35,-22.2 -641.2,-48.98 -210.13,-26.31 -429.88,-58.49 -678.82,-82.7 -289.23,-28.12 -617.36,-45 -987.92,-45.78 -232.9,-0.49 -482.07,5 -747.12,16.33"/>
  <path class="fil0 str1" d="M3690.25 953.11c-105.59,3.84 -208.53,4.44 -308.93,1.79 -37.22,-0.98 -74.08,-2.42 -110.63,-4.25m-239.26 -17.53c-88.74,-8.37 -176.59,-18.53 -264.64,-29.65 -217.87,-27.54 -438.99,-59.67 -689,-83.08 -28.06,-2.63 -56.49,-5.15 -85.29,-7.55m-379.45 -23.8c-136.7,-5.9 -280.74,-9.4 -432.59,-10.15 -28.6,-0.14 -57.47,-0.19 -86.6,-0.14m-252.57 2.6c-139.46,2.59 -284.37,7.11 -434.63,13.54"/>
  <path class="fil0 str1" d="M2742.44 1282.83c0.87,-0.09 1.74,-0.18 2.61,-0.26m464.73 -211.19c26.78,-37.01 46.74,-77.82 60.91,-120.73"/>
  <path class="fil0 str1" d="M2719.86 1058.55c94.5,-9.52 172.59,-28.95 225.26,-54.36 41.61,-20.07 66.39,-41.69 85.33,-69.61 0.33,-0.48 0.66,-0.97 0.98,-1.46"/>
  <path class="fil0 str1" d="M2200.85 1499.91c125.43,-74.48 239.92,-132.83 336.8,-170.06 77.11,-29.63 142.17,-44.66 188.7,-46.3 6.16,-0.22 11.99,-0.24 17.51,-0.09"/>
  <path class="fil0 str1" d="M1816.36 2169.22c5.48,-5.31 10.96,-10.63 16.44,-15.94m257.43 -323.42c18.71,-33.25 35.4,-67.04 49.96,-101.45 31.17,-73.67 52.06,-150.32 60.66,-228.51"/>
  <path class="fil0 str1" d="M1816.36 2169.22c-7.12,2.76 -14.23,5.51 -21.35,8.26m-503.61 84.86c-137.73,-7.98 -276.7,-42.78 -414.03,-96.78 -41.67,-16.39 -83.29,-34.5 -124.93,-54.26"/>
  <path class="fil0 str1" d="M1692.35 1975.27c-125.16,45.7 -250.15,68.24 -377.45,62.58 -113.46,-5.04 -231.91,-33.48 -356.81,-82.77 -33.51,-13.22 -67.38,-27.89 -101.57,-43.93"/>
  <path class="fil0 str1" d="M1409.64 1295.29c182.6,57.31 375.74,72.83 565.14,45.42"/>
  <path class="fil0 str1" d="M1409.64 1295.29c12.02,-4.27 23.92,-8.8 35.64,-13.58 89.95,-36.72 170.81,-90.37 234.41,-160.12 50.8,-55.7 90.37,-120.28 120.57,-190.68"/>
  <path class="fil0 str1" d="M1974.78 1340.71c-4.7,-34.9 -12.67,-70.8 -23.92,-107.69 -28.91,-94.74 -79.8,-196.31 -150.59,-302.11"/>
  <path class="fil0 str1" d="M2187.28 1247.74c99.3,-54.88 193.16,-99.89 282.06,-133.07 89.24,-33.3 174,-54.92 255.46,-56.62"/>
  <path class="fil0 str1" d="M2090.23 1829.87c18.71,-33.25 35.4,-67.04 49.96,-101.45 0.08,-0.2 0.17,-0.39 0.25,-0.59m46.85 -480.09c-24.35,-115.22 -72.21,-229.36 -137.26,-342.11 -17.87,-30.97 -37.06,-61.89 -57.52,-92.8"/>
  <path class="fil0 str1" d="M1675.89 1991.45c121.87,-118.17 208.52,-236.71 256.92,-351.39 9.91,-23.46 18.27,-46.74 25.07,-69.95m-6.42 -335.1c-0.2,-0.66 -0.4,-1.32 -0.6,-1.98 -28.91,-94.76 -79.79,-196.29 -150.59,-302.12"/>
  <path class="fil0 str1" d="M1109.02 1415.07c261.72,133.62 556.98,187.49 848.86,155.04"/>
  <path class="fil0 str1" d="M1166.95 1121.93c73.6,-10.23 138.53,-26.63 193.02,-48.87 86.07,-35.12 144.8,-82.49 190.66,-151.57 24.8,-37.36 45.74,-81.66 62.42,-132.44"/>
  <line class="fil0 str1" x1="995.36" y1="10789.39" x2="138.84" y2= "10831.65" />
  <line class="fil0 str1" x1="964.46" y1="10547.98" x2="138.84" y2= "10547.98" />
  <line class="fil0 str2" x1="674.68" y1="4535.22" x2="138.84" y2= "4966.87" />
  <line class="fil0 str2" x1="805.24" y1="4718.98" x2="138.84" y2= "5284.96" />
  <line class="fil0 str2" x1="715.36" y1="5516.81" x2="138.84" y2= "5891.33" />
  <line class="fil0 str2" x1="648.46" y1="5299.67" x2="138.84" y2= "5652.76" />
  <line class="fil0 str2" x1="311.19" y1="6132.07" x2="138.84" y2= "6132.07" />
  <line class="fil0 str2" x1="267.06" y1="6353.13" x2="138.84" y2= "6353.13" />
  <line class="fil0 str2" x1="389.06" y1="7709.77" x2="138.84" y2= "7709.77" />
  <line class="fil0 str2" x1="352.53" y1="8013.61" x2="138.84" y2= "8013.61" />
  <line class="fil0 str2" x1="699.64" y1="9447.28" x2="138.84" y2= "9748.17" />
  <line class="fil0 str2" x1="554.86" y1="9274.5" x2="138.84" y2= "9417.65" />
  <line class="fil0 str2" x1="674.68" y1="9794.98" x2="138.84" y2= "10113.48" />
  <line class="fil0 str2" x1="805.24" y1="9978.74" x2="138.84" y2= "10401.75" />
  <line class="fil0 str2" x1="554.86" y1="4014.74" x2="138.84" y2= "4271.06" />
  <line class="fil0 str2" x1="699.64" y1="4187.52" x2="138.84" y2= "4564.29" />
  <line class="fil0 str2" x1="397.02" y1="569.68" x2="138.84" y2= "581.94" />
  <line class="fil0 str2" x1="412.87" y1="794.63" x2="138.84" y2= "826.73" />
  <circle class="fil0 str3" cx="342.88" cy="11327.89" r="119.28"/>
  <circle class="fil0 str3" cx="11444.86" cy="11391.42" r="119.28"/>
  <circle class="fil0 str3" cx="342.88" cy="11327.89" r="119.28"/>
  <circle class="fil0 str3" cx="335.35" cy="344.95" r="119.28"/>
  <circle class="fil0 str3" cx="11437.33" cy="408.48" r="119.28"/>
  <circle class="fil0 str3" cx="335.35" cy="344.95" r="119.28"/>
  <line class="fil0 str2" x1="1016.92" y1="7916.45" x2="579.45" y2= "7956.01" />
  <line class="fil0 str2" x1="1081.96" y1="8078.36" x2="593.2" y2= "8168.52" />
  <path class="fil0 str2" d="M7520.95 8995.74l119.72 450.52m64.28 241.87l8.5 32.01"/>
 </g>
</svg>
