<?xml version="1.0" encoding="UTF-8"?>
<!DOCTYPE svg PUBLIC "-//W3C//DTD SVG 1.1//EN" "http://www.w3.org/Graphics/SVG/1.1/DTD/svg11.dtd">
<!-- Creator: CorelDRAW (Evaluation Version) -->
<svg xmlns="http://www.w3.org/2000/svg" xml:space="preserve" width="13.7795in" height="13.7795in" version="1.1" style="shape-rendering:geometricPrecision; text-rendering:geometricPrecision; image-rendering:optimizeQuality; fill-rule:evenodd; clip-rule:evenodd"
viewBox="0 0 13779.53 13779.53"
 xmlns:xlink="http://www.w3.org/1999/xlink"
 xmlns:xodm="http://www.corel.com/coreldraw/odm/2003">
 <defs>
  <style type="text/css">
   <![CDATA[
    .str0 {stroke:black;stroke-width:3;stroke-linejoin:bevel;stroke-miterlimit:2.61313}
    .fil0 {fill:none}
   ]]>
  </style>
 </defs>
 <g id="Layer_x0020_1">
  <metadata id="CorelCorpID_0Corel-Layer"/>
  <path class="fil0 str0" d="M5109.73 1479.11c202.21,-43.33 410.15,-72.8 623.82,-90.38 217.37,-17.88 442.83,-23.46 668.8,-26.25 250.16,-3.09 498.11,-4.42 713.21,-19.94 72.96,-5.26 141.92,-12.14 207.72,-20.37"/>
  <path class="fil0 str0" d="M7323.28 1322.17c48.01,-12.01 92.61,-18.95 135.91,-19.5"/>
  <path class="fil0 str0" d="M7459.19 1302.67c12.13,-1.97 24.17,-3.98 36.11,-6.04 142.29,-24.51 274.67,-55.83 428.91,-74.2 128,-15.24 271.15,-19.79 432.75,-5.81 181.12,15.66 385.54,54.1 594.66,110.91 36.88,10.02 73.85,20.59 110.76,31.65"/>
  <path class="fil0 str0" d="M9062.38 1359.18c54.59,7.55 109.38,14.2 164.37,19.96 223.52,23.39 448.89,31.07 685.73,27.72 197.43,-2.79 404.94,-13.61 633.44,-18.1 173.01,-3.4 358.55,-3.05 546.99,14.61 181.2,16.99 364.76,49.61 524.63,120.88 101.91,45.43 194.45,108.06 264.58,191.33"/>
  <line class="fil0 str0" x1="11882.11" y1="1715.58" x2="12889.76" y2= "1646.56" />
  <line class="fil0 str0" x1="12889.76" y1="1646.56" x2="12889.76" y2= "1138.78" />
  <line class="fil0 str0" x1="12889.76" y1="1138.78" x2="889.76" y2= "1138.78" />
  <line class="fil0 str0" x1="889.76" y1="1138.78" x2="889.76" y2= "1548.72" />
  <line class="fil0 str0" x1="889.76" y1="1548.72" x2="1011.43" y2= "1488.59" />
  <path class="fil0 str0" d="M1011.43 1488.59c77.31,-18.82 161.8,-21.34 253.96,-11.78 145.73,15.11 312.58,61.78 498.26,127.08 168.72,59.34 352.69,134.18 534.5,199.47 185.94,66.76 368.43,121.23 523.58,139.08 111.52,12.83 207.83,7.25 291.29,-15.68 97.07,-26.67 180.15,-77.32 264.03,-147.82 88.07,-74.02 175.06,-169.27 276.09,-259.15 94.03,-83.65 202.21,-161.56 330.51,-210.06 127.23,-48.09 272.19,-66.42 430.24,-51.24 207.2,19.9 437.65,94.72 695.83,220.63"/>
  <path class="fil0 str0" d="M1733.74 2643.31c91.81,-161.57 150.07,-307.16 167.17,-422.38 12.09,-81.48 4.76,-145.52 -18.79,-203.82 -23.4,-57.92 -64.22,-112.57 -125.32,-164.49"/>
  <path class="fil0 str0" d="M1756.8 1852.61c-109.46,-39.9 -210.82,-74.09 -300.82,-98.37 -135.67,-36.59 -245.91,-50.76 -325.12,-45.48 -23.98,1.6 -45.14,4.85 -63.55,9.33"/>
  <line class="fil0 str0" x1="1067.31" y1="1718.1" x2="889.76" y2= "1859.52" />
  <line class="fil0 str0" x1="889.76" y1="1859.52" x2="889.76" y2= "2512.61" />
  <line class="fil0 str0" x1="889.76" y1="2512.61" x2="1203.26" y2= "2559.95" />
  <path class="fil0 str0" d="M1203.26 2559.95c57.23,-6.94 118.57,-4.81 185.04,3.38 102.28,12.59 217.95,40.83 345.43,79.98"/>
  <path class="fil0 str0" d="M1999.97 2646.47c279.28,-29.25 523.95,-70.23 734.89,-121.88 158.35,-38.77 297.28,-83.53 421.43,-133.16"/>
  <path class="fil0 str0" d="M3156.28 2391.44c-26.99,-23.57 -50.88,-51.04 -69.62,-81.68 -24.73,-40.43 -40.3,-84.4 -49.15,-129.67"/>
  <path class="fil0 str0" d="M3037.51 2180.09c-109.11,11.15 -224.97,3.51 -343.6,-18.04 -187.48,-34.05 -383.83,-101.28 -572,-171.61"/>
  <path class="fil0 str0" d="M2121.91 1990.44c20.81,76.77 25.66,159.32 15.66,242.83 -15.99,133.46 -65.96,270.15 -137.6,413.2"/>
  <path class="fil0 str0" d="M3424.35 2265.78c130.72,-70.84 247.54,-147.94 369.08,-227.17 81.71,-53.27 166.06,-107.15 255.39,-159.14"/>
  <path class="fil0 str0" d="M4048.81 1879.46c9.95,-41.74 13.17,-76.57 11.31,-101.74 -1.9,-25.64 -7.49,-39.97 -15.79,-52.06 -8.18,-11.91 -21.48,-24.42 -47.1,-37.69 -29.56,-15.3 -74.19,-29.46 -130.37,-39.31"/>
  <path class="fil0 str0" d="M3866.86 1648.65c-33.12,26.28 -65.9,55.28 -99.03,86.44 -93.3,87.76 -188.62,191.59 -306.05,277.69 -58.8,43.11 -123.8,81.16 -194.43,110.22"/>
  <path class="fil0 str0" d="M3267.35 2123c3.72,25.39 10.38,45 18.55,59.61 10.09,18.05 22.78,31.59 46.94,46.47 21.87,13.46 52.94,26.37 91.51,36.7"/>
  <path class="fil0 str0" d="M4294.75 1749.66c138.37,-65.32 287.49,-123.4 442.98,-172.57"/>
  <path class="fil0 str0" d="M4737.73 1577.09c-129.19,-46.29 -244.93,-73.72 -346.41,-83.47 -90.4,-8.68 -169.01,-4.02 -239.94,11.84"/>
  <path class="fil0 str0" d="M4151.37 1505.46c38.07,26.36 71.92,59.89 96.56,100.15 27.02,44.14 41.7,94.04 46.81,144.04"/>
  <path class="fil0 str0" d="M4961.96 3071.6c-9.72,-38.96 -24.26,-75.55 -43.66,-110.77 -35.98,-65.33 -91.02,-127.2 -163.93,-190.11 -116.92,-100.88 -275.85,-202.54 -409.94,-327.96 -99.66,-93.22 -184.93,-199.53 -247.69,-317.06"/>
  <path class="fil0 str0" d="M4096.74 2125.69c-11.07,6.74 -22.09,13.53 -33.07,20.36 -149.83,93.23 -293.57,195.15 -462.4,291.67"/>
  <path class="fil0 str0" d="M3601.28 2437.72c17.15,36.95 31.65,74.81 43.29,113.54 37.88,126.05 44.49,262.45 13.81,389.02 -7.87,32.44 -18.3,64.28 -31.3,94.88"/>
  <path class="fil0 str0" d="M3627.07 3035.15c80.5,-20.5 170.28,-41.18 271.67,-52.94 137.05,-15.91 294.35,-15.12 458.15,-0.76 192.9,16.92 393.11,50.79 566.35,82.93 13.07,2.42 25.98,4.83 38.72,7.22"/>
  <path class="fil0 str0" d="M3230.42 3099.06c54.59,-15.23 94.23,-39.12 125.73,-72.25 30.04,-31.6 53.86,-74.45 68.83,-127.57 18.48,-65.63 21.77,-143.16 8.21,-218.24 -8.15,-45.12 -22.1,-89.91 -41.82,-134.25"/>
  <path class="fil0 str0" d="M3391.36 2546.76c-145.88,68.08 -310.54,129.62 -499.42,181.18 -174.65,47.67 -369.83,87.2 -586.41,118.57"/>
  <path class="fil0 str0" d="M2305.53 2846.51c37.69,14.06 75.38,28.06 112.91,41.85 196.46,72.15 386.59,136.53 546.56,173.19 100.3,22.99 188.22,35.11 265.43,37.51"/>
  <path class="fil0 str0" d="M3024.39 3803.73c35.66,-21.61 60.2,-42.96 75.13,-61.43 17.16,-21.24 23.61,-37.51 26.62,-60.44 3.18,-24.2 -0.09,-58.7 -8.9,-102.04 -11.89,-58.55 -32.41,-130.71 -34.11,-207.37 -0.36,-16.15 0.24,-32.5 1.83,-48.84"/>
  <path class="fil0 str0" d="M3084.95 3323.6c-140.42,-18.86 -296,-59.65 -461.04,-113.23 -272.68,-88.54 -569.72,-209.94 -818.93,-295.36 -10.85,-3.72 -21.61,-7.37 -32.27,-10.94"/>
  <path class="fil0 str0" d="M1772.72 2904.07c-58.34,-19.56 -113.81,-36.94 -165.76,-51.81"/>
  <path class="fil0 str0" d="M1606.96 2852.26c-86.57,-24.77 -163.4,-42.56 -227.58,-51.81 -26.5,-3.82 -50.89,-6.27 -72.88,-7.43"/>
  <path class="fil0 str0" d="M1306.49 2793.01c72.52,126.96 141.87,258.31 209.36,393.92"/>
  <path class="fil0 str0" d="M1515.85 3186.93c216.58,116.78 430.98,227.31 642.33,326.76 206.6,97.22 409.48,182.87 611.9,237.76 84.58,22.93 169.41,40.22 254.31,52.28"/>
  <path class="fil0 str0" d="M1072.33 2859.87l-182.57 -27.57 0 812.02 79.56 -195.7c-51.2,-201.9 -13.66,-416.2 103.01,-588.75z"/>
  <path class="fil0 str0" d="M1485.11 3669.49c-44.54,-94.24 -87.33,-185.07 -129.95,-273.26"/>
  <path class="fil0 str0" d="M1355.17 3396.23c-75.48,16.89 -137.88,69.71 -167.01,141.36"/>
  <line class="fil0 str0" x1="1188.15" y1="3537.59" x2="889.76" y2= "4039.28" />
  <line class="fil0 str0" x1="889.76" y1="4039.28" x2="889.76" y2= "5044.72" />
  <line class="fil0 str0" x1="889.76" y1="5044.72" x2="974.83" y2= "5037.93" />
  <path class="fil0 str0" d="M1203.37 5051.48c-75.18,-15.1 -152.1,-19.67 -228.54,-13.56"/>
  <path class="fil0 str0" d="M1203.37 5051.48c2.72,-8.46 5.49,-16.89 8.29,-25.28 77.77,-232.94 179.93,-437.61 248.67,-621.16 52.2,-139.4 84.4,-265.98 88.94,-386.88 4.44,-118.19 -16.05,-232.63 -64.16,-348.67"/>
  <path class="fil0 str0" d="M1761.02 4220.64c-13.14,63.93 -30.95,127.63 -52.26,190.89 -63.61,188.9 -155.89,375.37 -230.82,571.8 -15.82,41.47 -30.8,83.39 -44.74,125.88"/>
  <path class="fil0 str0" d="M1433.2 5109.21c169.98,33.63 315.41,40.4 423.49,18.76 84.8,-16.98 145.63,-48.97 197.28,-99.46 44.25,-43.26 82.21,-101.93 112.46,-176.67"/>
  <path class="fil0 str0" d="M2166.43 4851.84c-109,-146.15 -205.14,-290.83 -288.88,-429.25 -41.65,-68.85 -80.31,-136.16 -116.54,-201.95"/>
  <path class="fil0 str0" d="M2297.26 4630.53c32.8,-39.06 69.5,-77.22 110.38,-114.38 101.08,-91.89 225.2,-176.04 365.57,-256.7"/>
  <path class="fil0 str0" d="M2773.21 4259.44c4.96,-73.18 26.81,-144.98 59.49,-213.66 5.24,-11.02 10.76,-21.98 16.56,-32.9"/>
  <path class="fil0 str0" d="M2849.26 4012.89c-79.77,-16.5 -159.12,-37.15 -237.27,-61.57 -198.81,-62.12 -390.7,-146.11 -581.59,-236.75 -113.9,-54.08 -227.7,-110.72 -341.83,-169.47"/>
  <path class="fil0 str0" d="M1688.56 3545.1c4.31,9.61 8.48,19.23 12.51,28.89"/>
  <path class="fil0 str0" d="M1701.07 3573.98c40.22,85.2 81.69,172.35 125.96,261.85 97.04,196.22 209.64,405.75 355.99,628.32 36.03,54.8 74.14,110.39 114.24,166.37"/>
  <line class="fil0 str0" x1="3190.85" y1="5569.33" x2="3367.11" y2= "5666.55" />
  <line class="fil0 str0" x1="3367.11" y1="5666.55" x2="3347.63" y2= "5677.71" />
  <path class="fil0 str0" d="M3347.63 5677.71c137.43,87.07 271.28,150.71 397.99,190.03 20.6,6.39 41.01,12.15 61.28,17.31"/>
  <path class="fil0 str0" d="M3806.9 5885.05c21.76,-20.28 37.91,-42.69 50,-68.58 16.3,-34.91 25.65,-78.84 24.84,-138.6 -1.27,-93.36 -28.85,-220.24 -78.23,-364.67"/>
  <path class="fil0 str0" d="M3803.51 5313.19c-38.98,-22.87 -77.9,-46.64 -116.75,-71.26 -213.31,-135.14 -425.07,-295.19 -636.17,-476.78"/>
  <path class="fil0 str0" d="M3050.59 4765.15c-87.85,-70.27 -159.54,-145.27 -209.85,-231.45 -5.74,-9.83 -11.17,-19.83 -16.27,-29.99"/>
  <path class="fil0 str0" d="M2824.46 4503.71c-105.11,64.27 -195.12,129.11 -264.49,193.25 -46.18,42.7 -84.25,85.63 -115.74,128.69"/>
  <path class="fil0 str0" d="M2444.24 4825.65c46.47,58.69 94.97,117.26 145.4,175.24 183.98,211.49 392.87,412.72 601.21,568.44"/>
  <path class="fil0 str0" d="M2192.85 5221.5c45.79,46.8 88.01,97.48 125.94,152.47"/>
  <path class="fil0 str0" d="M2318.79 5373.97c97.62,-10.04 197.54,-9.12 297.06,2.65"/>
  <path class="fil0 str0" d="M2615.85 5376.62c-101.26,-102.72 -197.95,-210.41 -287.87,-319.11"/>
  <path class="fil0 str0" d="M2327.97 5057.51c-29.63,49.99 -64.29,95.54 -104.79,135.88 -9.76,9.72 -19.88,19.1 -30.33,28.11"/>
  <path class="fil0 str0" d="M1655.28 6098.57c-23.17,-40.71 -40.24,-82.89 -49.83,-127.07"/>
  <path class="fil0 str0" d="M1605.45 5971.5c-14.87,-68.56 -9.07,-141.37 16.81,-205.83 32.14,-80 91.05,-145.74 162.61,-199.57 78.2,-58.81 173.02,-105.36 276.78,-138.68"/>
  <path class="fil0 str0" d="M2061.66 5427.42c-26.49,-30.41 -54.99,-59.15 -85.38,-86.42"/>
  <path class="fil0 str0" d="M1976.28 5341c-4.37,1.37 -8.76,2.69 -13.17,3.96 -138.6,40.14 -293.72,39.57 -462.09,15.54 -42.44,-6.06 -85.8,-13.69 -130.09,-22.81"/>
  <path class="fil0 str0" d="M1370.93 5337.69c-15.98,74.54 -28.01,151.19 -35.1,230.49 -22.61,253.07 4.19,533.67 85.88,843.22 2.01,7.61 4.05,15.23 6.12,22.88"/>
  <path class="fil0 str0" d="M1427.83 6434.28c35.61,-84.54 77.93,-160.04 127.8,-226.15 30.44,-40.36 63.88,-76.88 99.65,-109.56"/>
  <path class="fil0 str0" d="M1141.7 5280.24c-48.87,-8.49 -98.61,-10.79 -148.06,-6.84"/>
  <line class="fil0 str0" x1="993.65" y1="5273.4" x2="889.76" y2= "5281.7" />
  <line class="fil0 str0" x1="889.76" y1="5281.7" x2="889.76" y2= "6394.28" />
  <line class="fil0 str0" x1="889.76" y1="6394.28" x2="1186.78" y2= "6664.73" />
  <path class="fil0 str0" d="M1186.78 6664.73c23.44,16.75 49.01,30.32 76.03,40.35"/>
  <path class="fil0 str0" d="M1262.81 6705.09c-6.53,-19.77 -12.88,-39.46 -19.05,-59.08 -114.6,-364.67 -165.04,-704.91 -149.03,-1016.27 6.24,-121.28 22.81,-237.95 46.96,-349.49"/>
  <path class="fil0 str0" d="M1852.59 5966.14c108.54,-51.81 223.4,-80.46 336.44,-104.87 28.34,-6.12 56.59,-12.03 84.73,-17.9"/>
  <path class="fil0 str0" d="M2273.76 5843.37c-21.11,-75.54 -46.45,-145.37 -76.69,-208.83"/>
  <path class="fil0 str0" d="M2197.07 5634.54c-110.02,27.68 -208.62,73.35 -272.64,122.19 -42.63,32.52 -68.59,65.12 -80.61,91.49 -10.92,23.97 -13.33,43.05 -8.23,69.74 2.64,13.83 8.06,29.99 16.99,48.19"/>
  <path class="fil0 str0" d="M2752.08 6671.19c-124.7,-88.67 -229.14,-215.27 -312.82,-372.54 -37.11,-69.75 -70.42,-145.61 -100.28,-227.53"/>
  <path class="fil0 str0" d="M2338.98 6071.13c-29.44,6.14 -58.39,12.14 -86.7,18.17 -106.87,22.76 -203.16,47.34 -284.57,83.87"/>
  <path class="fil0 str0" d="M1967.72 6173.17c36.62,78.93 73.64,149.11 110.74,210.38 82.52,136.27 165.37,226.84 241.48,278.27 69.96,47.28 133.23,64.22 201.08,64.01 63.25,-0.2 132.15,-17.72 201.82,-43.46 9.77,-3.61 19.52,-7.35 29.24,-11.18"/>
  <path class="fil0 str0" d="M2441.43 5603.33c24.66,60.46 45.52,123.58 63.25,188.8"/>
  <path class="fil0 str0" d="M2504.68 5792.13c23.09,-5.8 46.07,-11.88 68.96,-18.35 94.38,-26.7 187.34,-59.69 279.28,-99.82"/>
  <path class="fil0 str0" d="M2852.92 5673.96c-84.3,-29.99 -168.84,-50.5 -253.39,-61.46 -52.8,-6.85 -105.76,-9.85 -158.11,-9.17"/>
  <path class="fil0 str0" d="M3050.87 6559.83c19.13,-4.28 37.08,-7.52 53.22,-9.83 32.27,-4.61 55.37,-6.84 73.12,-10.8 19.61,-4.37 36.1,-10.09 62.74,-26.44 37.59,-23.07 92.64,-69.26 163.35,-145.74 65.33,-70.66 143.75,-166.22 234.3,-286.1"/>
  <path class="fil0 str0" d="M3637.59 6080.92c-162.67,-55.36 -328.54,-141.64 -492.57,-253.88 -9.13,-6.25 -18.26,-12.57 -27.38,-18.98"/>
  <path class="fil0 str0" d="M3117.65 5808.06c-145.61,77.51 -295.07,138.29 -445.18,182.99 -33.64,10.02 -67.31,19.19 -100.82,27.71"/>
  <path class="fil0 str0" d="M2571.65 6018.77c63.72,165.89 140.72,293 227.1,382.1 75.66,78.04 158.45,128.41 252.11,158.96"/>
  <path class="fil0 str0" d="M4855.22 4954.05c-92.57,-164.05 -153.98,-349.15 -184,-551.1"/>
  <path class="fil0 str0" d="M4671.23 4402.95c-152.73,-63.09 -308.93,-127.61 -463.7,-187.6 -156.83,-60.8 -312.72,-117.59 -467.23,-169.8"/>
  <path class="fil0 str0" d="M3740.29 4045.55c-58.67,3.61 -119.13,7.45 -182.2,10.56 -142.84,7.05 -297.82,9.37 -455.83,-5.23"/>
  <path class="fil0 str0" d="M3102.27 4050.88c-14.68,21.48 -27.65,42.43 -38.87,62.68 -36.29,65.48 -53.38,122.39 -54.92,169.86 -1.37,42.24 7.93,79.98 32.05,123.76 29.67,53.86 83.24,114.24 159.07,174.67 0.58,0.46 1.17,0.93 1.75,1.39"/>
  <path class="fil0 str0" d="M3201.34 4583.24c0.57,0.49 1.13,0.98 1.7,1.46 51.86,44.65 103.69,87.84 155.48,129.57 94.61,76.23 189.15,147.66 283.38,213.73"/>
  <path class="fil0 str0" d="M3641.9 4928c15.07,-0.35 30.57,-0.5 46.51,-0.44 104.02,0.35 228.43,9.86 368.02,24.18 147.43,15.12 311.19,35.06 454.52,40.57 109.77,4.22 205.62,-1.09 276.28,-17.19 25.91,-5.9 48.41,-13 68,-21.07"/>
  <path class="fil0 str0" d="M4988.72 5152.09c-49.04,25.48 -103.66,43.94 -162.1,56.21 -127.06,26.69 -275.61,25.22 -427.92,14.23 -112.28,-8.1 -225.17,-20.81 -328.87,-31.82"/>
  <path class="fil0 str0" d="M4069.83 5190.7c173.81,90.7 345.32,159.58 513.02,202.95 227.43,58.82 447.3,70.57 663.34,38.63"/>
  <path class="fil0 str0" d="M5246.19 5432.28c-24.09,-23.61 -48.07,-47.44 -71.87,-71.62 -64.83,-65.85 -127.79,-134.84 -185.59,-208.58"/>
  <path class="fil0 str0" d="M5011.27 5858.66c9.47,5.62 18.94,11.23 28.42,16.83"/>
  <path class="fil0 str0" d="M5039.69 5875.5c46.51,1.4 93.13,3.73 139.55,7.03 183.62,13.04 362.7,39.71 505.51,54.47 23.84,2.46 46.61,4.54 68.25,6.18"/>
  <path class="fil0 str0" d="M5753 5943.18c-69.43,-78.16 -140.92,-153.83 -214.37,-227.5 -28.03,-28.11 -56.4,-55.9 -84.98,-83.57"/>
  <path class="fil0 str0" d="M5453.65 5632.11c-242.68,59.04 -492.61,70.39 -745.69,29.15 -205.09,-33.42 -410.89,-101.02 -615.81,-196.14"/>
  <path class="fil0 str0" d="M4092.14 5465.12c13.94,64.8 22.72,127.25 25.2,187.67 3.81,92.85 -9.26,182.27 -44.75,260.04 -1.49,3.28 -3.03,6.53 -4.59,9.75"/>
  <path class="fil0 str0" d="M4067.99 5922.59c56.14,2.37 112.54,1.54 170.14,-1.51 152.75,-8.08 315.41,-30.56 491.4,-41.11 81.47,-4.89 165.76,-6.87 250.91,-5.75"/>
  <path class="fil0 str0" d="M5011.27 5858.66c-10.28,5.17 -20.56,10.35 -30.83,15.56"/>
  <path class="fil0 str0" d="M4490.58 6137.52c-244.78,139.41 -484.29,287.87 -718.02,445.09"/>
  <path class="fil0 str0" d="M4490.58 6137.52c-104.17,10.23 -208.72,20.08 -316.68,22.33 -93.2,1.94 -189.16,-2.76 -287.28,-17.81"/>
  <path class="fil0 str0" d="M3886.63 6142.04c-135.43,184.36 -249.43,324.46 -346.34,423.77 -9.96,10.21 -19.76,20.01 -29.41,29.41"/>
  <path class="fil0 str0" d="M3510.87 6595.21c15.63,-0.83 31.26,-1.73 46.85,-2.66 73.39,-4.37 145.55,-8.88 214.83,-9.94"/>
  <path class="fil0 str0" d="M3050.55 6804.74c-27.33,9.34 -59.85,22.35 -98.35,38.75 -79.02,33.65 -181.02,80.97 -299.09,104.72 -6.33,1.28 -12.72,2.47 -19.16,3.59"/>
  <path class="fil0 str0" d="M2119.78 7261.36c181.27,-85.81 353.52,-189.51 514.17,-309.57"/>
  <path class="fil0 str0" d="M2119.78 7261.36c104.68,44.68 210.52,88.29 314.62,123.97 152.34,52.2 299.72,85.88 433.95,87.74 151.06,2.09 285.96,-35.11 418.13,-112.03 112.55,-65.5 222.48,-160.2 331.78,-264.09 95.88,-91.15 190.74,-188.38 291.07,-273.33"/>
  <path class="fil0 str0" d="M3909.32 6823.61c-69.02,-7.44 -157.6,-5.72 -260.25,0.15 -152.98,8.73 -335.58,25.35 -517.33,-2.96 -27.13,-4.23 -54.24,-9.56 -81.19,-16.06"/>
  <path class="fil0 str0" d="M1818 7133.38c159.7,-60.75 313.45,-136.11 459.29,-225.14"/>
  <path class="fil0 str0" d="M2277.28 6908.24c-69.47,-32.44 -136.23,-79.51 -198.36,-139.83 -112.28,-109 -212.33,-260.27 -305.69,-453.83"/>
  <path class="fil0 str0" d="M1773.23 6314.58c-19.94,22.69 -38.88,47.85 -57.03,75.93 -71.51,110.65 -128.22,267.47 -164.31,469.8"/>
  <path class="fil0 str0" d="M1451.43 6956.61c43.86,-19.15 79.47,-53.29 100.46,-96.3"/>
  <path class="fil0 str0" d="M1049.44 6856.92c116.42,83.19 260.19,118.85 401.99,99.69"/>
  <line class="fil0 str0" x1="1049.44" y1="6856.92" x2="889.76" y2= "6703.22" />
  <line class="fil0 str0" x1="889.76" y1="6703.22" x2="889.76" y2= "7064.03" />
  <line class="fil0 str0" x1="889.76" y1="7064.03" x2="1008.96" y2= "7001.03" />
  <path class="fil0 str0" d="M1008.96 7001.03c105.54,-28.12 221.62,-29.27 345.9,-9.25 142.84,23.01 297.98,75.02 463.13,141.6"/>
  <path class="fil0 str0" d="M6029.54 2165.16c-38.13,-15.26 -77.58,-31.74 -118.88,-49.42 -171.04,-73.26 -373.59,-167.87 -616.05,-284.27 -68.36,-32.82 -139.77,-67.36 -214.25,-103.62"/>
  <path class="fil0 str0" d="M5080.36 1727.85c-216.27,51.07 -423.64,118.98 -610.3,201.27 -57.9,25.53 -113.59,52.37 -167.57,80.36"/>
  <path class="fil0 str0" d="M4302.5 2009.48c14.42,27.46 30.3,54.17 47.68,80.2 63.2,94.61 147.84,179.75 251.08,262.87 97.65,78.63 211.13,155.3 313.84,244.88 57.19,49.87 110.64,104.61 155.52,165.04"/>
  <path class="fil0 str0" d="M5070.63 2762.46c20.5,-42.64 44.72,-83.2 72.99,-120.75 60.94,-80.95 140.8,-146.01 226.62,-191.79 108.29,-57.77 223.74,-86.89 319.78,-111.28 74.25,-18.85 135.86,-35.4 181.87,-55.22 53.65,-23.1 89.08,-49.19 133.73,-93.6 7.72,-7.67 15.67,-15.91 23.92,-24.67"/>
  <path class="fil0 str0" d="M6204.62 1979.19c66.8,-65.11 146.28,-134.18 235.15,-200.57 86.81,-64.85 181.99,-127.29 277.52,-183.88"/>
  <path class="fil0 str0" d="M6717.3 1594.74c-3.87,0.07 -7.74,0.14 -11.61,0.2 -212.97,3.6 -430.66,3.62 -638.42,11.15 -206.17,7.47 -403.39,22.61 -594.28,48.94"/>
  <path class="fil0 str0" d="M5472.99 1655.02c128.94,61.54 245.93,116.28 351.08,164.05 148.45,67.45 272.54,120.75 380.55,160.11"/>
  <path class="fil0 str0" d="M5937.97 3429.4c42.77,-21.63 87.03,-41.82 133.37,-59.75 99.22,-38.39 207.44,-66.14 327.04,-85.75"/>
  <path class="fil0 str0" d="M6398.38 3283.9c-81.42,-100.67 -164.43,-210.68 -249.24,-331.41 -90.82,-129.3 -183.33,-269.55 -277.34,-418.31"/>
  <path class="fil0 str0" d="M5871.8 2534.17c-81.72,25.08 -167.16,42.48 -246.86,66.86 -81.2,24.83 -153.89,56.56 -211.43,100.77 -62.26,47.83 -109.81,111.19 -143.58,192.97 -27.58,66.79 -44.75,145.15 -52.45,226.94"/>
  <path class="fil0 str0" d="M5217.48 3121.71c17.27,3.55 34.06,7.04 50.36,10.46 137.94,28.97 245.38,54.56 349.21,97.37 110.95,45.75 215.64,111.72 320.91,199.85"/>
  <path class="fil0 str0" d="M6679.94 3252.67c139.11,-9.84 290.39,-14.52 449.44,-18.04 223.41,-4.94 460.57,-8.12 684.86,-12.09 47.47,-0.84 94.3,-1.72 140.36,-2.53"/>
  <path class="fil0 str0" d="M7954.61 3220c-53.08,-84.55 -103.1,-162.61 -149.35,-232.67 -17.24,-26.11 -34.02,-51.26 -50.38,-75.51"/>
  <path class="fil0 str0" d="M7754.89 2911.83c-128.55,13.35 -259.41,-0.16 -384.3,-47.55 -165.57,-62.82 -318.26,-181.96 -459.06,-349.88 -50.93,-60.74 -100.49,-127.96 -148.92,-201.63"/>
  <path class="fil0 str0" d="M6762.61 2312.77c-89.33,-0.03 -172.58,-4.56 -250.65,-14.17 -83.02,-10.22 -160.84,-26.44 -239.43,-48.72"/>
  <path class="fil0 str0" d="M6272.52 2249.87c-44.41,49.06 -85.57,95.97 -134.44,139.73 -16.28,14.57 -33.57,28.56 -51.78,41.76"/>
  <path class="fil0 str0" d="M6086.31 2431.35c66.43,104.63 131.89,204.53 196.08,298.58 138.59,203.07 270.6,375.27 397.56,522.73"/>
  <path class="fil0 str0" d="M7897.77 1464.25c-75.93,11.03 -149.97,25.52 -228.41,40.54 -92.57,17.72 -191.55,35.42 -298.8,49.53"/>
  <path class="fil0 str0" d="M7370.56 1554.32c-18.41,4.72 -38.63,10.62 -60.37,17.85 -95.04,31.63 -221.78,87.55 -357.94,160.95 -141.93,76.51 -291.39,171.54 -413.56,267.2 -22.95,17.97 -44.9,35.92 -65.88,53.77"/>
  <path class="fil0 str0" d="M6472.8 2054.1c45.14,7.92 91.64,13.57 142.17,17.29 86.18,6.35 184.91,6.82 292.28,1.33 127.27,-6.5 265.28,-21.6 379.56,-45.21 86.17,-17.81 157.27,-40.71 204.76,-64.77 40.1,-20.31 63.61,-39.69 84.33,-63.56 21.02,-24.21 40.13,-56.16 64.76,-99.05 33.91,-59.05 78.78,-134.72 143.92,-213.75 32.7,-39.68 70.39,-80.39 113.19,-122.14"/>
  <path class="fil0 str0" d="M8628.17 2328.67c-74.74,-28.22 -153.86,-52.82 -237.41,-73.38 -232.5,-57.22 -498.31,-84.24 -793.56,-81.27"/>
  <path class="fil0 str0" d="M7597.2 2174.02c-86.8,43.74 -192.83,72.78 -309.81,93.97 -78.96,14.31 -162.19,24.86 -244.69,32.13"/>
  <path class="fil0 str0" d="M7042.7 2300.11c55.65,73.1 111.43,135 166.81,185.78 108.24,99.26 213.3,155.7 319.34,180.2 106.58,24.63 217.49,17.4 340.85,-16.15 128.45,-34.93 268.59,-99.03 415.12,-168.29 111.19,-52.56 226.22,-106.98 343.35,-152.99"/>
  <path class="fil0 str0" d="M8280.76 1447.91c-124.35,94.56 -218.82,180.5 -286.34,256.54 -57.83,65.14 -95.68,122.16 -128.91,178.75 -11.25,19.16 -22.08,38.68 -33.66,58.59"/>
  <path class="fil0 str0" d="M7831.85 1941.78c17.05,0.77 34,1.64 50.87,2.62 336.18,19.53 638.69,82.2 898.18,190.44 66.95,27.93 130.89,58.96 191.69,92.44"/>
  <path class="fil0 str0" d="M8972.59 2227.29c91,-16.67 181.38,-25.12 269.04,-25.8 162.74,-1.25 315.49,22.39 452.06,44.51 132.48,21.46 249.8,39.81 352.48,42.63 54.09,1.48 104.16,-1 150.84,-7.43"/>
  <path class="fil0 str0" d="M10197.02 2281.2c-71.98,-90.69 -152.43,-172.52 -256.32,-252.09 -98.83,-75.69 -220.26,-149.52 -364.55,-219.84 -163.1,-79.49 -354.59,-153.96 -549.33,-214.02 -206.21,-63.59 -413.73,-110.07 -593.87,-132.96 -53.12,-6.75 -103.78,-11.47 -152.19,-14.37"/>
  <path class="fil0 str0" d="M11645.96 1813.86c-17,-13.56 -35.69,-26.39 -56.18,-38.61 -99.34,-59.21 -240.44,-99.22 -394.19,-121.84 -153.14,-22.52 -316.51,-29.35 -473.78,-29.98 -201.19,-0.8 -393.23,8.13 -576.62,14.01 -127.28,4.09 -251.43,6.63 -373.85,6.13"/>
  <path class="fil0 str0" d="M9771.34 1643.58c114.27,60.64 216.39,124.81 305.21,192.08 128.33,97.2 229.28,201.33 315.98,312.23"/>
  <path class="fil0 str0" d="M10392.54 2147.89c107.29,-133.48 237.16,-239.54 391.09,-305.43 138.17,-59.14 293.58,-83.98 458.35,-80.79 128.61,2.49 263.25,20.72 403.98,52.19"/>
  <path class="fil0 str0" d="M11567.67 3046.17c8.83,-38.97 19.57,-79.57 31.87,-121.78 38.87,-133.37 92.57,-284.36 132.8,-433.07 33.58,-124.15 56.35,-245.47 56.37,-346.77 0.01,-17.17 -0.61,-33.72 -1.83,-49.65"/>
  <path class="fil0 str0" d="M11786.89 2094.89c-268.13,-79.56 -506.25,-112.8 -697.34,-90.37 -168.83,19.81 -300.76,81.9 -417.02,188.46 -49.07,44.98 -95.05,97.91 -137.74,158.57"/>
  <path class="fil0 str0" d="M10534.79 2351.56c58.55,92.2 114.24,189.55 172.34,293.87 88.03,158.07 180.87,332.3 281.3,524.26"/>
  <path class="fil0 str0" d="M10988.42 3169.7c114.46,-14.82 246.57,-39.05 381.85,-71.2 66.16,-15.72 132.52,-33.26 197.4,-52.33"/>
  <path class="fil0 str0" d="M11837.35 2953.78c140.36,-56.32 259.08,-119.38 354.09,-186.88"/>
  <line class="fil0 str0" x1="12191.44" y1="2766.9" x2="12889.76" y2= "2312.01" />
  <line class="fil0 str0" x1="12889.76" y1="2312.01" x2="12889.76" y2= "2170.38" />
  <line class="fil0 str0" x1="12889.76" y1="2170.38" x2="12024.58" y2= "2170.38" />
  <path class="fil0 str0" d="M12024.58 2170.38c-3.35,127.27 -30.57,258.72 -64.96,385.39 -39.22,144.43 -86.85,282.08 -122.26,398.01"/>
  <line class="fil0 str0" x1="12302.09" y1="3323.84" x2="12889.76" y2= "2831.42" />
  <line class="fil0 str0" x1="12889.76" y1="2831.42" x2="12889.76" y2= "2626.97" />
  <line class="fil0 str0" x1="12889.76" y1="2626.97" x2="12328.25" y2= "2959.47" />
  <path class="fil0 str0" d="M12328.25 2959.47c-123.44,87.7 -272.37,163.89 -442.91,229.21 -35.05,13.42 -71.06,26.39 -107.75,38.85"/>
  <path class="fil0 str0" d="M11777.59 3227.54c-3.94,65.57 4.78,109.02 20.57,160.72 14.54,47.6 35.89,102.23 54.55,165.19 8.73,29.46 16.77,60.52 23.89,93.02"/>
  <path class="fil0 str0" d="M11876.6 3646.47c9.65,-6.65 19.26,-13.31 28.81,-19.98 143.98,-100.43 277.26,-202.59 396.68,-302.66"/>
  <line class="fil0 str0" x1="12057.12" y1="6447.36" x2="11948.86" y2= "6645.86" />
  <path class="fil0 str0" d="M11948.86 6645.86c120.98,-32.71 240.93,-60.45 353.79,-77.83 168.28,-25.92 319.92,-28.3 452.76,-1.78"/>
  <line class="fil0 str0" x1="12755.41" y1="6566.26" x2="12889.76" y2= "6618.75" />
  <line class="fil0 str0" x1="12889.76" y1="6618.75" x2="12889.76" y2= "3060.04" />
  <line class="fil0 str0" x1="12889.76" y1="3060.04" x2="12453.81" y2= "3504.9" />
  <path class="fil0 str0" d="M12453.81 3504.9c-125.38,105.06 -263.88,211.18 -413.92,315.8 -7.08,4.94 -14.19,9.87 -21.32,14.81"/>
  <path class="fil0 str0" d="M12018.57 3835.51c68.04,39.69 131.09,81.57 189.08,125.83 172.55,131.69 300.3,285.96 375.46,458.78 69.51,159.81 92.59,333.7 79.04,506.84 -16.99,217.28 -89.99,433.37 -181.45,630.9 -93.22,201.35 -204.99,382.47 -288.85,541.29 -64.18,121.54 -110.93,230.2 -131.2,330.7 -1.18,5.83 -2.35,11.67 -3.54,17.51"/>
  <path class="fil0 str0" d="M11541.95 3298.72c-56.38,15.11 -113.04,29.02 -169.12,41.63 -130.28,29.3 -255.56,51.36 -368.3,65.42"/>
  <path class="fil0 str0" d="M11004.54 3405.77c-38.26,99.56 -66.32,194.4 -81.34,281.66 -15.32,89.06 -17.41,172.35 -9.3,252.43"/>
  <path class="fil0 str0" d="M10913.9 3939.86c54.54,37.58 100.72,57.81 146.15,66.6 45.86,8.87 94.38,6.87 154.26,-7.35 86.41,-20.52 193.38,-67.96 306.12,-129.83 46.57,-25.56 93.94,-53.29 141.39,-82.44"/>
  <path class="fil0 str0" d="M11661.81 3786.84c-7.47,-53.92 -17.69,-102.52 -30.24,-147.68 -16.01,-57.56 -36.81,-109.82 -57.14,-174.82 -14.82,-47.4 -28.16,-102.73 -32.48,-165.61"/>
  <path class="fil0 str0" d="M10746.95 3424.7c-43.59,0.73 -85.92,0.12 -127.89,-1.61 -81.72,-3.37 -163.56,-10.46 -254.33,-19.61"/>
  <path class="fil0 str0" d="M10364.72 3403.48c101.83,96.52 202.24,207.38 297.32,306.61 5.77,6.02 11.52,12 17.24,17.91"/>
  <path class="fil0 str0" d="M10679.28 3728c2.26,-21.89 5.16,-43.94 8.71,-66.16 12.52,-78.18 32.72,-157.18 58.95,-237.14"/>
  <path class="fil0 str0" d="M9152.98 3506.15c95.07,108.43 167.18,241.75 234.58,383.53 14.73,30.99 29.27,62.39 43.69,94.11"/>
  <path class="fil0 str0" d="M9431.25 3983.79c185.09,46.12 374.93,68.63 572.31,60.9 180.04,-7.05 369,-39.78 564.71,-92.59"/>
  <path class="fil0 str0" d="M10568.27 3952.1c-51.43,-51.15 -102.59,-105.5 -153.76,-159.77 -100.91,-107.04 -200.36,-211.81 -291.44,-288.47 -75.41,-63.47 -144.28,-107.48 -210.46,-133.8 -24.78,-9.85 -49.45,-17.54 -74.65,-23.14"/>
  <path class="fil0 str0" d="M9837.96 3346.92c-34.45,-3.74 -69.82,-7.58 -106.15,-11.51"/>
  <path class="fil0 str0" d="M9731.82 3335.41c-19.09,-0.1 -38.82,0.73 -59.4,2.46 -138.09,11.64 -312.27,67.61 -519.44,168.27"/>
  <path class="fil0 str0" d="M10731.61 3188.74c-61.66,-117.06 -120.39,-226.98 -176.44,-329.63 -73.78,-135.13 -142.24,-257.36 -211.23,-367.12"/>
  <path class="fil0 str0" d="M10343.94 2491.99c-95.3,25.52 -197.39,35.67 -303.61,32.79 -151.02,-4.08 -310.39,-35.04 -472.45,-59.48 -94.5,-14.25 -189.74,-25.26 -286.07,-27.19"/>
  <path class="fil0 str0" d="M9281.8 2438.12c3.65,3.04 7.28,6.08 10.89,9.13 156.6,132.33 277.59,273.8 369.34,400.49 67.09,92.64 118.85,177.92 157.32,257.19"/>
  <path class="fil0 str0" d="M9819.34 3104.93c16.89,2.04 33.67,4.63 50.33,7.81"/>
  <path class="fil0 str0" d="M9869.67 3112.73c219.04,23.74 399.27,44.12 546.69,58.39 109.09,10.57 199.59,17.55 292.66,17.72 7.49,0.01 15.02,-0.02 22.59,-0.1"/>
  <path class="fil0 str0" d="M8231.15 3217.25c40.41,0.1 79.91,0.52 118.39,1.37 172.53,3.82 326.31,16.74 463.69,61.71 49.31,16.15 96.32,36.83 140.49,61.83"/>
  <path class="fil0 str0" d="M8953.72 3342.17c68.13,-35.66 134,-67.57 197.72,-95.69 144.82,-63.91 278.14,-109.04 404.76,-131.37"/>
  <path class="fil0 str0" d="M9556.21 3115.11c-31.82,-53.16 -71.31,-111.5 -118.67,-173.33 -107.09,-139.84 -253.67,-296.15 -442.67,-424.52 -20.04,-13.61 -40.58,-26.89 -61.61,-39.83"/>
  <path class="fil0 str0" d="M8933.26 2477.42c-60.12,14.96 -121.21,34.12 -183.54,57.34 -161.18,60.04 -329.53,146.93 -502.35,224.72 -80.58,36.27 -162.31,70.25 -245.26,97.28"/>
  <path class="fil0 str0" d="M8002.11 2856.76c69.55,105.45 146.54,226.99 229.04,360.49"/>
  <path class="fil0 str0" d="M8233.36 3453.45c-50.38,75.91 -119.28,145.08 -200.8,209.2 -102.27,80.44 -226.17,153.67 -338.22,224.08 -67.02,42.12 -128.5,83.22 -179.83,122.64"/>
  <path class="fil0 str0" d="M7514.51 4009.37c42.74,40.56 86.83,82.13 132.23,124.41 113.21,105.43 233.39,215.69 365.87,304.13 52.85,35.28 108.02,66.72 165.87,94.73"/>
  <path class="fil0 str0" d="M8178.47 4532.63c9.19,-8.7 18.58,-17.22 28.34,-25.59 41.64,-35.69 89.52,-66.2 146.37,-94.7 58.26,-29.2 128.27,-58.68 210.25,-92.37 107.09,-44 233.69,-94.62 349.18,-143.28 120.25,-50.66 225.79,-98.65 287.14,-131.3"/>
  <path class="fil0 str0" d="M9199.75 4045.41c-21.69,-47.03 -43.35,-92.25 -65.22,-135.03 -58.17,-113.78 -118.1,-207.98 -183.61,-274.89 -68.9,-70.36 -142.77,-113.31 -246.54,-141.16 -91.42,-24.54 -206.91,-35.59 -344.83,-39.17 -40.27,-1.05 -82.43,-1.57 -126.18,-1.71"/>
  <path class="fil0 str0" d="M6145.59 3594.27c56.62,40.87 115.26,80.82 175.75,119.69 118.75,76.28 245.52,148.88 368.32,209.03 120.19,58.87 236.61,104.53 316.54,121.53 43.39,9.23 74.36,9.73 92.66,6.66 17.63,-2.96 26.05,-6.83 43.02,-19.8 18.04,-13.79 43.86,-40.58 78.16,-75.34 43.55,-44.14 101.55,-97.59 169.24,-148.23 76.89,-57.52 166.03,-113.01 251.94,-166.26 100.84,-62.5 194.9,-122.61 265.56,-180.89 1.51,-1.24 3.01,-2.49 4.5,-3.73"/>
  <path class="fil0 str0" d="M7911.29 3456.94c-53.72,0.99 -108.53,2.06 -164.06,3.04 -248.74,4.39 -510.22,7.27 -744.25,14.16 -192.15,5.66 -364.81,14.83 -508.81,34.15 -133.81,17.95 -242.86,44.68 -340.89,82.94 -2.57,1 -5.13,2.01 -7.69,3.03"/>
  <path class="fil0 str0" d="M7340.71 4170.22c-20.9,20.72 -43.76,41.58 -71.9,60.81"/>
  <path class="fil0 str0" d="M7268.81 4231.03c16.28,113.68 43.38,218.16 80.61,311.62 40.71,102.19 94.54,191.57 153,252 41.47,42.87 83.34,69.44 123.98,81.15 38.67,11.14 78.95,10.83 128.92,-4.8 49.22,-15.39 106.38,-47.42 160.79,-88.24 30.79,-23.1 60.35,-48.47 88.1,-74.19"/>
  <path class="fil0 str0" d="M8004.2 4708.58c-35.41,-19.3 -69.93,-39.78 -103.19,-61.34 -128.84,-83.5 -239.7,-180.01 -340.13,-271.37 -78.33,-71.25 -151.17,-139.96 -220.17,-205.65"/>
  <path class="fil0 str0" d="M7168 4716.49c-8.08,-16.69 -15.81,-33.62 -23.23,-50.77 -50.28,-116.24 -85.31,-242.8 -106.32,-377.73"/>
  <path class="fil0 str0" d="M7038.45 4287.98c-57.56,-4.33 -116.88,-18.87 -179.08,-38.92 -145.15,-46.78 -306.7,-125.73 -462.17,-213.57 -166.92,-94.31 -326.07,-199.5 -471.06,-309.89 -4.94,-3.77 -9.88,-7.54 -14.8,-11.32"/>
  <path class="fil0 str0" d="M5911.35 3714.28c-16.54,9.85 -33.28,19.99 -50.32,30.39 -104.1,63.54 -219.62,135.47 -354.26,192.21 -5.86,2.46 -11.75,4.9 -17.68,7.3"/>
  <path class="fil0 str0" d="M5489.08 3944.19c126.91,152.84 255.81,290.39 387.19,413.07 29.61,27.65 59.37,54.52 89.31,80.75"/>
  <path class="fil0 str0" d="M5965.59 4438.02c61.07,0.39 126.84,2.82 195.87,8.53 141.51,11.71 295.48,37.19 435.67,72.86 127.98,32.57 243.14,73.53 337.08,110.55 97.19,38.3 172.48,70.31 232.5,86.19 0.43,0.11 0.86,0.22 1.3,0.34"/>
  <path class="fil0 str0" d="M5245.62 4019.41c-37.7,8.33 -76.04,15.37 -114.83,21.02 -157.56,22.94 -321.54,24.18 -474.56,18.48 -80.89,-3.01 -158.33,-7.61 -231.76,-12"/>
  <path class="fil0 str0" d="M4424.46 4046.91c36.22,14.43 72.41,28.99 108.52,43.67 181.98,73.97 362.48,151.13 524.44,214.46 131.16,51.29 248.39,91.91 345.61,114.93 77.87,18.44 142.17,25.95 208.2,27.25 5.96,0.12 11.95,0.19 18,0.2"/>
  <path class="fil0 str0" d="M5629.22 4447.42c-130.79,-129.27 -258.57,-271.99 -383.6,-428"/>
  <path class="fil0 str0" d="M5342.55 3747.18c4.75,-1.66 9.48,-3.35 14.18,-5.06 129.77,-47.31 244.06,-115.36 360.02,-186.12"/>
  <path class="fil0 str0" d="M5716.75 3556c-30.15,-21.98 -59.69,-41.3 -88.71,-58.13 -92.97,-53.92 -179.25,-82.73 -315.3,-114.07 -28.33,-6.53 -58.87,-13.22 -91.59,-20.13"/>
  <path class="fil0 str0" d="M5221.16 3363.67c13.56,112.3 42.51,217.17 83.7,308.94 11.57,25.78 24.14,50.63 37.69,74.57"/>
  <path class="fil0 str0" d="M4979.3 3315.38c-161.39,-31.1 -352.8,-66.13 -538.22,-87.83 -141.97,-16.61 -278.63,-24.45 -397.15,-19.75 -17.35,0.69 -34.29,1.64 -50.87,2.83"/>
  <path class="fil0 str0" d="M3993.06 3210.63c-55.97,129.54 -96.72,251.78 -117.31,361.83 -15.23,81.44 -19.65,157.4 -15.5,229.82"/>
  <path class="fil0 str0" d="M3860.26 3802.29c83.04,-3.9 166.26,-6.2 252.61,-5.17 121.64,1.45 250.74,9.56 388.78,17.6 164.43,9.58 340.74,17.29 504.68,2.53 33.95,-3.06 67.26,-7.09 99.86,-12.11"/>
  <path class="fil0 str0" d="M5106.19 3805.14c-48.52,-98.84 -83.84,-206.87 -105.5,-322.01 -10.25,-54.48 -17.55,-110.66 -21.4,-167.75"/>
  <path class="fil0 str0" d="M3325.37 3825.41c101.35,0.81 201.39,-3.81 299.08,-9.52"/>
  <path class="fil0 str0" d="M3624.44 3815.89c-5.3,-93.21 0.74,-190.29 19.87,-290.86 16.83,-88.45 42.97,-178.37 76.49,-269.93"/>
  <path class="fil0 str0" d="M3720.8 3255.09c-85.12,21.1 -168.88,46.33 -264.79,63.14 -42.61,7.47 -87.48,12.81 -134.59,15.41"/>
  <path class="fil0 str0" d="M3321.43 3333.65c-2.3,13.39 -2.91,28.99 -1.34,48.7 2.77,34.73 14.2,81.86 26.23,138.79 12,56.79 23.95,124.43 13.23,197.22 -5.33,36.21 -16.95,72.75 -34.18,107.06"/>
  <path class="fil0 str0" d="M9548.72 4249.69c22.02,50.22 44.32,100.68 67.19,151.11 80.27,177 167.03,354.01 262.31,529.87"/>
  <path class="fil0 str0" d="M9878.22 4930.66c16.28,-4.61 32.63,-9.51 49.07,-14.69 130.54,-41.13 264.5,-100.36 385.12,-167.57 110.5,-61.57 208.32,-128.89 290.79,-189.93 71.53,-52.94 131.3,-101.84 198.54,-140.77 47.19,-27.32 100.43,-49.23 158.19,-56.85 63.72,-8.41 128.78,0.85 191.57,19.82 88.55,26.75 177.47,72.06 266.03,120.72 110.4,60.66 217.17,125.17 302.7,171.92 81.85,44.74 146.11,74.02 181.24,85.03"/>
  <line class="fil0 str0" x1="11901.46" y1="4758.35" x2="12396.41" y2= "4595.04" />
  <path class="fil0 str0" d="M12396.41 4595.04c-38.04,-126.24 -109.96,-242.62 -222.54,-351.96 -96.11,-93.34 -222.31,-180.87 -379.2,-260.54"/>
  <path class="fil0 str0" d="M11794.67 3982.53c-58.46,36.12 -117.56,70.65 -176.61,102.56 -125.01,67.56 -248.15,123.31 -371.82,148.89 -87.29,18.05 -176.86,19.5 -262.95,-2.8 -70.9,-18.37 -137.43,-51.83 -201.26,-95.42"/>
  <path class="fil0 str0" d="M10782.02 4135.75c-259.57,81.3 -514.41,134.25 -762.63,144.71 -161.23,6.8 -318.01,-4.57 -470.67,-30.78"/>
  <path class="fil0 str0" d="M11682.09 5341.28c144.3,8.37 289.87,44.84 433.75,101.41 43.67,17.17 87.28,36.15 130.92,56.85"/>
  <path class="fil0 str0" d="M12246.76 5499.55c35.5,-73.57 68.07,-148.33 95.36,-223.74 59.82,-165.32 93.39,-331.81 86.76,-484.23 -0.22,-4.96 -0.47,-9.92 -0.77,-14.85"/>
  <line class="fil0 str0" x1="12428.12" y1="4776.72" x2="11969.61" y2= "4928.02" />
  <path class="fil0 str0" d="M11969.61 4928.02c-90.96,165.22 -186.51,302.82 -287.52,413.26"/>
  <path class="fil0 str0" d="M11696.51 4927.54c-18.26,-9.05 -37.26,-18.87 -57.12,-29.42 -75.93,-40.35 -164.16,-92.34 -254.56,-144.08 -90,-51.51 -181.4,-101.37 -253.85,-130.31"/>
  <path class="fil0 str0" d="M11130.98 4623.73c-24.86,106.24 -59.21,209.09 -102.47,307.32 -51.83,117.7 -117.34,228.57 -180.1,327.4 -55.3,87.1 -106.83,165.43 -136.9,227.83 -21.8,45.22 -31.53,80.66 -32.81,105.38 -0.45,8.68 -0.23,16.23 0.81,23.29"/>
  <path class="fil0 str0" d="M10679.5 5614.95c59.54,-33.65 119.86,-60.74 178.63,-82.71 93.83,-35.07 182.42,-59.27 264.67,-89.89"/>
  <line class="fil0 str0" x1="11122.81" y1="5442.36" x2="11153.48" y2= "5430.49" />
  <path class="fil0 str0" d="M11153.48 5430.49c106.57,-42.94 205.25,-101.05 306.04,-198.75 78.91,-76.48 158.34,-177.24 236.98,-304.2"/>
  <path class="fil0 str0" d="M11873.1 6229.16c58.06,-159.5 149.93,-314.11 240.84,-477.05 7.93,-14.2 15.84,-28.48 23.74,-42.83"/>
  <path class="fil0 str0" d="M12137.68 5709.28c-35.82,-16.81 -71.31,-32.17 -106.41,-46.02 -130.89,-51.65 -255.01,-81.45 -373.91,-86.74 -127.22,-5.66 -252.19,15.63 -377.29,59.08"/>
  <line class="fil0 str0" x1="11280.06" y1="5635.6" x2="11055.18" y2= "6060.38" />
  <path class="fil0 str0" d="M11873.1 6229.16c-252.47,-128.89 -535.06,-187.2 -817.92,-168.78"/>
  <line class="fil0 str0" x1="11688.26" y1="6630.31" x2="11786.42" y2= "6450.36" />
  <path class="fil0 str0" d="M11786.42 6450.36c-162.43,-86.54 -340.97,-138.62 -524.45,-153"/>
  <path class="fil0 str0" d="M11261.96 6297.36c116.66,70.8 222.39,146.11 315.76,227.23 39.21,34.07 76.12,69.32 110.54,105.72"/>
  <path class="fil0 str0" d="M11505.18 6780.5c-23.24,-23.85 -48.11,-47.45 -74.67,-70.84 -148.56,-130.85 -346.37,-253.44 -581.08,-366.2"/>
  <path class="fil0 str0" d="M10849.43 6343.47c-143.99,85.67 -277.56,154.08 -401.85,200.48 -82.91,30.95 -162.13,52.26 -238.53,57.94"/>
  <path class="fil0 str0" d="M10209.06 6601.89c-189.62,115.99 -393.8,223.29 -615.77,318.37"/>
  <path class="fil0 str0" d="M9593.29 6920.26c103.5,1.67 208,1 314.98,-1.32 200.28,-4.35 410.29,-15.46 641.42,-19.55 172.81,-3.06 357.92,-2.1 545.81,15.99 2.85,0.28 5.7,0.56 8.54,0.83"/>
  <path class="fil0 str0" d="M11104.05 6916.21c6.35,-2.22 12.73,-4.44 19.12,-6.66 120.84,-42.04 248.52,-85.58 382.01,-129.04"/>
  <line class="fil0 str0" x1="10753.35" y1="6125.65" x2="10952.67" y2= "5749.16" />
  <path class="fil0 str0" d="M10952.67 5749.16c-3.06,1.11 -6.1,2.23 -9.13,3.35 -82.38,30.6 -156.5,67.31 -232.9,122.84 -71.65,52.08 -145.72,121.85 -226.5,201.45 -94.96,93.57 -199.45,198.78 -319.32,286.8 -1.58,1.16 -3.17,2.32 -4.75,3.47"/>
  <path class="fil0 str0" d="M10160.06 6367.07c5.75,0.16 11.81,0.13 18.22,-0.1 48.75,-1.72 116.93,-17.46 197.74,-48.52 107.78,-41.42 236.33,-107.74 377.34,-192.81"/>
  <path class="fil0 str0" d="M10880.7 4647.58c-19.19,13.13 -40.63,28.72 -64.39,46.49 -85.58,64 -201.7,151.52 -339.2,232.24 -136.41,80.08 -292.78,153.5 -448.7,205.22 -36.54,12.12 -72.99,23.02 -109.19,32.78"/>
  <path class="fil0 str0" d="M9919.23 5164.31c-29.25,122.72 -72.65,231.95 -132.33,325.8 -22.03,34.64 -46.4,66.98 -72.64,96.98"/>
  <path class="fil0 str0" d="M9714.26 5587.09c43.63,19.96 86.83,39.33 129.53,58.06 187.62,82.27 364.43,150.11 533.31,206.48"/>
  <path class="fil0 str0" d="M10377.09 5851.62c34.44,-32.96 69.2,-65.15 104.58,-95.55"/>
  <path class="fil0 str0" d="M10481.68 5756.07c-20.44,-38.96 -33.71,-81.62 -37.85,-125.22 -6.29,-66.37 7.68,-131.94 31.22,-192.86 36.85,-95.37 95.98,-184.14 154.48,-275.63 64.17,-100.37 126.69,-202.72 175.36,-309.89 30.14,-66.37 55.44,-134.59 75.81,-204.88"/>
  <path class="fil0 str0" d="M10187.17 6036.01c-117.22,-41.72 -238.04,-88.76 -362.83,-141.92 -101.68,-43.32 -205.52,-90.19 -311.27,-139.96"/>
  <path class="fil0 str0" d="M9513.07 5754.13c-99.56,60.08 -203.59,100.22 -293.06,139.63 -83.28,36.68 -152.94,73 -207.06,116.27 -39.29,31.42 -71.67,66.37 -98.35,107.05"/>
  <path class="fil0 str0" d="M8914.59 6117.07c17.73,13.28 34.38,27.69 50.49,42.54 58.53,53.98 112.73,116.69 169.91,169.07 56.06,51.35 112.72,90.74 171.27,112.02 65.52,23.81 135.55,28.41 224.26,5.94 94.41,-23.91 208.36,-80.83 336.7,-174.81 32.61,-23.88 65.21,-47.76 97.81,-71.63"/>
  <line class="fil0 str0" x1="9965.04" y1="6200.2" x2="9971.87" y2= "6210.06" />
  <path class="fil0 str0" d="M9971.87 6210.06c1.79,-1.17 3.57,-2.34 5.35,-3.52 72.2,-47.73 141.62,-106.67 209.96,-170.54"/>
  <path class="fil0 str0" d="M9538.33 6686.49c-95.83,17.12 -189.91,13.09 -275.76,-11.72 -103.97,-30.04 -193.44,-89.52 -266.78,-153.66 -74.58,-65.24 -134.91,-134.6 -181.38,-178.95 -27.85,-26.58 -50.19,-43.2 -63.17,-49.9 -11.5,-5.93 -14.3,-6.16 -22.24,-6.08 -8.31,0.09 -25.14,3.13 -52.93,12.13 -45.16,14.63 -116.29,42.8 -205.47,55.93 -40.74,6 -85.07,8.87 -131.7,7.98"/>
  <line class="fil0 str0" x1="8338.91" y1="6362.23" x2="8300.04" y2= "6354.87" />
  <path class="fil0 str0" d="M8300.04 6354.87c-269.33,-100 -491.9,-168.36 -660.92,-201.19 -101.04,-19.63 -181.89,-26.17 -247.17,-21.5 -1.17,0.08 -2.32,0.17 -3.48,0.26"/>
  <path class="fil0 str0" d="M7388.47 6132.44c162.03,74.81 322.36,167.03 480.89,273.65 142.65,95.95 284.17,203.34 424.97,321.35"/>
  <path class="fil0 str0" d="M8294.33 6727.44c36.13,5.25 73.3,11 111.59,17.35 188.75,31.28 404.14,76.87 621.87,136.83"/>
  <path class="fil0 str0" d="M9027.8 6881.62c135.19,-45.41 265.98,-93.41 390.97,-144.43 40.5,-16.53 80.35,-33.44 119.57,-50.7"/>
  <path class="fil0 str0" d="M8678.67 6054.2c39.61,-76.96 91.91,-145.24 155.16,-201.93 8.95,-8.02 18.11,-15.79 27.45,-23.33"/>
  <path class="fil0 str0" d="M8861.28 5828.94c-24.22,-41.54 -42.74,-87.12 -54.39,-136.1 -22.26,-93.5 -19.19,-195.78 -1.06,-302.41 5.33,-31.35 11.93,-63.18 19.7,-95.56"/>
  <path class="fil0 str0" d="M8825.53 5294.88c-123.7,25.94 -258.36,62.86 -402.21,102.2 -112.29,30.71 -230.1,62.01 -346.02,90.32"/>
  <path class="fil0 str0" d="M8077.3 5487.4c6.31,50.48 10.09,100.21 10.68,149.24 0.72,60.23 -3.7,118.15 -12.41,173.7"/>
  <path class="fil0 str0" d="M8075.57 5810.35c0.58,0.39 1.16,0.77 1.74,1.15 141.22,93.81 250.2,198.31 328.03,312.55"/>
  <path class="fil0 str0" d="M8405.34 6124.05c66.28,-5.82 116.67,-22.94 173.18,-42.19 30.15,-10.27 62.64,-21.62 100.15,-27.65"/>
  <path class="fil0 str0" d="M9062.61 5706.05c15.39,-7.39 30.83,-14.5 46.23,-21.4 98.52,-44.07 195.11,-81.41 274.94,-128.46 96.05,-56.59 169.05,-126.08 225.64,-229.97 17.94,-32.94 34.13,-69.35 48.4,-109.26"/>
  <path class="fil0 str0" d="M9657.82 5216.97c-17.11,2.31 -34.05,4.39 -50.8,6.24 -145.45,16.05 -276.44,16.71 -400.56,23.22 -42.12,2.21 -83.7,5.19 -125.45,9.26"/>
  <path class="fil0 str0" d="M9081.02 5255.68c-24.58,81.12 -41.3,155.5 -48.91,219.76 -8.3,70.16 -5.24,126.24 6.44,170.12 5.92,22.25 13.88,42.18 24.06,60.48"/>
  <path class="fil0 str0" d="M9296.01 4261.84c-29.88,15.56 -63.81,31.91 -101.96,49.5 -107.57,49.62 -248.12,107.9 -380.38,161.76 -110.75,45.1 -213.61,86.31 -288.59,119.55 -33.5,14.85 -61.19,28.06 -84.09,40.22"/>
  <path class="fil0 str0" d="M8440.99 4632.87c80.25,25.06 162.48,48.8 241.8,78 101.87,37.5 199.36,86.39 276.14,159.32 45.01,42.75 82.04,93.28 109.9,149.24"/>
  <path class="fil0 str0" d="M9068.83 5019.43c14.37,-1.35 28.67,-2.57 42.89,-3.66 159.17,-12.14 307.65,-9.99 463.09,-26.66 20.66,-2.22 41.5,-4.79 62.51,-7.74"/>
  <path class="fil0 str0" d="M9637.31 4981.36c-102.1,-192.53 -194.32,-387.07 -278.7,-576.99 -21.3,-47.94 -42.11,-95.61 -62.6,-142.53"/>
  <path class="fil0 str0" d="M8235.33 4813c-14.73,15.05 -30.56,30.85 -47.54,47.18 -70.5,67.77 -160.31,143.57 -263.15,195.7"/>
  <path class="fil0 str0" d="M7924.64 5055.87c26.97,66.85 55.84,134.89 86.6,204.32"/>
  <path class="fil0 str0" d="M8011.24 5260.19c57.03,-13.67 114.63,-28.04 172,-43.1 185.25,-48.62 367.55,-102.72 539.57,-141.61 29.81,-6.74 59.37,-12.95 88.66,-18.65"/>
  <path class="fil0 str0" d="M8811.47 5056.83c-9.09,-9.89 -19.05,-19.36 -29.95,-28.54 -43.06,-36.23 -103.5,-67.55 -181.47,-96.17 -102.8,-37.74 -233.54,-70.91 -364.71,-119.13"/>
  <path class="fil0 str0" d="M7695.5 5118.98c-40.95,1.39 -81.81,-2.61 -120.99,-12.53 -87.73,-22.22 -164.3,-71.67 -227.17,-132.8 -4.15,-4.04 -8.25,-8.12 -12.3,-12.25"/>
  <path class="fil0 str0" d="M7335.04 4961.39c-58.59,7.94 -118.54,5.83 -177.13,-5.16 -86.24,-16.17 -167.84,-49.42 -257.07,-85.26 -80.8,-32.46 -170.28,-67.58 -273.73,-98.31 -102.88,-30.57 -219.22,-56.26 -333.95,-73.27"/>
  <path class="fil0 str0" d="M6293.16 4699.39c52.56,38.82 105.93,77.18 160.24,115.7 179.41,127.24 368.56,258.7 564.63,403.41 96.3,71.07 194.25,144.96 293.77,221.65"/>
  <path class="fil0 str0" d="M7311.81 5440.13c22.26,-10.13 45.93,-19.68 70.88,-28.43 99.68,-34.94 222.15,-60.87 358.92,-90.37 11.64,-2.51 23.36,-5.06 35.17,-7.63"/>
  <path class="fil0 str0" d="M7776.77 5313.7c-28.67,-65.87 -55.79,-130.84 -81.27,-194.73"/>
  <path class="fil0 str0" d="M7851.21 5681.56c0.67,-17.37 0.8,-35.13 0.35,-53.33 -0.69,-28 -2.73,-57.35 -5.97,-87.77"/>
  <path class="fil0 str0" d="M7845.59 5540.45c-73.35,15.93 -142.44,30.56 -203.93,44.73"/>
  <path class="fil0 str0" d="M7641.67 5585.18c73.54,31.09 143.55,63.12 209.54,96.38"/>
  <path class="fil0 str0" d="M5879.12 4675.08c-57.18,1.64 -110.36,4.93 -163.48,6.94"/>
  <path class="fil0 str0" d="M5715.64 4682.02c51.63,87.1 94.29,174.6 128.2,261.04 47.89,122.06 77.77,239.93 112.22,341.22 33.87,99.6 73.31,182.97 138.69,261.85 63.86,77.07 153.52,150.81 271.79,219.9"/>
  <path class="fil0 str0" d="M6366.54 5766.04c15.83,-5.06 32.06,-9.91 48.63,-14.5 126.75,-35.17 274.34,-57.94 397.5,-81.61 83.94,-16.14 154.57,-33.26 204.2,-51.8 35.56,-13.29 60.63,-26.49 84.21,-41.9"/>
  <path class="fil0 str0" d="M7101.08 5576.22c-105.88,-80.8 -209.82,-158.28 -311.81,-232.54 -183.27,-133.44 -360.02,-255.08 -533.12,-379.1 -127.53,-91.36 -253.37,-185.66 -377.03,-289.5"/>
  <path class="fil0 str0" d="M5421.81 4664.8c-44.48,-7.92 -90.52,-18.46 -138.33,-31.81 -108.18,-30.21 -226.5,-73.78 -351.05,-123.28"/>
  <path class="fil0 str0" d="M4932.43 4509.7c19.85,81.19 45.92,157.42 78.2,228.98 65.01,144.16 156.8,269.5 270.07,391.55 125.85,135.61 275.41,268.75 420,413.43 117.17,117.25 231.27,241.04 339.66,371.34"/>
  <path class="fil0 str0" d="M6040.35 5915.01c3.07,-1.35 6.16,-2.74 9.28,-4.18 18.32,-8.46 38.02,-19.06 59.98,-31"/>
  <path class="fil0 str0" d="M6109.61 5879.83c-76.26,-56.21 -142.11,-117.02 -196.75,-182.97 -72.21,-87.14 -122.92,-183.15 -159.23,-277.69 -41.52,-108.12 -67.34,-212.75 -101.61,-313.05 -37.16,-108.75 -84.61,-214.94 -151.32,-323.57 -23.97,-39.03 -50.26,-78.29 -78.89,-117.75"/>
  <path class="fil0 str0" d="M7316.14 5711.28c-6.35,4.74 -12.91,9.74 -19.86,15.06 -34.72,26.56 -80.3,60.71 -139.84,89.05 -77.31,36.8 -175.89,62.35 -284.09,83.58 -52.69,10.34 -107.37,20.08 -161.16,29.99"/>
  <path class="fil0 str0" d="M6711.19 5928.96c90.8,12.85 181.47,31.15 271.95,55.3 21.35,5.7 42.68,11.74 63.98,18.1"/>
  <path class="fil0 str0" d="M7047.13 6002.36c81.54,-47.14 165.5,-81.8 258.51,-97.53 127.45,-21.55 267.31,-8.41 435.13,28.74 45.92,10.16 94.02,22.15 144.36,35.91"/>
  <path class="fil0 str0" d="M7885.13 5969.49c-150.25,-90.19 -345.3,-176.69 -568.99,-258.21"/>
  <path class="fil0 str0" d="M6020.04 6168.59c-10.38,2.27 -20.96,4.28 -31.73,6.01 -116.48,18.68 -253.28,6.67 -409.62,-11.77 -17.69,-2.09 -35.61,-4.24 -53.72,-6.43"/>
  <path class="fil0 str0" d="M5524.96 6156.41c256.2,145.08 514.55,286.33 774.96,423.7"/>
  <path class="fil0 str0" d="M6299.93 6580.11c166.55,-138.91 311.72,-258.42 437.47,-357.48 17.83,-14.04 35.24,-27.68 52.3,-40.9"/>
  <path class="fil0 str0" d="M6789.69 6181.73c-253.89,-50.23 -510.12,-51.61 -769.66,-13.14"/>
  <path class="fil0 str0" d="M6670.21 6580.09c181.33,-0.2 356.09,14.81 512.72,31.43 139.18,14.76 263.46,29.96 378.47,41.54 97.26,9.79 189.07,17.13 285.87,25.39"/>
  <path class="fil0 str0" d="M7847.26 6678.43c-90.85,-65.32 -181.59,-125.39 -272.13,-179.76 -165.98,-99.68 -330.8,-179.29 -495.31,-237.27"/>
  <path class="fil0 str0" d="M7079.82 6261.4c-49.66,34.07 -104.44,75.12 -165.34,122.57 -73.03,56.9 -154.52,122.52 -244.27,196.11"/>
  <path class="fil0 str0" d="M5002.95 6128.04c-300.98,155.63 -594.69,324.94 -880.2,507.39"/>
  <path class="fil0 str0" d="M4122.76 6635.44c13.34,5.72 26.33,11.98 38.94,18.78"/>
  <path class="fil0 str0" d="M4161.7 6654.22c65.52,-30.85 134.38,-52.46 206.31,-60.85 114.67,-13.37 234.09,8.07 349.39,61.48 138.86,64.31 273.8,172.3 410.82,320.74"/>
  <path class="fil0 str0" d="M5128.22 6975.59c102.65,-39.69 206.88,-81.43 313.65,-123.56 167.9,-66.26 342.98,-132.02 526.46,-180.96"/>
  <path class="fil0 str0" d="M5002.95 6128.04c318.4,186.97 640.25,368.01 965.38,543.02"/>
  <path class="fil0 str0" d="M4886.1 7065.54c-86.33,-83.89 -167.38,-144.56 -240.98,-183.03 -85.56,-44.72 -159.29,-60.47 -229.61,-56.28 -34.12,2.04 -68.26,8.98 -103.13,21.01"/>
  <path class="fil0 str0" d="M4312.38 6847.23c26.75,77.49 38,164.4 33.59,256.04 -2.51,52.04 -9.4,105.41 -19.9,160.25"/>
  <path class="fil0 str0" d="M4326.07 7263.52c177.22,-69.51 366.66,-129.54 560.02,-197.98"/>
  <line class="fil0 str0" x1="6363.85" y1="6834.56" x2="6330.23" y2= "6862.69" />
  <path class="fil0 str0" d="M6294.43 6844.02c11.93,6.23 23.86,12.46 35.8,18.67"/>
  <path class="fil0 str0" d="M6294.43 6844.02c-76.6,11.56 -152.63,26.75 -227.8,45.6 -229.5,57.56 -453.55,148.19 -677.02,237.28"/>
  <path class="fil0 str0" d="M5389.62 7126.9c162.33,78.01 307.07,146.11 434.45,203.99 149.31,67.84 273.99,121.37 382.44,160.8"/>
  <path class="fil0 str0" d="M6206.51 7491.68c47.82,-44.49 101.7,-90.51 160.94,-135.71 130.29,-99.42 285.92,-196.09 432.56,-283.98 135.25,-81.07 260.49,-155 357.37,-219.74 2.54,-1.7 5.07,-3.39 7.58,-5.08"/>
  <path class="fil0 str0" d="M7164.95 6847.16c-181.99,-19.37 -381.24,-35.91 -581.68,-29.44 -73.39,2.37 -146.62,7.98 -219.42,16.84"/>
  <path class="fil0 str0" d="M6027.5 7676.16c-37.5,-15.04 -76.28,-31.24 -116.85,-48.61 -171.04,-73.26 -373.59,-167.87 -616.05,-284.27 -66.03,-31.7 -134.91,-65 -206.65,-99.92"/>
  <path class="fil0 str0" d="M5087.96 7243.36c-114.47,42.17 -227.38,81.57 -335.78,118.56 -161.72,55.18 -311.81,106.69 -446.51,165.37"/>
  <path class="fil0 str0" d="M4305.68 7527.29c13.57,25.36 28.39,50.07 44.5,74.2 63.2,94.61 147.84,179.75 251.08,262.87 97.65,78.63 211.13,155.3 313.84,244.88 57.04,49.75 110.38,104.35 155.2,164.59"/>
  <path class="fil0 str0" d="M5070.3 8273.83c19.21,-40.02 41.72,-78.2 67.83,-113.77 56.8,-77.38 130.75,-140.83 211.2,-186.51 98.67,-56.04 205.1,-86.59 297.65,-110.6 81.9,-21.24 152.1,-38.31 204.13,-58.94 56.64,-22.45 93.24,-47.02 136.12,-87.31 12.81,-12.04 26.14,-25.63 40.27,-40.55"/>
  <path class="fil0 str0" d="M4051.77 7386.73c36.31,-120.48 57.23,-228.32 58.87,-312.96 0.74,-38.37 -2.23,-72.1 -8.41,-102.46"/>
  <path class="fil0 str0" d="M4102.24 6971.31c-75.99,60.58 -156.06,137.23 -240.29,218.9 -123.22,119.47 -256.25,247.87 -408.26,345.39 -59.25,38.01 -121.65,71.11 -186.54,97.84"/>
  <path class="fil0 str0" d="M3267.15 7633.43c3.68,26.06 10.43,46.11 18.74,60.98 10.09,18.05 22.78,31.59 46.94,46.47 21.44,13.2 51.74,25.88 89.29,36.11"/>
  <path class="fil0 str0" d="M3422.12 7776.99c117.74,-69.19 225.1,-143.27 335.99,-215.87 93.65,-61.31 190.48,-120.68 293.66,-174.38"/>
  <path class="fil0 str0" d="M1996.46 8165.26c270.83,-20.76 508.6,-56.6 714.21,-106 171.85,-41.3 320.77,-92.09 452.89,-149.82"/>
  <path class="fil0 str0" d="M3163.55 7909.44c-29.98,-24.9 -56.48,-54.51 -76.89,-87.87 -23.7,-38.74 -38.98,-80.74 -48.01,-124.01"/>
  <path class="fil0 str0" d="M3038.65 7697.56c-145.35,22.07 -296.43,11.12 -445.07,-21.49 -159.43,-34.98 -316.99,-93.49 -467.03,-155.53"/>
  <path class="fil0 str0" d="M2126.54 7520.54c16.85,71.52 20.24,147.63 11.02,224.54 -16.25,135.63 -67.56,274.61 -141.11,420.19"/>
  <line class="fil0 str0" x1="1069.77" y1="7229.29" x2="889.76" y2= "7324.43" />
  <line class="fil0 str0" x1="889.76" y1="7324.43" x2="889.76" y2= "8099.41" />
  <line class="fil0 str0" x1="889.76" y1="8099.41" x2="1092.46" y2= "8099.41" />
  <path class="fil0 str0" d="M1092.46 8099.41c12.12,-4.93 24.52,-9.19 37.13,-12.84 77.6,-22.46 162.82,-23.24 258.71,-11.43 102.28,12.59 217.95,40.83 345.43,79.98"/>
  <path class="fil0 str0" d="M1733.74 8155.12c91.81,-161.57 150.07,-307.16 167.17,-422.38 12.09,-81.48 4.76,-145.52 -18.79,-203.82 -23.59,-58.4 -64.89,-113.47 -126.83,-165.77"/>
  <path class="fil0 str0" d="M1755.29 7363.15c-92.4,-37.82 -178.88,-70.63 -258.04,-94.89 -143.19,-43.89 -261.96,-60.12 -354.37,-51.66 -26.35,2.41 -50.65,6.71 -73.11,12.7"/>
  <path class="fil0 str0" d="M2331.51 8368.01c29.02,10.8 58.02,21.55 86.92,32.16 196.46,72.15 386.59,136.53 546.56,173.19 100.3,22.99 188.22,35.11 265.43,37.51"/>
  <path class="fil0 str0" d="M3230.42 8610.87c54.59,-15.23 94.23,-39.12 125.73,-72.25 30.04,-31.6 53.86,-74.45 68.83,-127.57 18.48,-65.63 21.77,-143.16 8.21,-218.24"/>
  <path class="fil0 str0" d="M3433.19 8192.82c-7.92,-43.89 -21.34,-87.47 -40.22,-130.62"/>
  <path class="fil0 str0" d="M3392.96 8062.2c-161.41,81.69 -347.2,154.45 -563.26,210.76 -151.25,39.42 -317.18,71.13 -498.19,95.05"/>
  <path class="fil0 str0" d="M3627.07 8546.96c80.5,-20.5 170.28,-41.18 271.67,-52.94 137.05,-15.91 294.35,-15.12 458.15,-0.76 192.9,16.92 393.11,50.79 566.35,82.93 13.07,2.42 25.98,4.83 38.72,7.22"/>
  <path class="fil0 str0" d="M4961.96 8583.41c-9.72,-38.96 -24.26,-75.55 -43.66,-110.77 -35.98,-65.33 -91.02,-127.2 -163.93,-190.11 -116.92,-100.88 -275.85,-202.54 -409.94,-327.96 -101.1,-94.56 -187.39,-202.59 -250.39,-322.15"/>
  <path class="fil0 str0" d="M4094.04 7632.41c-60.99,34.08 -120.44,70.48 -180.5,109.38 -98.97,64.09 -200.48,134.71 -313.89,204.27"/>
  <path class="fil0 str0" d="M3599.65 7946.06c17.86,38.05 32.91,77.07 44.91,117.01 37.88,126.05 44.49,262.45 13.81,389.02 -7.87,32.44 -18.3,64.28 -31.3,94.88"/>
  <path class="fil0 str0" d="M1515.85 8698.74c216.58,116.78 430.98,227.31 642.33,326.76 206.6,97.22 409.48,182.87 611.9,237.76 84.58,22.93 169.41,40.22 254.31,52.28"/>
  <path class="fil0 str0" d="M3024.39 9315.54c35.66,-21.61 60.2,-42.96 75.13,-61.43 17.16,-21.24 23.61,-37.51 26.62,-60.44 3.18,-24.2 -0.09,-58.7 -8.9,-102.04 -11.89,-58.55 -32.41,-130.71 -34.11,-207.37 -0.36,-16.15 0.24,-32.5 1.83,-48.84"/>
  <path class="fil0 str0" d="M3084.95 8835.41c-140.42,-18.86 -296,-59.65 -461.04,-113.23 -272.68,-88.54 -569.72,-209.94 -818.93,-295.36 -169.14,-57.97 -315.87,-98.73 -425.61,-114.57"/>
  <path class="fil0 str0" d="M1379.37 8312.26c-26.48,-3.82 -50.8,-6.15 -72.78,-7.26"/>
  <path class="fil0 str0" d="M1306.59 8305c72.48,126.91 141.8,258.2 209.26,393.74"/>
  <path class="fil0 str0" d="M3325.37 9337.22c101.35,0.81 201.39,-3.81 299.08,-9.52"/>
  <path class="fil0 str0" d="M3624.44 9327.7c-5.3,-93.21 0.74,-190.29 19.87,-290.86 16.83,-88.45 42.97,-178.37 76.49,-269.93"/>
  <path class="fil0 str0" d="M3720.8 8766.91c-85.12,21.1 -168.88,46.33 -264.79,63.14 -42.61,7.47 -87.48,12.81 -134.59,15.41"/>
  <path class="fil0 str0" d="M3321.43 8845.46c-2.3,13.39 -2.91,28.99 -1.34,48.7"/>
  <path class="fil0 str0" d="M3320.08 8894.16c2.77,34.73 14.2,81.86 26.23,138.79 12,56.79 23.95,124.43 13.23,197.22 -5.33,36.21 -16.95,72.75 -34.18,107.06"/>
  <path class="fil0 str0" d="M3860.18 9314.1c83.07,-3.9 166.31,-6.2 252.69,-5.17 121.64,1.45 250.74,9.56 388.78,17.6 164.43,9.58 340.74,17.29 504.68,2.53 33.89,-3.05 67.13,-7.07 99.68,-12.08"/>
  <path class="fil0 str0" d="M5106.01 9316.98c-46.49,-94.67 -80.83,-197.95 -102.65,-308 -11.67,-58.86 -19.89,-119.78 -24.06,-181.79"/>
  <path class="fil0 str0" d="M4979.3 8827.19c-161.39,-31.1 -352.8,-66.13 -538.22,-87.83 -141.97,-16.61 -278.63,-24.45 -397.15,-19.75 -17.35,0.69 -34.29,1.64 -50.87,2.83"/>
  <path class="fil0 str0" d="M3993.06 8722.44c-55.97,129.54 -96.72,251.78 -117.31,361.83 -15.22,81.38 -19.74,157.42 -15.57,229.82"/>
  <path class="fil0 str0" d="M5217.43 8633.51c17.28,3.56 34.09,7.05 50.41,10.47 137.94,28.97 245.38,54.56 349.21,97.37 110.95,45.75 215.64,111.72 320.91,199.85"/>
  <path class="fil0 str0" d="M5937.97 8941.21c42.77,-21.63 87.03,-41.82 133.37,-59.75 99.22,-38.39 207.44,-66.14 327.04,-85.75"/>
  <path class="fil0 str0" d="M6398.38 8795.71c-81.42,-100.67 -164.43,-210.68 -249.24,-331.41 -90.68,-129.09 -183.04,-269.1 -276.89,-417.6"/>
  <path class="fil0 str0" d="M5872.26 8046.7c-81.75,25.68 -167.38,43.32 -247.02,67.33 -80.76,24.35 -152.99,55.17 -210.17,98.21 -62.3,46.89 -109.88,109.19 -143.91,190.32 -28.34,67.56 -45.93,147.47 -53.72,230.95"/>
  <path class="fil0 str0" d="M5716.75 9067.81c-30.15,-21.98 -59.69,-41.3 -88.71,-58.13 -92.97,-53.92 -179.25,-82.73 -315.3,-114.07 -28.33,-6.53 -58.87,-13.22 -91.59,-20.13"/>
  <path class="fil0 str0" d="M5221.15 8875.48c13.21,109.74 41.06,212.34 80.5,302.16 12.42,28.28 26,55.39 40.76,81.4"/>
  <path class="fil0 str0" d="M5342.41 9259.04c4.8,-1.68 9.57,-3.38 14.32,-5.11 129.77,-47.31 244.06,-115.36 360.02,-186.12"/>
  <path class="fil0 str0" d="M6679.94 8764.48c139.11,-9.84 290.39,-14.52 449.44,-18.04 223.41,-4.94 460.57,-8.12 684.86,-12.09 47.47,-0.84 94.3,-1.72 140.36,-2.53"/>
  <path class="fil0 str0" d="M7954.61 8731.81c-53.08,-84.55 -103.1,-162.61 -149.35,-232.67 -17.23,-26.11 -34.02,-51.26 -50.38,-75.51"/>
  <path class="fil0 str0" d="M7754.89 8423.64c-128.55,13.35 -259.41,-0.16 -384.3,-47.54 -165.57,-62.82 -318.25,-181.96 -459.06,-349.88 -50.93,-60.74 -100.5,-127.96 -148.93,-201.64"/>
  <path class="fil0 str0" d="M6762.61 7824.58c-89.33,-0.03 -172.58,-4.56 -250.65,-14.17 -83.5,-10.29 -161.72,-26.63 -240.77,-49.11"/>
  <path class="fil0 str0" d="M6271.19 7761.3c-40.72,43.83 -78.53,86.53 -122.24,127.6 -19.65,18.46 -40.81,36.33 -63.39,53.07"/>
  <path class="fil0 str0" d="M6085.55 7941.98c66.68,105.06 132.4,205.36 196.83,299.77 138.59,203.07 270.6,375.27 397.56,522.73"/>
  <path class="fil0 str0" d="M7501.74 6884.24c-52.33,50.1 -118.22,100.2 -197.92,154.18 -99.36,67.29 -221.01,139.73 -349.56,216.54 -145.52,86.95 -297,179.67 -419.72,270.88 -18.67,13.87 -36.64,27.68 -53.94,41.41"/>
  <path class="fil0 str0" d="M6480.6 7567.26c42.7,7.22 86.74,12.43 134.37,15.94 86.18,6.35 184.91,6.82 292.28,1.33 127.27,-6.5 265.28,-21.6 379.56,-45.21 86.17,-17.81 157.27,-40.71 204.76,-64.77 40.1,-20.31 63.61,-39.69 84.33,-63.56 21.02,-24.21 40.13,-56.16 64.76,-99.05 33.91,-59.05 78.78,-134.72 143.92,-213.75 45.91,-55.7 101.55,-113.52 167.47,-173.34"/>
  <path class="fil0 str0" d="M7952.05 6924.86c-111.62,-10.49 -214.98,-18.07 -322.79,-27.98 -41.66,-3.83 -84.09,-8.08 -127.52,-12.64"/>
  <path class="fil0 str0" d="M8628.17 7840.48c-74.74,-28.22 -153.86,-52.82 -237.41,-73.39 -232.5,-57.22 -498.31,-84.24 -793.56,-81.27"/>
  <path class="fil0 str0" d="M7597.2 7685.83c-86.8,43.74 -192.83,72.78 -309.81,93.97 -78.96,14.31 -162.19,24.86 -244.68,32.13"/>
  <path class="fil0 str0" d="M7042.7 7811.93c55.65,73.1 111.43,135 166.81,185.78 108.24,99.26 213.31,155.7 319.34,180.2 106.59,24.63 217.5,17.4 340.86,-16.15 128.45,-34.93 268.59,-99.03 415.12,-168.29 111.19,-52.56 226.22,-106.97 343.34,-152.98"/>
  <path class="fil0 str0" d="M8275.82 6963.48c-121.92,93.08 -214.78,177.75 -281.41,252.78 -57.84,65.14 -95.68,122.15 -128.91,178.74 -11.25,19.16 -22.08,38.68 -33.66,58.59"/>
  <path class="fil0 str0" d="M7831.85 7453.59c17.05,0.77 34,1.64 50.87,2.62 336.18,19.53 638.69,82.2 898.18,190.44 66.95,27.93 130.9,58.96 191.7,92.44"/>
  <path class="fil0 str0" d="M8972.59 7739.1c91,-16.67 181.38,-25.12 269.04,-25.79 162.74,-1.25 315.49,22.39 452.05,44.51 132.49,21.46 249.8,39.81 352.48,42.63 54.87,1.51 105.62,-1.07 152.87,-7.71"/>
  <path class="fil0 str0" d="M10199.05 7792.74c-65.12,-84.13 -136.8,-160.12 -225.94,-231.82 -96.46,-77.59 -215.24,-150.73 -359.63,-219.15 -153.63,-72.8 -335.48,-139.75 -524.39,-196.67 -218.14,-65.73 -442.96,-117.49 -640.67,-153.22 -60.06,-10.85 -117.55,-20.23 -172.61,-28.4"/>
  <path class="fil0 str0" d="M11645.8 7325.87c-16.66,-13.25 -34.94,-25.82 -54.95,-37.8 -99.17,-59.36 -240.28,-99.61 -394.11,-122.54 -152.93,-22.8 -316.11,-30.07 -473.15,-31.08 -200.2,-1.29 -391.24,7.2 -573.61,13.61 -128.32,4.51 -253.43,7.93 -376.83,8.89"/>
  <path class="fil0 str0" d="M9773.15 7156.96c132.17,66.75 248.1,139.69 346.66,218.8 108.99,87.48 196.92,182.24 273.78,282.65"/>
  <path class="fil0 str0" d="M10393.59 7658.41c107.09,-132.88 236.61,-238.46 390.04,-304.13 138.17,-59.14 293.58,-83.97 458.35,-80.79 128.55,2.48 263.12,20.95 403.81,52.39"/>
  <path class="fil0 str0" d="M12013.18 7448.71c87.13,38.96 187.14,36.74 272.44,-6.06"/>
  <line class="fil0 str0" x1="12285.62" y1="7442.65" x2="12889.76" y2= "7036.42" />
  <line class="fil0 str0" x1="12889.76" y1="7036.42" x2="12889.76" y2= "6868.46" />
  <line class="fil0 str0" x1="12889.76" y1="6868.46" x2="12709.16" y2= "6797.91" />
  <path class="fil0 str0" d="M12709.16 6797.91c-87.6,-17.49 -197.68,-19.49 -329.53,-2.26 -144.91,18.94 -317,61.81 -491.07,112.78"/>
  <path class="fil0 str0" d="M11888.56 6908.44c4.82,9.35 9.5,18.76 14.02,28.22 76.59,160.24 110.89,332.66 110.61,512.06"/>
  <line class="fil0 str0" x1="12191.44" y1="8278.71" x2="12889.76" y2= "8020.67" />
  <line class="fil0 str0" x1="12889.76" y1="8020.67" x2="12889.76" y2= "7318.78" />
  <line class="fil0 str0" x1="12889.76" y1="7318.78" x2="12391.54" y2= "7653.8" />
  <path class="fil0 str0" d="M12023.99 7699.71c124.16,27.3 253.93,11.09 367.55,-45.91"/>
  <path class="fil0 str0" d="M12023.99 7699.71c-5.26,121.96 -31.64,247.37 -64.54,368.41 -39.19,144.21 -86.74,281.67 -122.11,397.47"/>
  <path class="fil0 str0" d="M11837.35 8465.59c140.36,-56.32 259.09,-119.38 354.09,-186.88"/>
  <path class="fil0 str0" d="M11567.67 8557.98c8.8,-38.9 19.52,-79.41 31.79,-121.54 38.86,-133.37 92.55,-284.37 132.8,-433.09 33.59,-124.09 56.39,-245.35 56.47,-346.58 0.02,-17.33 -0.6,-34.01 -1.83,-50.07"/>
  <path class="fil0 str0" d="M11786.91 7606.7c-268.13,-79.57 -506.26,-112.8 -697.36,-90.37 -168.84,19.82 -300.76,81.9 -417.02,188.47 -49.24,45.13 -95.36,98.26 -138.18,159.19"/>
  <path class="fil0 str0" d="M10534.35 7863.99c67.23,107.53 130.83,221.32 197.94,343.33 80.29,145.98 164.89,303.79 255.52,474.27"/>
  <path class="fil0 str0" d="M10987.82 8681.59c114.6,-14.81 246.93,-39.07 382.45,-71.28 66.16,-15.72 132.52,-33.26 197.4,-52.33"/>
  <path class="fil0 str0" d="M11876.61 9158.28c9.65,-6.65 19.25,-13.3 28.81,-19.97 143.98,-100.43 277.26,-202.59 396.68,-302.66"/>
  <line class="fil0 str0" x1="12302.09" y1="8835.65" x2="12328.25" y2= "8471.28" />
  <path class="fil0 str0" d="M12328.25 8471.28c-123.44,87.7 -272.37,163.89 -442.91,229.21 -35.05,13.42 -71.06,26.39 -107.75,38.85"/>
  <path class="fil0 str0" d="M11777.59 8739.35c-0,0.04 -0,0.09 -0.01,0.13 -3.93,65.54 4.8,108.95 20.58,160.63 14.54,47.58 35.9,102.2 54.56,165.16 8.73,29.46 16.77,60.51 23.88,93.02"/>
  <path class="fil0 str0" d="M11541.95 8810.54c-56.38,15.11 -113.04,29.02 -169.11,41.62 -130.28,29.3 -255.56,51.36 -368.3,65.42"/>
  <path class="fil0 str0" d="M11004.54 8917.58c-38.26,99.56 -66.32,194.4 -81.34,281.66 -15.32,89.06 -17.41,172.35 -9.3,252.43"/>
  <path class="fil0 str0" d="M10913.9 9451.67c54.54,37.58 100.72,57.81 146.15,66.6 45.86,8.87 94.38,6.87 154.26,-7.35 86.41,-20.52 193.38,-67.96 306.12,-129.83 46.57,-25.56 93.94,-53.29 141.39,-82.44"/>
  <path class="fil0 str0" d="M11661.82 9298.65c-7.46,-53.91 -17.67,-102.5 -30.23,-147.64 -16.01,-57.55 -36.8,-109.8 -57.13,-174.77 -14.83,-47.42 -28.19,-102.78 -32.51,-165.7"/>
  <path class="fil0 str0" d="M10730.28 8700.57c-58.17,-108.98 -113.79,-212.42 -167.05,-310.14 -76.94,-141.17 -148.21,-270.28 -220.04,-386.42"/>
  <path class="fil0 str0" d="M10343.19 8004.01c-95.08,25.37 -196.91,35.45 -302.86,32.59 -151.02,-4.08 -310.38,-35.05 -472.45,-59.48 -94.5,-14.25 -189.74,-25.25 -286.07,-27.18"/>
  <path class="fil0 str0" d="M9281.8 7949.93c3.65,3.04 7.28,6.08 10.88,9.13 156.6,132.33 277.59,273.8 369.34,400.49 67.13,92.69 119.15,177.82 157.46,257.2"/>
  <path class="fil0 str0" d="M9819.48 8616.75c16.84,2.03 33.57,4.63 50.19,7.79"/>
  <path class="fil0 str0" d="M9869.67 8624.54c219.04,23.74 399.27,44.12 546.69,58.4 109.09,10.56 199.59,17.54 292.66,17.71 7.05,0.01 14.13,-0.02 21.26,-0.09"/>
  <path class="fil0 str0" d="M10746.95 8936.51c-43.59,0.73 -85.92,0.12 -127.89,-1.61 -81.71,-3.37 -163.56,-10.46 -254.33,-19.61"/>
  <path class="fil0 str0" d="M10364.72 8915.29c101.83,96.52 202.24,207.38 297.32,306.61 5.77,6.02 11.52,12 17.24,17.91"/>
  <path class="fil0 str0" d="M10679.28 9239.81c2.26,-21.89 5.16,-43.94 8.71,-66.16 12.52,-78.18 32.72,-157.18 58.95,-237.14"/>
  <path class="fil0 str0" d="M9731.82 8847.22c-19.09,-0.1 -38.82,0.73 -59.4,2.46 -138.09,11.64 -312.27,67.61 -519.44,168.27"/>
  <path class="fil0 str0" d="M9152.98 9017.96c95.07,108.43 167.18,241.75 234.58,383.53 14.73,30.99 29.27,62.39 43.69,94.11"/>
  <path class="fil0 str0" d="M9431.25 9495.6c185.09,46.12 374.93,68.63 572.31,60.9 180.04,-7.05 369,-39.78 564.71,-92.59"/>
  <path class="fil0 str0" d="M10568.27 9463.91c-51.43,-51.15 -102.59,-105.5 -153.76,-159.77 -100.91,-107.04 -200.36,-211.81 -291.44,-288.47 -75.41,-63.47 -144.28,-107.48 -210.46,-133.8 -24.78,-9.85 -49.45,-17.54 -74.64,-23.14"/>
  <path class="fil0 str0" d="M9837.97 8858.73c-34.45,-3.74 -69.83,-7.58 -106.15,-11.51"/>
  <path class="fil0 str0" d="M9556.21 8626.92c-31.82,-53.16 -71.31,-111.5 -118.67,-173.33 -107.09,-139.84 -253.67,-296.15 -442.67,-424.52 -20.04,-13.61 -40.58,-26.89 -61.61,-39.83"/>
  <path class="fil0 str0" d="M8933.26 7989.23c-60.11,14.96 -121.2,34.12 -183.54,57.34 -161.19,60.04 -329.53,146.93 -502.35,224.72 -80.58,36.27 -162.32,70.25 -245.27,97.29"/>
  <path class="fil0 str0" d="M8002.11 8368.57c69.55,105.44 146.54,226.98 229.04,360.49"/>
  <path class="fil0 str0" d="M8231.15 8729.06c40.41,0.1 79.91,0.52 118.39,1.37 172.53,3.82 326.31,16.74 463.69,61.71 49.31,16.15 96.32,36.83 140.49,61.83"/>
  <path class="fil0 str0" d="M8953.72 8853.98c68.13,-35.66 134,-67.57 197.72,-95.69 144.82,-63.91 278.14,-109.04 404.76,-131.37"/>
  <path class="fil0 str0" d="M9199.75 9557.22c-21.69,-47.03 -43.35,-92.25 -65.22,-135.03 -58.17,-113.78 -118.1,-207.98 -183.61,-274.89 -68.9,-70.36 -142.77,-113.31 -246.54,-141.16 -91.42,-24.54 -206.91,-35.59 -344.83,-39.17 -40.27,-1.05 -82.43,-1.57 -126.18,-1.71"/>
  <path class="fil0 str0" d="M8233.36 8965.26c-50.38,75.91 -119.28,145.08 -200.8,209.2 -102.27,80.44 -226.17,153.67 -338.22,224.08 -67.02,42.12 -128.5,83.22 -179.83,122.64"/>
  <path class="fil0 str0" d="M7514.51 9521.19c42.74,40.56 86.83,82.13 132.23,124.41 113.21,105.43 233.39,215.69 365.87,304.13 52.85,35.28 108.02,66.72 165.87,94.73"/>
  <path class="fil0 str0" d="M8178.47 10044.44c9.19,-8.7 18.58,-17.22 28.34,-25.59 41.64,-35.69 89.52,-66.2 146.37,-94.7 58.26,-29.2 128.27,-58.69 210.25,-92.37 107.09,-44 233.69,-94.62 349.18,-143.28 120.25,-50.66 225.79,-98.65 287.14,-131.3"/>
  <path class="fil0 str0" d="M11794.67 9494.34c-58.46,36.12 -117.56,70.65 -176.61,102.56 -125.01,67.56 -248.15,123.31 -371.82,148.89 -87.29,18.05 -176.86,19.5 -262.95,-2.8 -70.9,-18.37 -137.43,-51.83 -201.26,-95.42"/>
  <path class="fil0 str0" d="M10782.02 9647.56c-259.57,81.3 -514.41,134.25 -762.63,144.71 -161.23,6.8 -318.01,-4.57 -470.67,-30.78"/>
  <path class="fil0 str0" d="M9548.72 9761.5c22.02,50.22 44.32,100.68 67.19,151.11 80.27,177 167.03,354.01 262.31,529.87"/>
  <path class="fil0 str0" d="M9878.22 10442.47c16.28,-4.61 32.63,-9.51 49.07,-14.69 130.54,-41.13 264.5,-100.36 385.12,-167.57 110.5,-61.57 208.32,-128.89 290.79,-189.93 71.53,-52.94 131.3,-101.84 198.54,-140.77 47.19,-27.32 100.43,-49.23 158.19,-56.85 63.72,-8.41 128.78,0.85 191.57,19.82 88.55,26.75 177.47,72.06 266.03,120.72 110.4,60.66 217.17,125.17 302.7,171.92 61.97,33.87 113.85,58.88 150.65,73.81"/>
  <path class="fil0 str0" d="M11870.86 10258.95c45.01,-12.59 92.34,-26.04 142.29,-40.43 113.54,-32.73 242.46,-71.06 382.62,-113.49"/>
  <path class="fil0 str0" d="M12395.77 10105.02c-39.8,-130.9 -115.93,-251.12 -236.28,-363.85 -94.17,-88.21 -215.64,-171.07 -364.82,-246.83"/>
  <path class="fil0 str0" d="M12453.81 9016.71c-125.38,105.06 -263.88,211.18 -413.92,315.8 -7.08,4.94 -14.19,9.87 -21.31,14.8"/>
  <path class="fil0 str0" d="M12018.58 9347.31c175.23,102.19 317.5,218.98 423.91,352.51 89.62,112.46 152.51,237.13 188.04,368.09"/>
  <line class="fil0 str0" x1="12630.53" y1="10067.91" x2="12889.76" y2= "10067.91" />
  <line class="fil0 str0" x1="12889.76" y1="10067.91" x2="12889.76" y2= "8613.86" />
  <line class="fil0 str0" x1="12889.76" y1="8613.86" x2="12453.81" y2= "9016.71" />
  <path class="fil0 str0" d="M12665.22 10304.13c4.7,142.91 -17.53,287.93 -57.24,428.46 -63.63,225.15 -172.2,438.34 -276.25,625.76 -92.69,166.95 -179.56,314.4 -230,445.67 -45.56,118.57 -62.55,222.84 -48.82,329 9.11,70.47 32.03,142.96 70.89,218.52"/>
  <path class="fil0 str0" d="M12123.79 12351.55c146.46,-2.72 298.65,-7.46 456.47,-14.2"/>
  <line class="fil0 str0" x1="12580.26" y1="12337.35" x2="12889.76" y2= "12324.11" />
  <line class="fil0 str0" x1="12889.76" y1="12324.11" x2="12889.76" y2= "10304.13" />
  <line class="fil0 str0" x1="12889.76" y1="10304.13" x2="12665.22" y2= "10304.13" />
  <path class="fil0 str0" d="M11681.98 10853.08c144.33,8.36 289.95,44.83 433.87,101.42 43.66,17.17 87.28,36.15 130.92,56.85"/>
  <path class="fil0 str0" d="M12246.76 11011.36c44.82,-93.07 84.98,-188.05 115.82,-283.39 42.67,-131.87 67.06,-263.05 67.06,-386.41"/>
  <path class="fil0 str0" d="M12429.65 10341.56c-122.94,37.12 -237.05,71 -339.39,100.56 -50.92,14.71 -99.18,28.44 -145.14,41.33"/>
  <path class="fil0 str0" d="M11945.11 10483.46c-83.61,145.97 -171.16,269.04 -263.14,369.62"/>
  <path class="fil0 str0" d="M11130.98 10135.54c-24.86,106.24 -59.21,209.09 -102.47,307.32 -51.83,117.7 -117.34,228.57 -180.1,327.4 -55.3,87.1 -106.83,165.43 -136.9,227.83 -21.8,45.22 -31.53,80.66 -32.81,105.38 -0.45,8.69 -0.23,16.24 0.81,23.31"/>
  <path class="fil0 str0" d="M10679.51 11126.78c52.13,-29.53 104.84,-54.08 156.62,-74.32 105.14,-41.09 204.53,-66.93 295.54,-101.61"/>
  <line class="fil0 str0" x1="11131.67" y1="10950.85" x2="11131.86" y2= "10950.67" />
  <line class="fil0 str0" x1="11131.86" y1="10950.67" x2="11153.22" y2= "10942.4" />
  <path class="fil0 str0" d="M11153.22 10942.4c104.62,-42.18 201.46,-98.72 300.32,-193.09 80.89,-77.21 162.34,-179.81 242.97,-309.97"/>
  <path class="fil0 str0" d="M11696.51 10439.34c-18.26,-9.05 -37.26,-18.86 -57.12,-29.41 -75.93,-40.35 -164.16,-92.34 -254.56,-144.08 -90,-51.51 -181.4,-101.37 -253.85,-130.31"/>
  <path class="fil0 str0" d="M11558.07 11866.48c-191.34,-60.06 -393.74,-76.32 -592.22,-47.59"/>
  <path class="fil0 str0" d="M10965.85 11818.88c4.93,36.57 13.28,74.2 25.07,112.85 0.67,2.2 1.35,4.41 2.05,6.62"/>
  <path class="fil0 str0" d="M10992.97 11938.35c29.59,94.14 79.71,194.56 148.54,299.09"/>
  <path class="fil0 str0" d="M11141.51 12237.44c2.39,3.62 4.79,7.25 7.22,10.88"/>
  <path class="fil0 str0" d="M11148.73 12248.32c31.64,-73.77 73.11,-141.44 126.34,-199.82 66.65,-73.09 151.39,-129.31 245.65,-167.79 12.29,-5.02 24.75,-9.76 37.35,-14.24"/>
  <path class="fil0 str0" d="M11316.06 12343.48c143.26,6.19 294.19,9.85 453.32,10.63 32.21,0.16 64.74,0.2 97.6,0.13"/>
  <path class="fil0 str0" d="M11866.98 12354.25c-24.49,-65.02 -41.05,-130.74 -49.1,-196.98 -4.91,-40.41 -6.53,-80.8 -5.17,-121.04"/>
  <path class="fil0 str0" d="M11812.7 12036.24c-78.1,3.98 -147.65,15.26 -206.75,33.61 -93.04,28.89 -158.62,73.03 -212.75,141.01 -29.27,36.76 -55.13,81.11 -77.15,132.63"/>
  <path class="fil0 str0" d="M10179.86 12115.09c-96.69,10.16 -176.63,30.28 -230.85,56.43 -43.6,21.04 -69.56,43.69 -89.42,72.95 -0.34,0.51 -0.69,1.02 -1.02,1.53"/>
  <path class="fil0 str0" d="M9858.57 12246c92.99,8.77 185.05,19.41 277.32,31.07 228.31,28.85 460.02,62.53 722.02,87.06 29.4,2.75 59.19,5.39 89.38,7.91"/>
  <path class="fil0 str0" d="M10947.28 12372.05c-21.44,-32.38 -41.55,-64.79 -60.28,-97.24 -68.17,-118.15 -118.33,-237.76 -143.84,-358.5"/>
  <path class="fil0 str0" d="M10743.17 11916.3c-104.07,57.51 -202.42,104.68 -295.58,139.45 -93.52,34.91 -182.35,57.56 -267.72,59.34"/>
  <path class="fil0 str0" d="M10844.87 11306.29c-54.44,26.67 -106.9,59.02 -161.13,101.09 -75.9,58.87 -155.19,137.54 -242.6,223.64 -84.6,83.34 -177.44,172.03 -281.22,247.87"/>
  <path class="fil0 str0" d="M10159.93 11878.89c5.79,0.16 11.89,0.13 18.35,-0.1 48.75,-1.72 116.93,-17.46 197.74,-48.52 101.52,-39.01 221.5,-100.17 352.94,-178.21"/>
  <path class="fil0 str0" d="M10728.95 11652.06c9,-81.94 30.91,-162.27 63.56,-239.46 8.38,-19.8 17.43,-39.4 27.13,-58.82"/>
  <path class="fil0 str0" d="M10819.64 11353.78c7.97,-15.95 16.38,-31.78 25.22,-47.49"/>
  <path class="fil0 str0" d="M10880.7 10159.39c-19.19,13.13 -40.63,28.72 -64.39,46.49 -85.58,64 -201.7,151.52 -339.2,232.24 -136.41,80.08 -292.78,153.5 -448.7,205.22 -36.54,12.12 -72.99,23.02 -109.19,32.78"/>
  <path class="fil0 str0" d="M9919.23 10676.12c-29.25,122.72 -72.65,231.95 -132.33,325.8 -22.03,34.64 -46.4,66.98 -72.64,96.98"/>
  <path class="fil0 str0" d="M9714.26 11098.9c43.63,19.96 86.83,39.33 129.53,58.06 187.63,82.27 364.44,150.12 533.33,206.49"/>
  <path class="fil0 str0" d="M10377.12 11363.44c34.41,-32.98 69.15,-65.2 104.54,-95.61"/>
  <path class="fil0 str0" d="M10481.65 11267.83c-20.43,-38.94 -33.69,-81.59 -37.82,-125.17 -6.29,-66.37 7.68,-131.94 31.22,-192.86 36.85,-95.37 95.98,-184.14 154.48,-275.63 64.17,-100.37 126.69,-202.72 175.36,-309.89 30.14,-66.37 55.44,-134.59 75.81,-204.88"/>
  <path class="fil0 str0" d="M8910.22 11635.69c25.15,18.78 49.17,39.86 72.23,62.79 72.14,71.75 137.03,162.6 199.24,272.86"/>
  <path class="fil0 str0" d="M9181.69 11971.33c25.61,-7.78 51.52,-14.95 77.62,-21.51 125.25,-31.49 254.06,-51.36 374.35,-82.85 112.55,-29.46 216.7,-69.78 314.43,-130.02 82.76,-51.01 161.69,-116.66 239.17,-189.12"/>
  <path class="fil0 str0" d="M10187.25 11547.85c-117.24,-41.73 -238.09,-88.77 -362.91,-141.95 -101.68,-43.32 -205.52,-90.19 -311.27,-139.96"/>
  <path class="fil0 str0" d="M9513.07 11265.94c-99.56,60.08 -203.59,100.22 -293.06,139.63 -83.28,36.68 -152.94,73 -207.06,116.27 -41.46,33.15 -75.23,70.25 -102.73,113.85"/>
  <path class="fil0 str0" d="M9168.17 12225.06c110.65,-4.03 218.52,-4.65 323.74,-1.88 39.01,1.03 77.63,2.53 115.93,4.45"/>
  <path class="fil0 str0" d="M9607.83 12227.63c14.84,-44.96 35.76,-87.73 63.82,-126.52"/>
  <path class="fil0 str0" d="M9671.66 12101.12c-100.82,25.32 -198.27,42.41 -286.05,61.71 -79.86,17.56 -151.22,37.21 -217.44,62.23"/>
  <path class="fil0 str0" d="M8959.37 12059.04c-16.32,-27.53 -32.55,-53.04 -48.63,-76.48 -63.09,-91.96 -123.76,-150.65 -175.17,-179.31 -34.91,-19.46 -64.47,-27.14 -102.15,-26.34 -37.82,0.81 -86.42,12.33 -148.34,39.41 -72.02,31.49 -160.85,84.22 -256.37,143.99 -111.47,69.76 -230.15,146.75 -343.44,200.72 -87.24,41.56 -173.49,69.37 -255.35,75.75 -68.27,5.33 -130.37,-4.21 -183.83,-14.82 -76.49,-15.19 -138.69,-30.09 -222.31,-28.17 -63.47,1.46 -139.69,12.86 -225.15,35.86 -128.04,34.46 -275.26,94.98 -402.56,159.8 -87.89,44.76 -165.52,91.26 -222.76,130.7"/>
  <path class="fil0 str0" d="M6373.3 12520.15c98.41,25.62 196.46,51.58 290.29,72.82 132.78,30.06 255.83,49.06 360.84,48.35 98.54,-0.67 180.85,-17.81 262.29,-48.02 84.1,-31.2 168.93,-77.42 266.06,-120.93 82.63,-37.02 174.61,-69.97 271.5,-90.94 105.13,-22.74 214.77,-32.21 318.92,-40.51 112.54,-8.97 217.63,-18.25 309.18,-39.88 88.97,-21.02 166.41,-53.6 246.44,-96.78 80.7,-43.54 164.81,-97.57 260.56,-145.23"/>
  <path class="fil0 str0" d="M8382.24 11603.47c49.05,-21.94 97.56,-39.25 146.03,-50.12 54.25,-12.17 109.2,-15.59 162.19,-9.3"/>
  <path class="fil0 str0" d="M8690.45 11544.04c37.99,-68.02 86.21,-128.73 143.37,-179.96 8.95,-8.02 18.11,-15.79 27.45,-23.33"/>
  <path class="fil0 str0" d="M8861.28 11340.76c-24.22,-41.54 -42.74,-87.12 -54.39,-136.1 -22.26,-93.5 -19.19,-195.78 -1.06,-302.41 5.33,-31.35 11.93,-63.18 19.7,-95.56"/>
  <path class="fil0 str0" d="M8825.53 10806.69c-123.7,25.94 -258.36,62.86 -402.21,102.2 -112.29,30.71 -230.1,62.01 -346.02,90.32"/>
  <path class="fil0 str0" d="M8077.3 10999.21c6.31,50.48 10.09,100.21 10.68,149.24 0.72,60.23 -3.7,118.15 -12.41,173.7"/>
  <path class="fil0 str0" d="M8075.57 11322.16c0.58,0.39 1.16,0.77 1.74,1.15 127.76,84.87 229.14,178.49 304.93,280.16"/>
  <path class="fil0 str0" d="M9062.61 11217.86c15.39,-7.39 30.83,-14.5 46.23,-21.4 98.52,-44.07 195.11,-81.41 274.94,-128.46 96.05,-56.59 169.05,-126.08 225.64,-229.97 17.94,-32.94 34.13,-69.35 48.4,-109.26"/>
  <path class="fil0 str0" d="M9657.82 10728.78c-17.11,2.31 -34.05,4.39 -50.8,6.24 -145.45,16.05 -276.44,16.71 -400.56,23.22 -42.12,2.21 -83.7,5.19 -125.45,9.26"/>
  <path class="fil0 str0" d="M9081.02 10767.49c-24.58,81.12 -41.3,155.5 -48.91,219.76 -8.3,70.16 -5.24,126.24 6.44,170.12 5.92,22.25 13.88,42.18 24.06,60.48"/>
  <path class="fil0 str0" d="M9296.01 9773.65c-29.88,15.56 -63.81,31.91 -101.96,49.5 -107.57,49.62 -248.12,107.9 -380.38,161.76 -110.75,45.1 -213.61,86.31 -288.59,119.55 -33.5,14.85 -61.19,28.06 -84.09,40.22"/>
  <path class="fil0 str0" d="M8440.99 10144.68c80.25,25.06 162.48,48.8 241.8,78 101.87,37.5 199.36,86.39 276.14,159.32 45.01,42.75 82.04,93.28 109.9,149.24"/>
  <path class="fil0 str0" d="M9068.83 10531.24c14.37,-1.35 28.67,-2.57 42.89,-3.66 159.17,-12.14 307.65,-9.99 463.09,-26.66 20.66,-2.22 41.5,-4.79 62.51,-7.74"/>
  <path class="fil0 str0" d="M9637.31 10493.17c-102.1,-192.53 -194.32,-387.07 -278.7,-576.99 -21.3,-47.94 -42.11,-95.61 -62.6,-142.53"/>
  <path class="fil0 str0" d="M8011.24 10772c57.03,-13.67 114.63,-28.04 172,-43.1 185.25,-48.62 367.55,-102.72 539.57,-141.61 29.81,-6.74 59.37,-12.95 88.66,-18.65"/>
  <path class="fil0 str0" d="M8811.47 10568.65c-9.09,-9.89 -19.05,-19.36 -29.95,-28.54 -43.06,-36.23 -103.5,-67.55 -181.47,-96.17 -102.8,-37.74 -233.54,-70.91 -364.71,-119.13"/>
  <path class="fil0 str0" d="M8235.33 10324.81c-14.73,15.05 -30.56,30.85 -47.54,47.18 -70.5,67.77 -160.31,143.57 -263.15,195.7"/>
  <path class="fil0 str0" d="M7924.64 10567.69c26.97,66.85 55.84,134.89 86.6,204.32"/>
  <path class="fil0 str0" d="M8004.2 10220.39c-35.41,-19.3 -69.93,-39.78 -103.19,-61.34 -128.84,-83.5 -239.7,-180.01 -340.13,-271.37 -78.33,-71.25 -151.17,-139.96 -220.17,-205.65"/>
  <path class="fil0 str0" d="M7340.71 9682.03c-20.9,20.72 -43.76,41.58 -71.9,60.81"/>
  <path class="fil0 str0" d="M7268.81 9742.84c16.28,113.68 43.38,218.16 80.61,311.62 40.71,102.19 94.54,191.57 153,252 41.47,42.87 83.34,69.44 123.98,81.15 38.67,11.14 78.95,10.83 128.92,-4.8 49.22,-15.39 106.38,-47.42 160.79,-88.24 30.79,-23.1 60.35,-48.47 88.1,-74.19"/>
  <path class="fil0 str0" d="M6145.59 9106.08c56.62,40.87 115.26,80.82 175.75,119.69 118.75,76.28 245.52,148.88 368.32,209.03 120.19,58.87 236.61,104.53 316.54,121.53 43.39,9.23 74.36,9.73 92.66,6.66 17.63,-2.96 26.05,-6.83 43.02,-19.8 18.04,-13.79 43.86,-40.58 78.16,-75.34 43.55,-44.14 101.55,-97.59 169.24,-148.23 76.89,-57.52 166.03,-113.01 251.94,-166.26 100.84,-62.5 194.9,-122.61 265.56,-180.89 1.51,-1.24 3.01,-2.49 4.5,-3.73"/>
  <path class="fil0 str0" d="M7911.29 8968.75c-53.72,0.99 -108.53,2.06 -164.06,3.04 -248.74,4.39 -510.22,7.27 -744.25,14.16 -192.15,5.66 -364.81,14.83 -508.81,34.15 -133.81,17.95 -242.86,44.68 -340.89,82.94 -2.57,1 -5.13,2.01 -7.69,3.03"/>
  <path class="fil0 str0" d="M7168 10228.3c-8.08,-16.69 -15.81,-33.62 -23.23,-50.77 -50.28,-116.24 -85.31,-242.8 -106.32,-377.73"/>
  <path class="fil0 str0" d="M7038.45 9799.8c-57.56,-4.33 -116.88,-18.87 -179.08,-38.92 -145.15,-46.78 -306.7,-125.73 -462.17,-213.57 -166.92,-94.31 -326.07,-199.5 -471.06,-309.89 -4.94,-3.77 -9.88,-7.54 -14.8,-11.32"/>
  <path class="fil0 str0" d="M5911.35 9226.09c-16.54,9.85 -33.28,19.99 -50.32,30.39 -104.1,63.54 -219.62,135.47 -354.26,192.21 -5.86,2.46 -11.75,4.9 -17.68,7.3"/>
  <path class="fil0 str0" d="M5489.08 9456c126.91,152.84 255.81,290.39 387.19,413.07 29.61,27.65 59.37,54.52 89.31,80.75"/>
  <path class="fil0 str0" d="M5965.59 9949.83c61.07,0.39 126.84,2.82 195.87,8.53 141.51,11.71 295.48,37.19 435.67,72.86 127.98,32.57 243.14,73.53 337.08,110.55 97.19,38.3 172.48,70.31 232.5,86.19 0.43,0.11 0.86,0.22 1.3,0.34"/>
  <path class="fil0 str0" d="M7776.77 10825.52c-28.67,-65.87 -55.79,-130.84 -81.27,-194.73"/>
  <path class="fil0 str0" d="M7695.5 10630.79c-40.95,1.39 -81.81,-2.61 -120.99,-12.53 -87.73,-22.22 -164.3,-71.67 -227.17,-132.8 -4.15,-4.04 -8.25,-8.12 -12.3,-12.25"/>
  <path class="fil0 str0" d="M7335.04 10473.2c-58.59,7.94 -118.54,5.83 -177.13,-5.16 -86.24,-16.17 -167.84,-49.42 -257.07,-85.26 -80.8,-32.46 -170.28,-67.58 -273.73,-98.31 -102.88,-30.57 -219.22,-56.26 -333.95,-73.27"/>
  <path class="fil0 str0" d="M6293.16 10211.2c52.56,38.82 105.93,77.18 160.24,115.7 179.41,127.24 368.56,258.7 564.63,403.41 96.3,71.07 194.25,144.96 293.77,221.65"/>
  <path class="fil0 str0" d="M7311.81 10951.94c22.26,-10.13 45.93,-19.68 70.88,-28.43 99.68,-34.94 222.15,-60.87 358.92,-90.37 11.64,-2.51 23.36,-5.06 35.17,-7.63"/>
  <path class="fil0 str0" d="M7344.45 11964.02c25.96,3.04 50.27,6.93 72.69,11.15 59.35,11.18 104.64,22.33 143.33,25.71 38.33,3.35 72.78,0.94 119.65,-12.5 54.75,-15.7 125.11,-48.64 204.04,-93.81 90.06,-51.55 189.69,-117.26 287.67,-176.85"/>
  <path class="fil0 str0" d="M8171.82 11717.71c-62.26,-75.94 -148.02,-150.46 -264.26,-222.72 -153.04,-95.14 -356.43,-186.26 -591.42,-271.91"/>
  <path class="fil0 str0" d="M7316.14 11223.09c-6.35,4.74 -12.91,9.74 -19.86,15.06 -25.59,19.57 -57.08,43.28 -95.71,65.73"/>
  <path class="fil0 str0" d="M7200.57 11303.88c16.04,114.51 33.71,221.86 53.33,319.41 26.48,131.65 56.98,244.03 90.56,340.73"/>
  <path class="fil0 str0" d="M5879.12 10186.89c-98.61,2.83 -185.36,10.57 -280.37,8.14 -96.76,-2.48 -200.98,-18.31 -315.28,-50.23 -108.18,-30.21 -226.5,-73.78 -351.05,-123.28"/>
  <path class="fil0 str0" d="M4932.43 10021.52c19.85,81.19 45.92,157.42 78.2,228.98 65.01,144.16 156.8,269.5 270.07,391.55 125.85,135.61 275.41,268.75 420,413.43 117.17,117.25 231.16,241.11 339.63,371.36"/>
  <path class="fil0 str0" d="M6040.32 11426.84c3.08,-1.35 6.18,-2.75 9.31,-4.2 36.74,-16.98 79.06,-42.5 134.03,-70.43 62.86,-31.93 142.11,-64.07 231.51,-88.87 126.75,-35.17 274.34,-57.94 397.5,-81.61 83.94,-16.14 154.57,-33.26 204.2,-51.8 35.56,-13.29 60.63,-26.49 84.21,-41.9"/>
  <path class="fil0 str0" d="M7101.08 11088.03c-105.88,-80.8 -209.82,-158.28 -311.81,-232.54 -183.27,-133.44 -360.02,-255.08 -533.12,-379.1 -127.53,-91.36 -253.37,-185.66 -377.03,-289.5"/>
  <path class="fil0 str0" d="M6809.48 12041.1c98.99,-34.38 196.84,-59.69 287.72,-72.97"/>
  <path class="fil0 str0" d="M7097.2 11968.13c-25.93,-83.56 -49.42,-175.07 -70.23,-275.49 -19.66,-94.81 -37.1,-196.57 -52.9,-304.09"/>
  <path class="fil0 str0" d="M6974.07 11388.56c-32.63,8.02 -66.67,15.35 -101.71,22.22 -129.68,25.44 -271.48,47.28 -382.12,76.94 -69.29,18.58 -125.48,39.54 -173.83,62.44 -20.34,9.63 -39.62,19.8 -58.94,30.25"/>
  <path class="fil0 str0" d="M6257.47 11580.41c83.06,52.76 161.5,107.02 234.54,163.3 122.5,94.39 227.46,194.01 317.47,297.39"/>
  <path class="fil0 str0" d="M7851.21 11193.37c0.67,-17.37 0.8,-35.13 0.35,-53.33 -0.69,-28 -2.73,-57.35 -5.97,-87.77"/>
  <path class="fil0 str0" d="M7845.59 11052.26c-73.35,15.93 -142.44,30.56 -203.93,44.73"/>
  <path class="fil0 str0" d="M7641.67 11096.99c73.54,31.09 143.55,63.12 209.54,96.38"/>
  <path class="fil0 str0" d="M5629.22 9959.23c-130.79,-129.27 -258.57,-271.99 -383.6,-428"/>
  <path class="fil0 str0" d="M5245.62 9531.22c-37.7,8.33 -76.04,15.37 -114.83,21.02 -157.56,22.94 -321.54,24.18 -474.56,18.48 -80.89,-3.01 -158.33,-7.61 -231.76,-12"/>
  <path class="fil0 str0" d="M4424.46 9558.72c36.22,14.43 72.41,28.99 108.52,43.67 181.98,73.97 362.48,151.13 524.44,214.46 131.16,51.29 248.39,91.91 345.61,114.93 77.87,18.44 142.17,25.95 208.2,27.25 5.96,0.12 11.95,0.19 18,0.2"/>
  <path class="fil0 str0" d="M4855.22 10465.86c-92.57,-164.05 -153.98,-349.15 -184,-551.1"/>
  <path class="fil0 str0" d="M4671.23 9914.76c-152.73,-63.09 -308.93,-127.61 -463.7,-187.6 -156.83,-60.8 -312.72,-117.59 -467.23,-169.8"/>
  <path class="fil0 str0" d="M3740.29 9557.36c-58.67,3.61 -119.13,7.45 -182.2,10.56"/>
  <path class="fil0 str0" d="M3558.09 9567.92c-142.84,7.05 -297.82,9.37 -455.83,-5.23"/>
  <path class="fil0 str0" d="M3102.27 9562.69c-14.68,21.48 -27.65,42.43 -38.87,62.68 -36.29,65.48 -53.38,122.39 -54.92,169.86 -1.37,42.24 7.93,79.98 32.05,123.76 29.67,53.86 83.24,114.24 159.07,174.67 0.58,0.46 1.17,0.93 1.75,1.39"/>
  <path class="fil0 str0" d="M3201.34 10095.05c0.57,0.49 1.13,0.98 1.7,1.46 51.86,44.65 103.69,87.84 155.48,129.57 94.61,76.23 189.15,147.66 283.38,213.73"/>
  <path class="fil0 str0" d="M3641.9 10439.81c15.07,-0.35 30.57,-0.5 46.51,-0.44 104.02,0.35 228.43,9.86 368.02,24.18 147.43,15.12 311.19,35.06 454.52,40.57 109.77,4.22 205.62,-1.09 276.28,-17.19 25.91,-5.9 48.41,-13 68,-21.07"/>
  <path class="fil0 str0" d="M4988.72 10663.9c-49.04,25.48 -103.66,43.94 -162.1,56.21 -127.06,26.69 -275.61,25.22 -427.92,14.23 -112.28,-8.1 -225.17,-20.81 -328.87,-31.82"/>
  <path class="fil0 str0" d="M4069.83 10702.52c173.81,90.7 345.32,159.58 513.02,202.95 227.43,58.82 447.3,70.57 663.34,38.63"/>
  <path class="fil0 str0" d="M5246.19 10944.09c-24.09,-23.61 -48.07,-47.44 -71.87,-71.62 -64.83,-65.85 -127.79,-134.84 -185.59,-208.58"/>
  <path class="fil0 str0" d="M4067.99 11434.4c56.14,2.37 112.54,1.54 170.14,-1.51 152.75,-8.08 315.41,-30.56 491.4,-41.11 144.69,-8.68 298.3,-8.2 449.71,2.56 183.62,13.04 362.7,39.71 505.51,54.47 23.84,2.46 46.61,4.54 68.25,6.18"/>
  <path class="fil0 str0" d="M5753 11454.99c-69.43,-78.16 -140.92,-153.83 -214.37,-227.5 -28.03,-28.11 -56.4,-55.9 -84.98,-83.57"/>
  <path class="fil0 str0" d="M5453.65 11143.92c-242.68,59.04 -492.61,70.39 -745.69,29.15 -205.09,-33.42 -410.89,-101.02 -615.81,-196.14"/>
  <path class="fil0 str0" d="M4092.14 10976.93c13.94,64.8 22.72,127.25 25.2,187.67 3.81,92.85 -9.26,182.27 -44.75,260.04 -1.49,3.28 -3.03,6.53 -4.59,9.75"/>
  <path class="fil0 str0" d="M5776.26 11693.34c-61.92,-3.51 -127.81,-10.46 -197.58,-18.69 -141.63,-16.71 -297.81,-37.64 -451.87,-47.04 -141.36,-8.63 -279.99,-7.19 -414.81,2 -179.5,12.23 -353.83,38.22 -538.11,42.05 -82.45,1.71 -167.06,-1.76 -253.41,-13.01"/>
  <path class="fil0 str0" d="M3920.49 11658.65c33.8,24.35 67.11,47.97 99.95,70.83 288.71,201.05 539.69,343.63 758.53,438.22 146.84,63.47 278.88,105.43 404.43,134.9"/>
  <path class="fil0 str0" d="M5183.39 12302.6c122.59,-98.2 235.65,-198.56 335.78,-301.14 97.39,-99.78 182.28,-202.48 257.09,-308.13"/>
  <path class="fil0 str0" d="M6576.57 12136.16c-84.63,-88.79 -183.48,-174.87 -300.44,-258.52 -72.61,-51.93 -151.64,-103.15 -235.77,-153.53"/>
  <path class="fil0 str0" d="M6040.35 11724.11c-88.99,138.67 -192.51,273.38 -313.77,402.31 -74.16,78.85 -154.16,155.24 -239.09,229.72"/>
  <path class="fil0 str0" d="M5487.49 12356.14c94.05,12.67 189.17,23.6 288.85,38.13 101.33,14.77 207.16,33.83 316.07,57.46"/>
  <path class="fil0 str0" d="M6092.41 12451.72c11.5,-14.01 24.18,-26.95 37.82,-39.93 47.18,-44.9 108.78,-89 185.08,-135.94 75.47,-46.44 165.35,-95.01 261.26,-139.69"/>
  <path class="fil0 str0" d="M3850.41 12233.58c187.09,4.09 376.35,11.03 567.57,20.89"/>
  <path class="fil0 str0" d="M4417.99 12254.47c-202.27,-108.81 -422.8,-249.42 -664.41,-425.04"/>
  <path class="fil0 str0" d="M3753.58 11829.44c-79.22,100.83 -149.91,183.23 -213.3,248.18 -18.28,18.73 -35.99,36.07 -53.26,52.07"/>
  <path class="fil0 str0" d="M3487.03 12129.69c113.34,37.13 234.94,71.73 363.39,103.89"/>
  <path class="fil0 str0" d="M3225.34 12033.04c4.55,-2.46 9.39,-5.26 14.61,-8.47 37.59,-23.07 92.64,-69.26 163.35,-145.74 46.98,-50.82 100.74,-114.52 160.91,-190.89"/>
  <path class="fil0 str0" d="M3564.21 11687.94c-143.93,-110.31 -294.71,-231.94 -452.45,-364.94"/>
  <path class="fil0 str0" d="M3111.76 11323c-143.75,76.02 -291.2,135.77 -439.29,179.87 -30.6,9.11 -61.23,17.52 -91.74,25.39"/>
  <path class="fil0 str0" d="M2580.73 11528.25c36.26,68.26 83.54,132.67 143.8,193.63 88.6,89.63 207.84,171.94 358.94,246.7 44.78,22.16 92.13,43.64 141.86,64.45"/>
  <path class="fil0 str0" d="M3806.9 11396.86c21.76,-20.28 37.91,-42.69 50,-68.58 16.3,-34.91 25.65,-78.84 24.84,-138.6 -1.27,-93.36 -28.85,-220.24 -78.23,-364.67"/>
  <path class="fil0 str0" d="M3803.51 10825c-38.98,-22.87 -77.9,-46.64 -116.75,-71.26 -213.31,-135.14 -425.07,-295.19 -636.17,-476.78"/>
  <path class="fil0 str0" d="M3050.59 10276.96c-87.85,-70.27 -159.54,-145.27 -209.85,-231.45 -5.74,-9.83 -11.17,-19.83 -16.27,-29.99"/>
  <path class="fil0 str0" d="M2824.46 10015.52c-105.11,64.27 -195.12,129.11 -264.49,193.25 -46.18,42.7 -84.25,85.63 -115.74,128.69"/>
  <path class="fil0 str0" d="M2444.24 10337.46c46.47,58.69 94.97,117.26 145.4,175.24 217.39,249.9 469.57,485.47 714.51,648.57 152.67,101.66 301.43,174.83 441.47,218.28 20.6,6.39 41.01,12.15 61.28,17.31"/>
  <path class="fil0 str0" d="M1599.87 11365.82c-34.59,-11.58 -70.76,-24.27 -108.27,-37.85 -53.58,-19.4 -109.86,-40.51 -163.43,-59.32"/>
  <path class="fil0 str0" d="M1328.17 11268.65c1.24,201.97 31.63,419.95 93.54,654.56 2.01,7.61 4.05,15.23 6.12,22.88"/>
  <path class="fil0 str0" d="M1427.83 11946.09c35.61,-84.54 77.93,-160.04 127.8,-226.15 30.44,-40.36 63.88,-76.88 99.65,-109.56"/>
  <path class="fil0 str0" d="M1655.28 11610.38c-23.17,-40.71 -40.24,-82.89 -49.83,-127.07 -8.36,-38.56 -10.19,-78.48 -5.58,-117.49"/>
  <path class="fil0 str0" d="M2036.27 12236.16c-95.21,-104.46 -181.69,-241.04 -263.05,-409.75"/>
  <path class="fil0 str0" d="M1773.22 11826.41c-19.93,22.68 -38.87,47.84 -57.02,75.92 -54.39,84.16 -100.21,195.02 -134.92,332.31"/>
  <path class="fil0 str0" d="M1581.28 12234.63c150.6,1.19 302.22,1.67 454.99,1.53"/>
  <path class="fil0 str0" d="M2881.3 12128.9c-137.6,-77.4 -255.13,-165.45 -348.32,-265.5 -80.43,-86.35 -143.13,-180.77 -188.91,-281.52"/>
  <path class="fil0 str0" d="M2344.07 11581.88c-31.2,6.51 -61.85,12.85 -91.78,19.23 -106.87,22.76 -203.16,47.34 -284.57,83.87"/>
  <path class="fil0 str0" d="M1967.72 11684.98c36.62,78.93 73.64,149.11 110.74,210.38 82.52,136.27 165.37,226.84 241.48,278.27 51.99,35.13 100.28,53.51 149.5,60.55"/>
  <line class="fil0 str0" x1="2469.44" y1="12234.18" x2="2577.8" y2= "12233.25" />
  <path class="fil0 str0" d="M2577.8 12233.25c46.81,-6.75 95.73,-20.85 145.04,-39.07 53.98,-19.95 107.29,-43.79 158.46,-65.28"/>
  <path class="fil0 str0" d="M2273.76 11355.18c-21.11,-75.54 -46.45,-145.37 -76.69,-208.83"/>
  <path class="fil0 str0" d="M2197.07 11146.35c-110.02,27.68 -208.62,73.35 -272.64,122.19 -42.63,32.52 -68.59,65.12 -80.61,91.49 -10.92,23.97 -13.33,43.05 -8.23,69.74 2.64,13.83 8.06,29.99 16.99,48.19"/>
  <path class="fil0 str0" d="M1852.59 11477.95c108.54,-51.81 223.4,-80.46 336.44,-104.87 28.34,-6.12 56.59,-12.03 84.73,-17.9"/>
  <path class="fil0 str0" d="M2441.43 11115.14c24.66,60.46 45.52,123.58 63.25,188.8"/>
  <path class="fil0 str0" d="M2504.68 11303.94c23.09,-5.8 46.07,-11.88 68.96,-18.35 94.38,-26.7 187.34,-59.69 279.28,-99.82"/>
  <path class="fil0 str0" d="M2852.92 11185.77c-84.3,-29.99 -168.84,-50.5 -253.39,-61.46 -52.8,-6.85 -105.76,-9.85 -158.11,-9.17"/>
  <path class="fil0 str0" d="M2318.79 10885.78c97.62,-10.04 197.54,-9.12 297.06,2.65"/>
  <path class="fil0 str0" d="M2615.85 10888.43c-101.26,-102.72 -197.95,-210.41 -287.87,-319.11"/>
  <path class="fil0 str0" d="M2327.97 10569.32c-29.63,49.99 -64.29,95.54 -104.79,135.88 -9.76,9.72 -19.88,19.1 -30.33,28.11"/>
  <path class="fil0 str0" d="M2192.85 10733.31c45.79,46.8 88.01,97.48 125.94,152.47"/>
  <path class="fil0 str0" d="M2773.21 9771.26c4.96,-73.18 26.81,-144.98 59.49,-213.66 5.24,-11.02 10.76,-21.98 16.56,-32.9"/>
  <path class="fil0 str0" d="M2849.26 9524.7c-79.77,-16.5 -159.12,-37.15 -237.27,-61.57 -198.81,-62.12 -390.7,-146.11 -581.59,-236.75 -113.89,-54.08 -227.69,-110.69 -341.81,-169.43"/>
  <path class="fil0 str0" d="M1688.58 9056.95c4.3,9.59 8.47,19.21 12.5,28.85"/>
  <path class="fil0 str0" d="M1701.07 9085.8c40.22,85.2 81.69,172.35 125.96,261.85 97.04,196.22 209.64,405.75 355.99,628.32 36.03,54.8 74.14,110.39 114.24,166.37"/>
  <path class="fil0 str0" d="M2297.26 10142.34c32.8,-39.06 69.5,-77.22 110.38,-114.38 101.08,-91.89 225.2,-176.04 365.57,-256.7"/>
  <path class="fil0 str0" d="M1761.02 9732.45c-13.14,63.93 -30.95,127.63 -52.26,190.89 -63.61,188.9 -155.89,375.37 -230.82,571.8 -15.82,41.47 -30.8,83.39 -44.74,125.88"/>
  <path class="fil0 str0" d="M1433.2 10621.02c169.98,33.63 315.41,40.4 423.49,18.76 84.8,-16.98 145.63,-48.97 197.28,-99.46 44.25,-43.26 82.21,-101.93 112.46,-176.67"/>
  <path class="fil0 str0" d="M2166.43 10363.65c-109,-146.15 -205.14,-290.83 -288.88,-429.25 -41.65,-68.85 -80.31,-136.16 -116.54,-201.95"/>
  <path class="fil0 str0" d="M1203.37 10563.3c2.72,-8.46 5.49,-16.89 8.29,-25.28 77.77,-232.94 179.93,-437.61 248.67,-621.16 52.2,-139.4 84.4,-265.98 88.94,-386.88 4.44,-118.19 -16.05,-232.63 -64.16,-348.67"/>
  <path class="fil0 str0" d="M1485.11 9181.3c-44.54,-94.24 -87.33,-185.07 -129.95,-273.26"/>
  <path class="fil0 str0" d="M1355.17 8908.04c-75.48,16.89 -137.88,69.71 -167.01,141.36"/>
  <line class="fil0 str0" x1="1188.15" y1="9049.4" x2="889.76" y2= "9581.55" />
  <line class="fil0 str0" x1="889.76" y1="9581.55" x2="889.76" y2= "10556.54" />
  <line class="fil0 str0" x1="889.76" y1="10556.54" x2="974.83" y2= "10549.74" />
  <path class="fil0 str0" d="M1203.37 10563.3c-75.18,-15.1 -152.1,-19.67 -228.54,-13.56"/>
  <path class="fil0 str0" d="M1051.17 8335.63l-161.4 0 0 820.51 79.56 -195.7c-63.08,-210.34 -33.24,-437.78 81.84,-624.81z"/>
  <line class="fil0 str0" x1="993.65" y1="10785.21" x2="889.76" y2= "10793.51" />
  <line class="fil0 str0" x1="889.76" y1="10793.51" x2="889.76" y2= "10990.73" />
  <line class="fil0 str0" x1="889.76" y1="10990.73" x2="1025.13" y2= "10974.29" />
  <path class="fil0 str0" d="M1025.13 10974.29c27.69,-3.37 56.03,-3.8 85.13,-1.82"/>
  <path class="fil0 str0" d="M1110.25 10972.47c8.11,-61.51 18.73,-121.68 31.45,-180.42"/>
  <path class="fil0 str0" d="M1141.7 10792.05c-48.87,-8.49 -98.61,-10.79 -148.06,-6.84"/>
  <path class="fil0 str0" d="M1370.93 10849.5c-12.17,56.78 -22.06,114.78 -29.2,174.24"/>
  <path class="fil0 str0" d="M1341.72 11023.74c72.93,23.6 147.06,51.82 214.6,76.42 53.31,19.41 102.4,36.54 147.05,51.04"/>
  <path class="fil0 str0" d="M1703.37 11151.2c24.32,-26.59 51.82,-50.96 81.5,-73.29 78.2,-58.81 173.02,-105.36 276.78,-138.68"/>
  <path class="fil0 str0" d="M2061.66 10939.23c-26.49,-30.41 -54.99,-59.15 -85.38,-86.42"/>
  <path class="fil0 str0" d="M1976.28 10852.81c-4.37,1.37 -8.76,2.69 -13.17,3.96 -138.6,40.14 -293.72,39.57 -462.09,15.54 -42.44,-6.06 -85.8,-13.69 -130.09,-22.81"/>
  <line class="fil0 str0" x1="1053.61" y1="11208.78" x2="889.76" y2= "11228.69" />
  <line class="fil0 str0" x1="889.76" y1="11228.69" x2="889.76" y2= "11871.06" />
  <line class="fil0 str0" x1="889.76" y1="11871.06" x2="1186.78" y2= "12176.54" />
  <path class="fil0 str0" d="M1186.78 12176.54c23.44,16.75 49.01,30.32 76.03,40.35"/>
  <path class="fil0 str0" d="M1262.81 12216.9c-6.53,-19.77 -12.88,-39.46 -19.05,-59.08 -106.47,-338.8 -157.56,-656.51 -151.43,-949.56"/>
  <path class="fil0 str0" d="M1092.33 11208.25c-8.34,-0.59 -15.88,-0.78 -22.57,-0.6 -6.07,0.15 -11.46,0.56 -16.14,1.13"/>
 </g>
</svg>
